if (_typeface_js && _typeface_js.loadFace) _typeface_js.loadFace({"glyphs":{"0":{"ha":692,"x_min":47,"x_max":655,"o":"m 56 376 q 63 543 47 463 q 113 686 79 624 q 198 787 148 747 q 309 833 248 826 q 427 810 370 838 q 530 727 484 781 q 608 597 576 673 q 647 435 639 522 q 640 271 655 349 q 589 133 624 193 q 505 36 555 73 q 393 -7 454 -1 q 275 13 332 -14 q 172 91 218 39 q 96 216 126 142 q 56 376 65 289 m 157 378 q 184 262 163 316 q 237 171 206 209 q 307 113 269 133 q 384 98 345 94 q 457 128 425 102 q 511 199 490 155 q 543 299 533 243 q 547 418 552 355 q 519 537 540 480 q 466 637 498 594 q 396 703 434 680 q 317 723 358 727 q 244 688 277 719 q 191 608 212 656 q 160 500 170 560 q 157 378 151 441 z "},"1":{"ha":224,"x_min":41,"x_max":180,"o":"m 72 789 q 96 823 77 814 q 133 829 114 831 q 166 813 152 826 q 179 783 180 800 l 142 39 q 125 5 141 14 q 90 -2 109 -4 q 56 11 71 0 q 42 38 41 22 l 72 789 z "},"2":{"ha":590,"x_min":20,"x_max":563,"o":"m 133 -28 q 95 -18 109 -31 q 77 12 81 -5 q 79 45 73 28 q 96 68 84 61 q 216 210 159 137 q 315 353 273 282 q 380 492 357 425 q 397 617 403 559 q 361 697 392 669 q 288 730 331 726 q 233 725 260 732 q 182 701 206 718 q 141 658 159 684 q 118 598 123 632 q 98 574 115 579 q 63 576 81 570 q 33 597 45 582 q 27 632 20 612 q 73 726 42 686 q 142 790 103 765 q 226 825 182 815 q 313 831 270 836 q 384 812 350 827 q 444 769 418 796 q 487 704 471 742 q 503 618 503 666 q 484 477 505 548 q 430 337 464 406 q 351 204 396 269 q 260 83 307 140 l 518 103 q 553 84 543 100 q 561 50 563 68 q 547 16 559 31 q 515 4 534 1 l 133 -28 z "},"3":{"ha":605,"x_min":20,"x_max":560,"o":"m 290 387 q 269 401 278 387 q 258 433 260 415 q 264 465 256 450 q 293 481 273 480 q 342 485 313 480 q 397 504 370 490 q 442 545 423 518 q 461 616 461 572 q 451 658 461 636 q 422 697 441 680 q 376 726 403 715 q 315 738 349 738 q 284 736 304 738 q 241 725 264 735 q 197 694 218 715 q 161 635 175 673 q 138 614 156 617 q 103 620 121 612 q 76 644 85 628 q 77 680 66 661 q 129 762 98 731 q 195 810 160 793 q 262 833 229 827 q 321 837 296 838 q 408 820 365 836 q 484 776 450 804 q 539 706 518 747 q 560 612 560 665 q 534 498 560 543 q 464 427 507 453 q 534 326 511 389 q 538 174 557 262 q 492 60 525 104 q 417 -8 460 16 q 327 -39 374 -33 q 236 -39 279 -46 q 178 -24 210 -35 q 116 12 146 -12 q 61 72 85 35 q 27 163 37 109 q 33 197 20 183 q 63 216 45 212 q 98 215 81 221 q 118 191 115 209 q 140 125 123 151 q 178 87 157 100 q 218 67 198 73 q 248 60 237 61 q 313 60 282 53 q 371 84 345 66 q 416 128 397 102 q 441 189 434 155 q 439 267 449 232 q 408 327 430 301 q 355 368 387 353 q 290 387 324 382 z "},"4":{"ha":590,"x_min":30,"x_max":563,"o":"m 429 387 l 175 366 q 96 374 127 362 q 61 431 65 385 l 30 768 q 50 802 33 792 q 88 810 68 812 q 124 797 109 808 q 137 768 140 785 l 160 471 l 420 492 l 392 798 q 412 832 395 822 q 450 841 430 842 q 484 829 469 840 q 498 802 499 819 l 562 62 q 548 25 563 37 q 514 14 533 14 q 479 22 495 14 q 461 47 463 31 l 429 387 z "},"5":{"ha":601,"x_min":9,"x_max":582,"o":"m 79 727 q 100 803 83 774 q 163 827 117 831 l 545 795 q 576 769 570 788 q 576 730 582 750 q 557 697 571 711 q 528 689 544 684 l 184 723 l 170 541 q 324 537 256 555 q 438 480 392 519 q 508 383 484 441 q 530 259 532 326 q 505 106 529 171 q 438 1 481 41 q 332 -49 395 -38 q 187 -38 269 -60 q 55 50 100 -15 q 20 201 9 115 q 39 231 22 220 q 77 244 57 243 q 112 236 96 245 q 127 203 127 227 q 136 141 127 167 q 159 98 145 115 q 193 70 174 80 q 231 56 212 60 q 317 57 281 45 q 377 98 354 69 q 412 167 400 126 q 426 252 425 208 q 410 340 427 298 q 357 408 392 381 q 274 442 323 434 q 164 433 225 450 q 138 429 155 430 q 106 433 122 427 q 79 456 91 439 q 64 505 66 472 l 79 727 z "},"6":{"ha":614,"x_min":39,"x_max":605,"o":"m 387 852 q 414 833 403 849 q 428 797 426 817 q 420 762 430 777 q 385 746 410 746 q 247 698 296 738 q 175 606 198 658 q 148 500 152 553 q 145 411 144 446 q 200 458 167 438 q 267 491 233 479 q 370 503 319 507 q 465 474 420 498 q 542 411 509 450 q 590 319 575 372 q 600 214 605 267 q 572 115 594 161 q 510 32 549 68 q 419 -22 471 -4 q 273 -31 338 -49 q 162 39 209 -12 q 86 165 115 90 q 47 328 57 241 q 41 420 43 368 q 46 528 39 472 q 73 638 53 583 q 133 738 94 693 q 234 813 172 783 q 387 852 296 844 m 183 183 q 216 127 194 152 q 267 86 239 102 q 328 67 296 71 q 392 75 361 64 q 448 106 423 84 q 486 156 472 127 q 504 217 500 184 q 499 282 507 250 q 469 337 490 313 q 420 375 448 361 q 360 393 392 389 q 297 387 328 396 q 239 356 266 376 q 197 311 213 336 q 176 252 180 285 q 183 183 171 220 z "},"7":{"ha":593,"x_min":19,"x_max":568,"o":"m 480 806 q 551 773 533 803 q 541 689 568 743 l 193 3 q 165 -24 183 -20 q 130 -19 146 -27 q 102 4 113 -11 q 98 34 91 19 l 431 704 l 62 728 q 28 745 37 730 q 22 779 19 761 q 36 812 24 798 q 64 826 47 827 l 480 806 z "},"8":{"ha":616,"x_min":43,"x_max":593,"o":"m 585 241 q 580 146 593 193 q 539 61 567 99 q 471 -3 511 23 q 381 -37 430 -28 q 286 -32 332 -45 q 201 9 239 -19 q 138 79 164 38 q 106 168 113 119 q 114 279 96 225 q 168 373 132 334 q 91 440 122 397 q 50 540 60 483 q 55 635 43 589 q 93 720 66 682 q 159 784 119 758 q 248 818 199 810 q 343 812 297 825 q 426 770 389 799 q 488 701 463 742 q 519 612 513 661 q 511 505 529 555 q 458 419 494 456 q 542 346 507 392 q 585 241 576 300 m 487 228 q 467 280 483 256 q 429 320 452 304 q 378 344 406 336 q 323 347 351 351 q 272 328 296 343 q 232 290 248 312 q 209 240 216 267 q 206 184 202 213 q 225 133 210 156 q 262 94 240 110 q 312 70 285 77 q 366 66 339 62 q 418 86 393 71 q 459 124 442 102 q 484 173 476 146 q 487 228 491 199 m 149 553 q 168 504 153 525 q 203 469 182 483 q 250 451 224 456 q 304 450 275 446 q 354 467 331 454 q 393 498 377 479 q 416 543 410 518 q 419 595 423 567 q 400 647 415 624 q 364 686 385 670 q 317 710 343 703 q 263 713 290 718 q 212 694 235 709 q 174 657 189 680 q 152 608 159 635 q 149 553 145 582 z "},"9":{"ha":594,"x_min":50,"x_max":549,"o":"m 448 781 q 466 806 449 798 q 502 815 483 815 q 535 804 521 815 q 548 768 549 792 l 490 15 q 465 -22 483 -12 q 429 -28 448 -33 q 397 -9 411 -24 q 384 27 384 5 q 386 52 384 27 q 391 114 388 77 q 397 193 393 151 q 402 273 400 236 q 406 334 404 309 q 408 359 408 358 q 271 327 345 321 q 181 354 222 331 q 111 414 140 377 q 66 497 81 450 q 54 593 50 544 q 81 684 58 642 q 138 758 103 727 q 217 806 172 789 q 311 818 262 822 q 445 761 388 812 l 448 781 m 153 586 q 160 530 151 557 q 186 482 170 503 q 227 447 203 461 q 278 430 251 433 q 332 437 307 427 q 378 465 358 446 q 412 507 399 483 q 426 560 425 532 q 393 673 429 633 q 301 718 358 712 q 248 709 273 719 q 202 682 222 700 q 169 640 182 665 q 153 586 156 614 z "}," ":{"ha":345,"x_min":0,"x_max":0,"o":""},"%":{"ha":594,"x_min":35,"x_max":581,"o":"m 480 792 q 516 809 496 810 q 551 797 536 808 q 574 768 567 785 q 571 735 581 750 l 132 35 q 100 13 118 14 q 66 23 81 12 q 43 51 50 34 q 43 81 35 68 l 480 792 m 156 779 q 178 819 159 803 q 224 831 198 834 q 264 808 248 827 q 275 762 279 788 q 253 722 273 736 q 208 711 233 708 q 168 734 182 715 q 156 779 153 753 m 349 64 q 371 104 351 90 q 416 117 391 119 q 456 94 441 114 q 469 47 472 73 q 446 8 465 23 q 400 -3 426 -7 q 360 19 374 0 q 349 64 346 38 z "},"&":{"ha":642,"x_min":37,"x_max":604,"o":"m 171 392 q 121 454 146 416 q 75 534 95 491 q 46 623 56 578 q 44 706 37 667 q 81 773 52 745 q 170 814 111 802 q 254 808 222 823 q 301 761 285 793 q 319 683 317 728 q 315 589 321 637 q 297 491 309 540 q 271 403 285 442 q 293 372 271 399 q 342 315 315 346 q 394 257 369 283 q 427 225 419 231 q 413 326 429 278 q 384 404 397 373 q 384 439 374 425 q 410 458 393 453 q 443 457 426 463 q 468 433 460 452 q 506 146 528 286 l 590 64 q 602 33 604 50 q 591 4 601 16 q 564 -12 581 -8 q 529 -3 547 -15 l 461 64 q 397 -8 441 19 q 293 -43 354 -35 q 191 -33 231 -52 q 132 20 152 -15 q 107 104 111 56 q 111 203 103 152 q 134 303 118 254 q 171 392 151 353 m 231 316 q 216 273 225 300 q 201 214 208 245 q 193 152 194 183 q 200 95 191 121 q 230 54 209 69 q 289 39 251 38 q 353 70 324 46 q 395 125 381 94 l 231 316 m 210 477 q 220 511 213 488 q 231 564 227 534 q 238 625 236 594 q 235 680 240 655 q 216 718 229 704 q 175 728 202 732 q 146 711 160 726 q 130 665 132 696 q 145 589 127 635 q 210 477 163 543 z "},"+":{"ha":481,"x_min":34,"x_max":453,"o":"m 190 264 l 80 264 q 44 280 54 264 q 35 315 34 296 q 47 349 37 334 q 73 365 57 365 l 191 366 l 193 479 q 215 513 197 503 q 252 522 233 524 q 283 507 270 519 q 293 476 297 495 l 292 368 l 408 369 q 443 347 433 365 q 452 310 453 328 q 438 277 450 292 q 407 267 426 263 l 290 266 l 290 149 q 274 114 290 123 q 239 106 258 104 q 205 117 220 107 q 190 144 190 127 l 190 264 z "},"-":{"ha":492,"x_min":34,"x_max":453,"o":"m 408 369 q 443 347 433 365 q 452 310 453 328 q 438 277 450 292 q 407 267 426 263 l 80 264 q 44 280 54 264 q 35 315 34 296 q 47 349 37 334 q 73 365 57 365 l 408 369 z "},".":{"ha":160,"x_min":15,"x_max":136,"o":"m 15 56 q 32 99 15 81 q 75 117 49 117 q 118 99 100 117 q 136 56 136 81 q 118 13 136 30 q 75 -4 100 -4 q 32 13 49 -4 q 15 56 15 30 z "},"/":{"ha":464,"x_min":8,"x_max":461,"o":"m 355 807 q 389 829 369 827 q 426 821 410 830 q 452 795 442 812 q 453 762 461 779 l 109 12 q 79 -14 98 -11 q 45 -9 61 -18 q 18 16 28 0 q 15 46 8 31 l 355 807 z "},":":{"ha":262,"x_min":54,"x_max":216,"o":"m 94 179 q 104 224 90 205 q 144 248 118 244 q 189 236 170 251 q 213 197 209 221 q 201 151 216 171 q 160 129 186 132 q 115 139 134 125 q 94 179 96 153 m 57 433 q 68 479 54 458 q 109 502 83 499 q 154 490 134 506 q 178 450 174 475 q 165 405 180 425 q 125 382 151 385 q 80 393 99 378 q 57 433 61 408 z "},"<":{"ha":458,"x_min":46,"x_max":431,"o":"m 84 278 q 54 305 61 289 q 48 338 46 321 q 60 370 50 355 q 84 391 71 384 l 334 560 q 363 557 349 566 q 386 532 378 548 q 390 497 393 515 q 366 465 387 479 l 184 346 l 397 259 q 427 235 422 252 q 425 199 431 217 q 403 170 418 182 q 373 163 388 157 l 84 278 z "},"=":{"ha":494,"x_min":42,"x_max":476,"o":"m 426 282 q 463 263 450 279 q 475 228 475 247 q 466 194 476 209 q 435 180 456 179 l 111 142 q 74 155 85 140 q 61 188 62 170 q 68 223 60 206 q 94 241 77 240 l 426 282 m 408 456 q 444 437 433 453 q 456 401 456 420 q 447 368 457 382 q 418 354 437 353 l 92 317 q 56 329 68 315 q 43 362 43 343 q 50 397 42 381 q 75 416 58 414 l 408 456 z "},">":{"ha":472,"x_min":37,"x_max":420,"o":"m 96 152 q 66 157 81 145 q 44 186 52 168 q 41 222 37 203 q 69 247 45 240 l 281 339 l 96 453 q 71 486 75 467 q 75 521 68 505 q 97 546 83 537 q 126 549 111 555 l 380 385 q 404 366 393 380 q 418 334 415 351 q 412 301 420 317 q 382 274 404 285 l 96 152 z "},"?":{"ha":570,"x_min":27,"x_max":543,"o":"m 174 324 q 184 361 175 349 q 205 380 193 374 q 230 386 217 385 q 255 385 243 387 q 315 391 288 382 q 363 417 342 400 q 400 458 385 434 q 422 510 415 483 q 429 580 431 544 q 412 647 426 616 q 373 701 399 678 q 311 732 347 724 q 195 713 245 745 q 134 608 145 682 q 113 578 130 585 q 75 577 95 572 q 41 596 56 582 q 30 629 27 610 q 70 735 41 692 q 140 803 99 779 q 232 833 180 827 q 339 830 283 840 q 443 784 400 818 q 509 703 486 750 q 538 602 533 656 q 530 495 543 548 q 499 413 521 452 q 445 345 477 374 q 369 298 412 315 q 271 281 326 281 l 263 205 q 244 172 260 180 q 210 165 228 163 q 176 180 191 168 q 163 208 161 191 l 174 324 m 250 22 q 229 -20 247 -4 q 184 -34 210 -37 q 142 -12 159 -31 q 129 33 126 7 q 151 74 132 58 q 195 87 170 90 q 237 66 221 84 q 250 22 252 47 z "},"A":{"ha":697,"x_min":33,"x_max":666,"o":"m 160 792 q 182 827 167 817 q 215 837 198 837 q 247 829 232 837 q 270 808 262 821 l 658 111 q 658 81 666 98 q 633 54 650 65 q 599 44 617 43 q 568 66 581 45 l 422 327 l 184 285 l 136 -5 q 114 -37 132 -30 q 78 -39 96 -43 q 46 -22 60 -35 q 35 7 33 -9 l 160 792 m 202 392 l 368 422 l 244 640 l 202 392 z "},"B":{"ha":610,"x_min":34,"x_max":591,"o":"m 141 758 q 149 776 142 764 q 168 800 155 788 q 200 822 180 812 q 247 831 220 831 q 304 829 269 831 q 378 817 339 826 q 458 789 418 807 q 528 743 498 772 q 575 671 559 713 q 585 570 591 628 q 567 511 581 537 q 533 464 553 484 q 488 428 513 444 q 437 403 463 412 q 492 355 467 382 q 534 296 517 328 q 557 229 551 264 q 557 156 564 193 q 423 -14 530 24 q 122 -12 316 -53 q 85 -5 103 -8 q 56 8 68 -1 q 39 38 43 18 q 39 96 34 58 l 141 758 m 456 186 q 439 269 461 233 q 377 330 416 305 q 287 368 338 354 q 183 387 236 382 l 141 88 q 234 66 182 73 q 333 66 286 58 q 414 102 380 75 q 456 186 449 130 m 488 582 q 476 635 492 608 q 426 685 460 663 q 343 719 392 707 q 233 727 294 731 l 198 487 q 281 474 233 479 q 372 477 328 469 q 449 509 416 486 q 488 582 481 533 z "},"C":{"ha":659,"x_min":31,"x_max":616,"o":"m 514 232 q 541 262 522 256 q 578 258 560 267 q 606 230 595 250 q 606 184 616 210 q 513 30 575 91 q 369 -38 450 -31 q 251 -16 308 -43 q 149 65 194 12 q 75 192 104 118 q 38 354 45 266 q 48 520 31 441 q 100 661 65 600 q 186 762 136 723 q 298 806 237 800 q 454 772 384 812 q 570 632 524 731 q 573 598 582 616 q 547 570 564 581 q 507 562 529 560 q 472 587 486 564 q 398 675 439 652 q 305 694 357 699 q 232 661 264 690 q 177 583 199 631 q 144 476 155 536 q 138 354 133 416 q 164 238 144 292 q 215 146 184 184 q 283 88 245 109 q 361 72 321 68 q 454 121 414 76 q 514 232 495 165 z "},"D":{"ha":605,"x_min":35,"x_max":579,"o":"m 35 731 q 39 751 35 736 q 52 780 42 765 q 79 807 62 795 q 123 823 96 819 q 328 810 243 841 q 467 717 412 780 q 547 568 521 654 q 576 389 574 481 q 561 234 579 308 q 496 103 543 160 q 370 11 449 46 q 175 -28 292 -24 q 138 -29 156 -28 q 105 -22 119 -30 q 82 4 91 -15 q 72 62 73 23 l 35 731 m 172 76 q 318 96 259 73 q 412 161 377 119 q 460 260 446 202 q 471 385 473 317 q 452 527 468 458 q 397 644 435 595 q 294 715 358 693 q 132 720 229 738 l 172 76 z "},"E":{"ha":718,"x_min":39,"x_max":682,"o":"m 288 -62 q 260 -65 275 -65 q 232 -62 245 -65 q 209 -51 218 -58 q 198 -33 199 -43 l 46 692 q 56 749 39 727 q 121 781 72 770 l 480 848 q 517 838 505 852 q 533 806 530 825 q 528 770 536 788 q 506 750 521 753 l 159 678 l 208 427 l 438 472 q 476 463 463 476 q 492 431 490 449 q 487 395 494 412 q 464 374 480 377 l 229 326 l 285 47 l 625 110 q 664 102 651 115 q 680 70 677 88 q 675 34 682 52 q 652 12 667 16 l 288 -62 z "},"F":{"ha":666,"x_min":43,"x_max":640,"o":"m 144 3 q 125 -17 141 -14 q 90 -16 109 -20 q 58 -2 72 -12 q 45 20 43 8 l 138 769 q 166 819 145 803 q 239 829 187 836 l 600 774 q 633 753 625 770 q 637 718 640 736 q 621 686 633 700 q 593 675 608 673 l 241 719 l 205 458 l 437 425 q 470 405 463 422 q 474 370 477 388 q 458 337 471 351 q 430 326 445 323 l 191 354 l 144 3 l 144 3 z "},"G":{"ha":686,"x_min":34,"x_max":640,"o":"m 369 87 q 435 107 404 91 q 489 155 467 123 q 524 237 511 187 q 533 355 536 286 l 376 338 q 338 350 350 335 q 326 383 327 365 q 334 418 326 401 q 359 437 343 435 l 534 456 q 591 452 571 460 q 621 431 612 445 q 633 401 631 418 q 636 372 636 385 q 621 209 640 279 q 567 90 602 138 q 483 14 532 41 q 378 -19 434 -14 q 260 3 317 -24 q 157 83 202 30 q 81 209 111 136 q 42 370 50 282 q 50 536 34 457 q 101 678 66 616 q 186 779 136 741 q 298 823 237 818 q 381 814 340 827 q 458 775 422 802 q 525 709 494 749 q 579 621 556 670 q 571 595 585 609 q 538 572 557 581 q 503 562 519 563 q 483 578 486 562 q 403 682 449 640 q 305 719 357 723 q 233 683 266 715 q 178 602 201 651 q 146 493 156 553 q 142 372 136 433 q 170 255 148 309 q 222 162 191 201 q 290 103 252 123 q 369 87 328 83 z "},"H":{"ha":662,"x_min":12,"x_max":650,"o":"m 492 330 l 153 370 l 115 38 q 96 5 113 14 q 60 0 79 -3 q 27 15 42 3 q 15 43 12 27 l 95 792 q 122 822 103 817 q 161 822 141 827 q 193 802 180 817 q 201 772 206 788 l 165 475 l 506 434 l 540 739 q 566 768 547 762 q 605 770 586 774 q 637 751 624 765 q 644 722 650 738 l 559 -15 q 539 -49 556 -41 q 503 -54 522 -57 q 469 -38 484 -50 q 456 -9 454 -26 l 492 330 z "},"I":{"ha":601,"x_min":9,"x_max":586,"o":"m 297 75 l 182 689 l 65 666 q 28 675 41 662 q 12 708 15 689 q 17 744 9 727 q 41 764 24 761 l 406 830 q 441 814 430 830 q 453 781 453 799 q 443 747 453 762 q 412 731 433 731 l 288 708 l 400 92 l 525 114 q 558 110 543 121 q 580 82 574 99 q 581 47 586 65 q 552 19 575 28 l 187 -46 q 158 -35 171 -49 q 140 -3 145 -22 q 143 32 136 15 q 175 53 151 49 l 293 73 l 297 75 z "},"J":{"ha":779,"x_min":20,"x_max":753,"o":"m 123 273 q 183 160 142 205 q 277 113 224 115 q 342 140 315 110 q 387 219 369 170 q 416 334 406 269 q 434 468 427 399 q 444 606 441 537 q 452 731 448 674 l 271 747 q 238 766 247 749 q 231 801 229 783 q 245 834 233 819 q 273 848 256 849 l 713 814 q 745 789 738 807 q 748 754 753 772 q 729 724 743 736 q 696 716 715 712 l 560 726 q 555 577 557 658 q 542 416 552 496 q 514 260 532 335 q 465 126 496 184 q 385 34 433 68 q 270 1 338 0 q 193 20 229 3 q 125 67 156 38 q 71 136 95 96 q 31 222 47 176 q 31 268 20 248 q 59 297 41 288 q 96 302 77 307 q 123 273 115 297 z "},"K":{"ha":652,"x_min":18,"x_max":631,"o":"m 18 730 q 37 766 19 754 q 75 777 54 777 q 110 767 95 777 q 123 741 125 757 l 155 438 l 449 806 q 490 810 471 818 q 521 785 509 802 q 534 748 533 768 q 519 720 534 728 l 301 457 l 616 85 q 630 58 629 77 q 622 21 631 38 q 596 -4 613 4 q 557 1 579 -12 l 233 376 q 186 319 198 335 q 167 302 174 302 l 198 -3 q 185 -40 199 -28 q 152 -52 171 -52 q 116 -44 133 -53 q 98 -19 99 -35 l 18 730 z "},"L":{"ha":567,"x_min":34,"x_max":536,"o":"m 183 811 q 212 838 193 834 q 251 833 232 841 q 281 810 270 826 q 286 779 293 795 l 144 121 l 507 47 q 533 18 530 38 q 526 -19 536 -1 q 500 -47 517 -37 q 468 -52 484 -58 l 104 23 q 78 31 92 26 q 54 45 64 37 q 39 70 43 54 q 38 109 34 85 l 183 811 z "},"M":{"ha":897,"x_min":30,"x_max":871,"o":"m 171 467 l 236 -22 q 226 -60 240 -47 q 193 -73 212 -72 q 156 -66 174 -75 q 137 -42 138 -58 l 30 720 q 44 749 31 738 q 75 764 57 760 q 109 762 92 768 q 134 742 126 757 l 476 155 l 659 812 q 677 836 661 829 q 714 843 694 844 q 751 832 734 842 q 769 804 768 822 l 868 57 q 857 20 871 33 q 823 7 842 8 q 787 14 804 5 q 769 38 770 22 l 696 548 l 545 23 q 527 -1 541 8 q 496 -11 513 -9 q 464 -7 480 -12 q 439 14 448 -1 l 171 467 z "},"N":{"ha":713,"x_min":20,"x_max":697,"o":"m 220 621 l 123 52 q 102 20 119 27 q 66 16 84 12 q 34 33 47 20 q 23 62 20 46 l 146 819 q 168 846 152 838 q 201 852 183 854 q 234 841 218 850 q 255 817 250 831 l 495 172 l 589 742 q 616 771 597 765 q 653 772 635 777 q 684 753 671 768 q 693 722 697 739 l 566 -28 q 549 -52 563 -45 q 517 -57 534 -58 q 485 -47 500 -56 q 465 -26 469 -39 l 220 621 z "},"O":{"ha":700,"x_min":42,"x_max":673,"o":"m 76 486 q 152 634 104 568 q 256 742 199 700 q 376 799 313 784 q 496 793 438 814 q 595 724 555 773 q 654 606 635 674 q 669 456 673 537 q 637 292 666 374 q 562 144 609 209 q 459 41 515 80 q 342 -12 403 1 q 222 -4 281 -24 q 123 64 164 16 q 62 178 83 113 q 45 323 42 244 q 76 486 47 403 m 168 445 q 145 328 148 385 q 155 224 142 271 q 193 142 167 176 q 258 95 220 107 q 336 92 296 81 q 416 134 377 103 q 487 211 454 164 q 540 317 519 258 q 564 437 560 376 q 557 549 568 498 q 522 639 547 601 q 458 690 496 677 q 378 689 420 704 q 296 640 335 674 q 222 554 256 605 q 168 445 189 503 z "},"P":{"ha":567,"x_min":24,"x_max":538,"o":"m 293 -9 q 274 -37 289 -26 q 242 -50 259 -47 q 210 -49 225 -53 q 193 -31 195 -45 l 35 659 q 45 745 24 708 q 110 793 65 783 q 165 806 130 799 q 240 818 199 814 q 324 819 281 822 q 406 800 368 817 q 475 749 445 783 q 521 658 506 715 q 518 525 538 585 q 452 421 498 465 q 345 349 407 377 q 218 311 283 321 l 293 -9 m 426 637 q 394 685 419 663 q 330 716 369 707 q 241 721 292 726 q 133 692 190 716 l 197 407 q 278 429 233 411 q 359 478 323 448 q 416 549 396 509 q 426 637 437 590 z "},"Q":{"ha":696,"x_min":38,"x_max":661,"o":"m 389 8 q 224 -1 302 -26 q 122 64 164 18 q 59 177 80 111 q 38 321 38 243 q 65 484 38 400 q 137 634 91 567 q 239 745 183 701 q 357 805 296 789 q 479 803 419 821 q 578 735 537 784 q 640 618 620 686 q 659 469 661 551 q 632 305 658 388 q 566 165 606 227 q 473 61 525 103 l 502 -19 q 493 -57 506 -43 q 462 -74 480 -71 q 427 -69 444 -77 q 407 -42 410 -61 l 389 8 m 161 445 q 141 329 142 385 q 153 226 140 273 q 192 146 165 179 q 256 102 218 114 q 304 95 279 94 q 354 106 330 96 l 323 194 q 326 233 315 218 q 355 254 336 248 q 391 254 373 259 q 415 236 410 250 l 437 167 q 490 238 467 198 q 529 328 514 278 q 551 449 548 388 q 543 561 555 510 q 506 648 532 612 q 442 696 480 684 q 361 693 403 708 q 282 643 320 678 q 212 556 244 608 q 161 445 180 505 z "},"R":{"ha":669,"x_min":38,"x_max":644,"o":"m 251 11 q 231 -14 245 -5 q 199 -24 216 -23 q 169 -20 183 -26 q 153 -1 155 -15 l 46 699 q 62 784 38 749 q 130 826 85 819 q 186 836 151 830 q 262 842 221 841 q 347 838 304 844 q 428 812 391 831 q 493 755 465 792 q 532 661 521 719 q 532 596 537 628 q 513 536 526 564 q 480 484 499 507 q 439 444 461 460 l 636 95 q 631 62 644 76 q 597 42 617 49 q 557 37 576 35 q 533 50 537 38 l 334 408 q 253 387 293 392 q 193 384 213 382 l 251 11 m 435 647 q 406 697 431 674 q 341 732 381 720 q 250 744 301 745 q 140 723 198 743 l 178 481 q 262 490 214 483 q 350 517 309 498 q 416 567 391 536 q 435 647 442 598 z "},"S":{"ha":605,"x_min":16,"x_max":582,"o":"m 576 610 q 568 576 582 590 q 536 559 555 563 q 500 562 518 555 q 481 587 483 568 q 464 654 479 628 q 429 694 449 680 q 390 715 410 709 q 361 724 370 722 q 298 728 327 732 q 246 712 269 724 q 209 682 224 700 q 189 643 194 663 q 189 570 178 600 q 225 517 199 540 q 288 473 251 494 q 366 430 326 453 q 443 378 406 406 q 505 317 480 351 q 540 237 530 282 q 533 133 549 191 q 479 32 517 71 q 393 -25 441 -7 q 290 -43 345 -43 q 187 -24 236 -42 q 73 49 121 -1 q 16 170 24 99 q 36 208 19 194 q 71 224 53 221 q 105 219 90 227 q 121 191 121 212 q 155 111 119 142 q 237 65 190 79 q 297 57 267 57 q 353 68 327 57 q 400 100 380 79 q 431 156 420 122 q 435 222 442 194 q 409 275 429 251 q 359 318 389 298 q 296 358 330 338 q 210 409 254 382 q 135 471 167 435 q 90 553 103 506 q 92 663 76 600 q 136 749 106 713 q 205 803 165 784 q 290 827 245 822 q 378 823 335 831 q 434 804 403 818 q 494 766 465 791 q 546 703 524 741 q 576 610 568 665 z "},"T":{"ha":681,"x_min":31,"x_max":636,"o":"m 589 850 q 625 837 613 852 q 635 804 636 822 q 624 769 635 785 q 594 753 613 753 l 388 705 l 543 19 q 535 -19 548 -5 q 504 -36 522 -33 q 468 -33 486 -39 q 446 -9 450 -26 l 283 682 l 88 637 q 50 645 64 632 q 34 676 37 658 q 38 712 31 694 q 60 734 45 730 l 589 850 z "},"U":{"ha":656,"x_min":16,"x_max":637,"o":"m 217 803 q 159 528 178 643 q 130 335 140 414 q 132 199 121 248 q 163 123 144 149 q 204 90 183 98 q 235 80 225 83 q 268 76 247 77 q 314 89 289 75 q 368 139 339 103 q 425 248 396 175 q 481 437 454 321 q 532 727 509 553 q 554 760 537 749 q 590 769 571 770 q 623 754 609 768 q 636 712 637 741 q 625 639 632 686 q 608 532 618 591 q 583 405 598 472 q 545 273 567 338 q 494 150 524 208 q 427 50 465 92 q 341 -12 389 8 q 233 -23 293 -33 q 99 37 145 -8 q 35 143 53 81 q 20 278 16 205 q 34 423 23 351 q 64 599 46 502 q 113 817 83 696 q 136 848 118 841 q 174 850 155 854 q 208 831 194 845 q 217 803 221 818 z "},"V":{"ha":690,"x_min":26,"x_max":659,"o":"m 525 19 q 503 -15 518 -5 q 470 -24 487 -24 q 438 -16 453 -24 q 415 5 423 -8 l 34 705 q 34 735 26 719 q 58 762 42 751 q 94 771 75 772 q 125 749 113 770 l 444 172 l 556 818 q 578 849 562 842 q 614 851 595 856 q 646 833 632 846 q 656 804 659 821 l 525 19 z "},"W":{"ha":1072,"x_min":43,"x_max":1044,"o":"m 514 525 l 300 5 q 268 -20 285 -15 q 235 -20 251 -26 q 206 -3 218 -15 q 190 24 194 9 l 47 802 q 56 831 43 818 q 87 850 69 845 q 123 848 106 854 q 146 818 141 842 l 266 175 l 495 742 q 517 761 503 755 q 545 764 530 766 q 571 753 559 762 q 589 730 583 745 l 667 125 l 945 715 q 976 738 958 736 q 1010 730 994 739 q 1036 704 1027 720 q 1036 674 1044 688 l 701 -41 q 679 -63 694 -54 q 646 -73 663 -72 q 614 -64 629 -73 q 591 -31 600 -54 l 514 525 z "},"X":{"ha":760,"x_min":20,"x_max":742,"o":"m 346 490 l 410 812 q 437 842 418 836 q 476 844 457 849 q 508 826 495 840 q 515 796 521 812 l 434 400 l 731 103 q 737 73 742 91 q 719 42 732 56 q 687 26 705 28 q 652 42 669 23 l 410 281 l 340 -52 q 319 -85 336 -77 q 284 -90 302 -94 q 252 -74 266 -87 q 240 -46 237 -61 l 321 366 l 34 650 q 24 678 20 659 q 40 712 27 697 q 73 732 53 727 q 113 723 94 738 l 346 490 z "},"Y":{"ha":579,"x_min":41,"x_max":560,"o":"m 164 343 q 163 348 164 346 q 163 354 163 350 l 43 806 q 54 833 41 822 q 84 848 66 845 q 119 844 102 852 q 144 812 137 837 l 244 450 l 464 745 q 498 765 479 765 q 532 754 517 765 q 553 726 547 743 q 552 696 560 709 l 273 328 l 199 -4 q 176 -35 194 -28 q 140 -37 159 -42 q 109 -19 122 -33 q 99 11 96 -5 l 164 343 z "},"Z":{"ha":723,"x_min":23,"x_max":701,"o":"m 231 -43 q 195 -39 209 -49 q 177 -12 182 -30 q 176 27 172 5 q 191 69 179 49 l 423 750 l 77 682 q 40 698 53 682 q 25 732 27 713 q 32 768 23 751 q 58 788 41 785 l 496 871 q 522 867 509 872 q 545 849 536 863 q 557 812 555 836 q 547 757 559 789 l 315 77 l 644 138 q 683 129 670 142 q 699 96 696 115 q 694 60 701 77 q 670 41 686 43 l 231 -43 z "},"[":{"ha":376,"x_min":24,"x_max":465,"o":"m 302 -156 q 275 -158 290 -159 q 248 -154 260 -157 q 224 -144 235 -151 q 213 -125 214 -137 l 31 825 q 40 880 24 859 q 106 911 56 902 l 232 936 q 269 926 256 940 q 284 894 282 913 q 279 858 286 875 q 256 838 271 841 l 142 812 l 301 -50 l 410 -33 q 448 -42 435 -28 q 463 -75 461 -56 q 458 -111 465 -94 q 435 -130 450 -127 l 302 -156 z "},"\\":{"ha":471,"x_min":9,"x_max":463,"o":"m 456 46 q 452 16 463 31 q 426 -9 442 0 q 391 -14 410 -18 q 362 12 372 -11 l 18 762 q 19 795 9 779 q 45 821 28 812 q 81 829 61 830 q 115 807 100 827 l 456 46 z "},"]":{"ha":442,"x_min":9,"x_max":419,"o":"m 42 -114 q 18 -95 26 -113 q 12 -59 9 -77 q 26 -26 14 -41 q 64 -16 38 -12 l 172 -28 l 302 838 l 189 860 q 164 879 172 861 q 158 915 156 897 q 172 947 160 933 q 209 958 184 962 l 335 939 q 403 909 387 930 q 414 854 419 888 l 263 -102 q 252 -120 262 -113 q 230 -132 243 -127 q 202 -136 217 -136 q 175 -134 187 -137 l 42 -114 z "},"_":{"ha":458,"x_min":33,"x_max":448,"o":"m 400 80 q 436 60 425 77 q 448 24 448 43 q 437 -9 448 5 q 406 -22 426 -24 l 80 -47 q 43 -34 54 -49 q 33 0 33 -19 q 41 35 33 19 q 66 53 50 52 l 400 80 z "},"a":{"ha":620,"x_min":38,"x_max":571,"o":"m 363 54 q 293 36 330 39 q 218 43 256 33 q 134 85 171 56 q 74 156 96 115 q 45 245 52 197 q 50 340 38 293 q 92 426 62 388 q 160 488 121 464 q 246 520 199 511 q 340 517 293 529 q 408 489 378 509 q 458 442 437 469 q 491 465 471 463 q 530 460 511 468 q 559 438 548 453 q 563 408 571 423 l 458 14 q 434 -17 452 -11 q 398 -17 416 -23 q 368 3 380 -11 q 359 31 355 16 l 363 54 m 146 315 q 142 258 138 286 q 160 207 146 231 q 194 166 174 183 q 241 142 214 149 q 296 140 269 136 q 347 159 323 145 q 387 195 370 174 q 411 244 404 217 q 415 299 419 271 q 397 351 411 327 q 363 392 384 374 q 315 418 342 410 q 261 420 288 425 q 212 401 235 415 q 171 364 189 387 q 146 315 153 342 z "},"b":{"ha":593,"x_min":22,"x_max":559,"o":"m 122 14 q 100 -7 118 -1 q 64 -9 83 -14 q 34 9 46 -5 q 28 47 22 23 l 236 788 q 268 819 248 814 q 304 818 288 825 q 332 793 321 811 q 339 754 343 776 q 332 729 339 754 q 314 667 324 704 q 292 586 304 629 q 269 505 279 543 q 252 443 259 468 q 245 416 245 418 q 313 430 277 429 q 384 420 349 431 q 467 376 431 407 q 526 305 503 346 q 553 216 548 264 q 545 121 559 168 q 502 36 532 73 q 432 -25 472 -1 q 345 -56 392 -49 q 250 -49 297 -62 q 183 -17 213 -38 q 130 34 153 4 l 122 14 m 450 148 q 454 203 458 175 q 438 254 450 231 q 405 296 426 278 q 357 320 384 313 q 302 324 330 328 q 252 307 275 320 q 212 271 229 293 q 186 222 194 250 q 182 168 178 195 q 198 116 186 140 q 231 74 210 92 q 279 47 252 56 q 334 44 307 39 q 384 62 361 49 q 425 98 407 76 q 450 148 442 119 z "},"c":{"ha":521,"x_min":30,"x_max":509,"o":"m 407 213 q 432 237 414 232 q 468 237 450 243 q 497 214 486 231 q 502 175 509 198 q 437 68 483 113 q 326 9 391 24 q 231 9 277 -1 q 146 45 184 19 q 79 111 107 72 q 41 198 52 151 q 39 294 30 247 q 72 381 47 342 q 134 449 96 420 q 220 488 171 477 q 359 478 301 503 q 445 410 418 453 q 449 378 456 395 q 427 351 442 362 q 395 336 412 339 q 369 345 378 334 q 309 387 342 380 q 241 385 277 393 q 193 363 214 380 q 157 324 171 347 q 137 273 142 301 q 138 217 132 245 q 160 167 144 190 q 199 129 176 144 q 248 108 221 114 q 302 109 275 102 q 365 140 342 118 q 407 213 388 161 z "},"d":{"ha":625,"x_min":30,"x_max":593,"o":"m 380 33 q 236 5 313 -5 q 147 39 187 12 q 80 103 107 65 q 41 188 53 141 q 37 283 30 235 q 70 374 45 332 q 132 444 95 415 q 214 485 168 472 q 308 490 259 498 q 375 468 343 484 q 433 427 407 452 q 437 454 433 429 q 448 519 442 480 q 461 602 454 557 q 473 684 468 646 q 483 748 479 723 q 487 774 487 773 q 508 808 491 796 q 543 819 525 819 q 577 806 562 819 q 593 764 593 792 l 479 3 q 458 -30 475 -22 q 422 -34 441 -38 q 390 -18 404 -30 q 378 11 376 -5 l 380 33 m 134 267 q 138 212 130 239 q 161 163 145 186 q 199 126 176 141 q 250 107 222 111 q 303 111 277 103 q 351 135 330 118 q 387 176 372 152 q 406 228 401 199 q 403 283 410 256 q 380 331 396 309 q 342 368 365 353 q 292 387 319 382 q 237 383 263 391 q 189 359 210 376 q 153 319 168 343 q 134 267 138 296 z "},"e":{"ha":541,"x_min":30,"x_max":533,"o":"m 429 237 q 448 269 431 258 q 484 280 465 279 q 518 270 503 281 q 530 235 533 259 q 498 127 525 174 q 431 51 471 81 q 343 7 392 20 q 246 2 294 -5 q 153 37 198 9 q 75 114 107 64 q 39 201 47 155 q 39 294 30 248 q 73 380 47 339 q 138 449 98 420 q 211 484 172 473 q 288 492 250 495 q 363 473 327 490 q 427 425 399 457 q 450 390 442 407 q 454 356 457 373 q 437 321 452 339 q 392 283 422 302 l 178 142 q 248 101 208 111 q 326 102 289 91 q 392 146 363 113 q 429 237 420 180 m 193 363 q 146 305 161 340 q 136 233 132 270 l 346 368 q 266 395 307 403 q 193 363 225 387 z "},"f":{"ha":543,"x_min":43,"x_max":521,"o":"m 271 372 q 294 161 282 264 q 317 -18 307 57 q 304 -36 320 -26 q 267 -50 288 -46 q 229 -47 247 -54 q 209 -16 210 -41 q 199 52 202 22 q 191 119 195 81 q 181 213 187 157 q 164 358 175 269 l 94 350 q 57 361 69 347 q 44 394 45 376 q 52 429 43 412 q 76 448 60 446 l 156 458 q 160 593 153 529 q 185 706 167 656 q 236 787 203 755 q 317 823 269 818 q 391 819 358 829 q 446 791 423 808 q 484 752 469 773 q 505 715 498 731 q 515 671 521 693 q 492 637 509 650 q 456 626 476 625 q 425 650 437 627 q 334 716 397 720 q 296 694 311 713 q 273 641 282 674 q 262 564 264 608 q 262 469 259 519 l 416 487 q 452 469 441 486 q 461 435 463 453 q 448 401 460 416 q 416 388 435 387 l 271 372 z "},"g":{"ha":586,"x_min":31,"x_max":562,"o":"m 376 486 q 387 513 373 500 q 420 531 401 526 q 455 528 438 536 q 476 495 472 521 l 533 146 q 518 -123 562 -27 q 334 -237 475 -220 q 233 -227 278 -244 q 130 -163 187 -210 q 115 -130 111 -148 q 132 -98 118 -113 q 165 -79 146 -84 q 198 -83 184 -73 q 266 -127 232 -118 q 330 -136 300 -137 q 395 -115 370 -133 q 433 -71 420 -98 q 446 -9 445 -43 q 438 64 446 26 q 380 26 415 41 q 312 7 346 12 q 218 11 263 -1 q 136 51 172 23 q 73 119 99 79 q 39 208 47 159 q 43 303 31 256 q 81 389 54 350 q 146 454 107 427 q 235 490 186 481 q 378 465 312 500 l 376 486 m 137 227 q 156 174 141 198 q 193 134 171 151 q 241 111 214 118 q 296 109 267 104 q 345 128 323 113 q 383 166 368 144 q 405 215 399 189 q 407 270 411 241 q 388 321 403 298 q 351 361 373 345 q 303 385 330 377 q 250 388 277 392 q 199 368 222 384 q 161 330 176 353 q 138 281 145 308 q 137 227 132 255 z "},"h":{"ha":519,"x_min":35,"x_max":484,"o":"m 370 -22 q 380 163 382 94 q 367 269 378 232 q 338 319 355 307 q 305 332 321 331 q 252 326 278 335 q 206 299 227 317 q 172 256 186 281 q 156 202 159 231 l 142 11 q 123 -24 140 -11 q 88 -37 107 -37 q 54 -26 69 -38 q 35 15 38 -14 l 98 764 q 116 798 99 789 q 151 804 133 807 q 184 790 170 802 q 198 762 199 779 l 170 399 q 237 428 201 418 q 312 435 273 438 q 419 393 382 430 q 470 296 456 357 q 482 153 484 235 q 472 -26 480 71 q 452 -59 469 -50 q 417 -65 435 -68 q 384 -50 399 -62 q 370 -22 369 -38 z "},"i":{"ha":263,"x_min":54,"x_max":228,"o":"m 92 446 q 119 476 99 469 q 158 478 138 483 q 191 460 178 473 q 199 431 205 448 l 157 46 q 138 12 155 20 q 102 7 121 4 q 68 23 83 11 q 56 52 54 35 l 92 446 m 104 586 q 125 627 107 612 q 170 639 144 643 q 212 618 195 636 q 225 574 228 600 q 202 532 221 547 q 157 519 183 517 q 117 541 132 522 q 104 586 102 560 z "},"j":{"ha":305,"x_min":15,"x_max":288,"o":"m 68 476 q 77 507 64 492 q 107 526 90 521 q 142 526 125 532 q 167 495 160 519 l 258 153 q 283 -2 279 68 q 269 -124 288 -72 q 208 -208 251 -176 q 95 -247 165 -239 q 53 -236 68 -250 q 35 -203 38 -222 q 43 -168 33 -184 q 81 -148 54 -151 q 174 -55 159 -137 q 144 194 190 27 l 68 476 m 22 613 q 27 660 15 639 q 64 686 39 681 q 109 681 88 693 q 137 644 130 669 q 132 598 144 618 q 95 571 119 578 q 49 576 69 564 q 22 613 28 589 z "},"k":{"ha":537,"x_min":27,"x_max":517,"o":"m 27 777 q 47 812 30 802 q 85 823 65 823 q 121 812 106 822 q 134 785 136 802 l 182 331 l 374 530 q 415 534 396 543 q 446 509 434 526 q 458 473 457 492 q 445 446 460 454 l 330 332 l 507 98 q 511 67 517 85 q 492 35 506 49 q 458 18 477 22 q 420 34 438 15 l 251 255 l 194 201 l 212 46 q 199 9 214 20 q 166 -3 184 -3 q 131 5 148 -4 q 113 28 114 14 l 27 777 z "},"l":{"ha":254,"x_min":33,"x_max":222,"o":"m 33 785 q 51 821 34 810 q 87 833 68 833 q 122 823 106 833 q 140 795 138 812 l 220 56 q 208 18 222 30 q 175 5 194 7 q 139 13 156 4 q 121 38 122 22 l 33 785 z "},"m":{"ha":901,"x_min":53,"x_max":861,"o":"m 449 58 q 416 241 434 174 q 380 343 399 309 q 341 385 361 377 q 305 391 321 393 q 255 372 278 387 q 216 336 232 358 q 194 286 201 313 q 191 231 187 259 l 218 41 q 208 3 221 19 q 178 -18 195 -12 q 142 -15 160 -23 q 115 20 123 -7 l 57 423 q 67 462 53 449 q 100 477 81 475 q 136 471 119 479 q 156 446 153 463 l 160 425 q 218 469 186 452 q 289 491 250 487 q 386 484 346 500 q 452 430 426 467 q 483 473 465 453 q 521 507 500 492 q 562 531 541 522 q 600 543 582 540 q 713 525 669 552 q 784 442 757 498 q 827 307 811 387 q 857 132 844 227 q 847 94 861 106 q 814 79 833 81 q 779 85 796 77 q 760 110 761 94 q 726 292 745 225 q 689 394 708 359 q 651 437 670 429 q 616 442 632 445 q 541 397 568 435 q 503 313 513 358 q 529 205 518 263 q 549 80 540 146 q 539 43 553 56 q 505 29 525 31 q 469 35 486 27 q 449 58 452 43 z "},"n":{"ha":525,"x_min":37,"x_max":495,"o":"m 370 28 q 388 214 388 144 q 378 321 388 283 q 353 372 369 359 q 320 388 336 385 q 266 383 292 392 q 218 357 240 374 q 183 317 197 340 q 165 264 170 293 l 142 72 q 121 39 138 52 q 86 27 104 27 q 53 40 68 27 q 37 81 38 53 l 90 487 q 109 519 92 511 q 144 524 126 528 q 177 509 163 521 q 190 480 191 496 l 189 460 q 256 487 220 479 q 331 490 293 495 q 437 442 401 480 q 484 343 472 404 q 488 201 495 282 q 469 23 481 119 q 450 -11 467 -3 q 414 -15 433 -19 q 382 1 396 -11 q 370 28 368 14 z "},"o":{"ha":548,"x_min":30,"x_max":515,"o":"m 71 118 q 37 208 45 160 q 39 300 30 255 q 75 385 49 346 q 144 450 102 425 q 233 483 186 476 q 324 478 279 490 q 408 439 369 467 q 473 369 448 411 q 507 279 499 327 q 506 186 515 232 q 470 100 496 140 q 401 35 444 61 q 313 3 359 9 q 220 9 266 -3 q 136 48 175 20 q 71 118 96 76 m 156 170 q 193 129 171 145 q 242 106 216 113 q 296 102 269 99 q 347 121 323 106 q 385 159 370 136 q 406 208 400 182 q 408 262 412 235 q 388 313 403 289 q 351 354 373 338 q 302 376 328 370 q 248 379 275 382 q 198 361 221 376 q 159 323 174 346 q 138 275 144 301 q 136 221 132 248 q 156 170 141 194 z "},"p":{"ha":608,"x_min":-9,"x_max":568,"o":"m 239 475 q 384 490 308 509 q 469 448 431 477 q 530 378 506 419 q 561 290 553 338 q 557 195 568 243 q 517 109 545 148 q 450 45 488 71 q 364 10 411 19 q 270 12 317 1 q 204 41 235 22 q 151 87 174 60 q 146 69 151 85 q 136 29 142 53 q 123 -22 130 5 q 111 -73 117 -50 q 100 -113 104 -96 q 96 -129 96 -129 q 72 -161 90 -151 q 36 -169 54 -171 q 4 -152 18 -167 q -7 -109 -9 -137 l 142 513 q 165 545 148 538 q 201 545 183 551 q 233 526 220 540 q 243 496 245 511 l 239 475 m 461 220 q 463 275 468 247 q 445 326 458 302 q 410 367 431 350 q 361 391 388 384 q 307 391 334 396 q 258 370 281 385 q 218 333 235 355 q 194 283 201 311 q 193 229 187 256 q 212 178 198 201 q 247 138 225 155 q 296 114 269 121 q 350 113 323 107 q 399 133 377 118 q 438 170 422 148 q 461 220 454 193 z "},"q":{"ha":604,"x_min":37,"x_max":751,"o":"m 494 465 q 506 353 499 415 q 520 227 513 290 q 536 102 528 163 q 556 -5 545 42 q 581 -79 567 -52 q 612 -106 594 -107 q 639 -85 635 -104 q 640 -41 643 -65 q 650 0 637 -15 q 682 16 663 15 q 717 6 700 18 q 738 -31 734 -5 q 725 -152 751 -104 q 624 -210 699 -199 q 545 -188 575 -217 q 494 -115 514 -159 q 465 -26 475 -72 q 450 47 456 20 q 382 2 419 15 q 309 -15 345 -11 q 215 -7 260 -22 q 134 36 170 7 q 73 106 98 65 q 42 197 49 148 q 50 292 37 245 q 90 377 62 339 q 159 440 118 415 q 248 472 199 465 q 323 468 288 476 q 392 441 359 460 l 389 463 q 404 491 388 479 q 441 506 420 503 q 478 500 461 509 q 494 465 495 491 m 142 212 q 159 159 145 183 q 194 117 174 134 q 241 92 214 100 q 294 88 267 84 q 346 106 323 92 q 385 142 369 121 q 410 190 401 163 q 414 245 418 217 q 395 298 410 274 q 360 340 381 323 q 313 365 339 357 q 259 369 286 373 q 209 351 232 365 q 170 315 186 336 q 146 267 153 294 q 142 212 138 240 z "},"r":{"ha":552,"x_min":54,"x_max":503,"o":"m 411 312 q 367 348 392 332 q 313 366 342 363 q 261 357 286 368 q 216 328 236 347 q 184 284 197 309 q 171 231 172 259 l 161 38 q 143 3 159 16 q 109 -11 127 -9 q 75 0 91 -12 q 54 41 58 12 l 77 448 q 95 482 79 473 q 130 489 111 491 q 164 476 149 487 q 178 449 179 465 l 179 427 q 245 459 210 448 q 319 468 279 471 q 422 439 376 465 q 495 366 468 414 q 498 336 503 353 q 480 307 494 319 q 448 294 467 294 q 411 312 430 293 z "},"s":{"ha":515,"x_min":28,"x_max":487,"o":"m 393 445 q 404 412 408 430 q 385 383 399 395 q 352 370 370 372 q 323 384 334 368 q 269 410 300 404 q 220 412 239 415 q 186 402 202 410 q 159 384 171 395 q 140 360 146 373 q 133 336 133 347 q 145 304 134 315 q 174 290 156 293 q 214 288 191 286 q 260 292 236 289 q 331 294 296 294 q 396 283 366 294 q 448 249 426 273 q 479 182 471 225 q 474 115 487 145 q 436 60 461 84 q 376 21 411 37 q 307 -1 342 5 q 177 10 241 -12 q 75 94 113 33 q 73 135 65 115 q 96 165 81 155 q 128 176 111 176 q 155 157 145 175 q 184 117 167 132 q 220 96 201 102 q 258 90 239 90 q 297 95 278 91 q 359 121 334 102 q 381 159 384 141 q 347 201 376 195 q 275 205 317 208 q 208 199 243 202 q 139 204 172 197 q 79 233 106 212 q 39 301 53 255 q 37 370 28 338 q 67 429 46 403 q 121 473 88 454 q 190 498 153 491 q 296 497 241 509 q 393 445 350 486 z "},"t":{"ha":468,"x_min":24,"x_max":442,"o":"m 170 491 l 126 701 q 142 738 126 726 q 179 751 159 750 q 216 745 199 753 q 232 719 232 736 l 271 510 l 389 534 q 428 519 415 534 q 441 485 441 503 q 430 450 442 467 q 392 433 418 434 l 293 412 l 365 43 q 357 6 370 19 q 323 -9 343 -7 q 286 -5 304 -12 q 264 19 269 3 l 191 392 l 80 372 q 41 380 54 368 q 26 412 28 393 q 32 448 24 430 q 54 468 39 465 l 170 491 z "},"u":{"ha":595,"x_min":41,"x_max":547,"o":"m 148 422 q 178 229 160 297 q 216 130 195 161 q 256 94 236 98 q 292 92 275 90 q 342 113 320 96 q 380 151 365 129 q 401 201 395 174 q 403 256 407 228 l 369 445 q 378 483 366 467 q 408 505 391 499 q 444 502 426 510 q 472 468 463 494 l 541 65 q 533 28 547 41 q 500 13 519 15 q 465 18 481 11 q 445 42 448 26 l 439 62 q 383 17 415 35 q 312 -8 351 -1 q 197 3 243 -20 q 121 79 151 26 q 73 214 91 133 q 43 396 56 294 q 56 433 41 420 q 90 449 71 446 q 127 444 110 452 q 148 422 145 437 z "},"v":{"ha":481,"x_min":27,"x_max":458,"o":"m 237 46 q 205 21 222 26 q 172 22 187 16 q 144 40 156 27 q 129 68 132 53 l 30 481 q 41 510 27 496 q 73 528 54 524 q 109 526 91 533 q 130 495 126 519 l 205 193 l 359 458 q 390 481 372 480 q 425 473 408 483 q 450 446 441 463 q 450 415 458 429 l 237 46 z "},"w":{"ha":750,"x_min":26,"x_max":728,"o":"m 636 52 q 612 19 628 28 q 580 10 597 9 q 548 20 563 11 q 526 42 533 28 l 397 285 l 340 19 q 317 -15 332 -5 q 284 -24 301 -24 q 252 -14 267 -23 q 229 8 236 -5 l 33 380 q 35 410 26 393 q 60 435 43 426 q 94 443 76 445 q 123 419 113 441 l 266 161 l 327 434 q 345 464 332 452 q 374 479 358 476 q 406 476 391 483 q 433 449 422 469 l 563 195 l 625 481 q 648 512 631 506 q 684 513 666 518 q 715 493 703 507 q 724 464 728 479 l 636 52 z "},"x":{"ha":528,"x_min":35,"x_max":503,"o":"m 332 239 l 423 46 q 422 8 433 23 q 395 -13 412 -7 q 359 -16 377 -19 q 335 3 340 -12 l 254 165 l 121 42 q 92 33 110 30 q 59 48 73 37 q 40 77 45 60 q 53 114 35 95 l 206 262 l 111 456 q 121 494 107 480 q 156 510 136 507 q 195 505 176 513 q 217 481 213 498 l 285 338 l 400 446 q 429 462 410 461 q 467 453 449 463 q 494 426 486 444 q 490 387 503 408 l 332 239 z "},"y":{"ha":567,"x_min":26,"x_max":532,"o":"m 216 0 l 28 434 q 39 473 26 458 q 71 492 53 488 q 108 490 90 496 q 132 467 126 484 l 281 133 l 427 437 q 463 458 442 457 q 499 448 483 458 q 524 420 515 438 q 522 387 532 403 l 218 -221 q 189 -245 208 -244 q 155 -237 171 -247 q 130 -212 138 -228 q 127 -182 121 -195 l 216 0 z "},"z":{"ha":532,"x_min":35,"x_max":513,"o":"m 91 23 q 56 34 69 24 q 39 58 42 43 q 41 89 35 72 q 64 122 47 106 l 345 400 l 95 414 q 62 439 71 420 q 56 475 53 457 q 72 508 60 494 q 102 521 84 522 l 464 498 q 488 486 476 498 q 507 456 500 473 q 509 416 513 438 q 484 376 505 395 l 206 119 l 446 103 q 480 85 471 102 q 488 50 490 69 q 475 16 486 31 q 448 3 464 1 l 91 23 z "},"|":{"ha":198,"x_min":43,"x_max":153,"o":"m 43 784 q 65 818 47 808 q 102 826 83 827 q 136 812 121 825 q 151 783 151 800 l 153 38 q 138 2 153 12 q 103 -7 122 -8 q 68 5 84 -5 q 53 31 53 15 l 43 784 z "},"⁄":{"ha":471,"x_min":7,"x_max":460,"o":"m 354 815 q 388 837 368 836 q 425 829 408 838 q 450 804 441 821 q 452 770 460 787 l 107 20 q 78 -6 96 -3 q 43 -1 60 -9 q 17 24 27 8 q 14 54 7 39 l 354 815 z "},")":{"ha":468,"x_min":-37,"x_max":397,"o":"m 22 39 q 104 60 61 34 q 185 137 148 87 q 250 258 222 187 q 288 414 278 330 q 293 542 294 476 q 275 669 292 608 q 220 781 258 730 q 118 863 183 831 q 87 895 94 875 q 87 935 81 916 q 108 964 94 954 q 141 968 122 975 q 273 876 220 935 q 354 742 326 817 q 390 581 382 667 q 388 408 397 495 q 343 211 376 298 q 261 62 311 123 q 147 -34 212 0 q 5 -69 83 -68 q -26 -52 -15 -69 q -35 -13 -37 -34 q -20 24 -34 8 q 22 39 -7 41 z "},"(":{"ha":448,"x_min":41,"x_max":488,"o":"m 429 9 q 471 -5 457 12 q 487 -43 486 -22 q 478 -81 488 -64 q 448 -99 468 -99 q 306 -67 372 -99 q 189 25 240 -35 q 103 172 138 85 q 53 368 68 259 q 45 540 41 454 q 77 701 50 625 q 155 838 104 777 q 283 935 205 898 q 317 932 301 943 q 338 903 332 921 q 339 863 345 884 q 311 830 334 842 q 211 745 247 798 q 159 631 175 693 q 144 503 144 570 q 153 376 145 437 q 194 222 164 292 q 262 102 224 152 q 345 28 301 53 q 429 9 389 3 z "},"^":{"ha":319,"x_min":27,"x_max":278,"o":"m 98 469 q 125 492 110 486 q 157 498 141 499 q 186 490 172 498 q 209 469 199 481 l 273 376 q 271 347 278 362 q 252 323 264 332 q 224 315 240 315 q 194 332 208 316 l 152 391 l 113 334 q 86 317 102 317 q 57 323 71 316 q 35 345 43 331 q 33 372 27 358 l 98 469 z "},"ˆ":{"ha":308,"x_min":27,"x_max":278,"o":"m 98 646 q 125 669 110 662 q 157 675 141 675 q 186 666 172 674 q 209 646 199 658 l 273 552 q 271 524 278 538 q 252 500 264 509 q 224 492 240 491 q 194 509 208 492 l 152 567 l 113 510 q 86 493 102 494 q 57 500 71 492 q 35 521 43 507 q 33 548 27 534 l 98 646 z "},"{":{"ha":461,"x_min":30,"x_max":446,"o":"m 263 491 q 258 476 262 484 q 243 458 254 468 q 214 433 233 448 q 163 396 194 418 q 216 381 195 387 q 248 372 236 376 q 267 363 260 368 q 275 350 273 358 q 288 185 279 252 q 309 77 296 118 q 343 20 323 37 q 392 7 363 4 q 433 -11 420 7 q 445 -49 446 -28 q 431 -86 444 -69 q 399 -102 419 -103 q 287 -64 330 -99 q 222 26 244 -28 q 193 149 199 81 q 186 283 186 217 l 73 330 q 39 354 49 338 q 31 389 30 370 q 41 422 31 407 q 64 446 50 438 l 167 524 q 159 665 161 595 q 170 794 156 735 q 218 898 183 853 q 326 964 254 943 q 358 958 345 970 q 376 926 372 945 q 372 887 380 907 q 340 857 365 867 q 269 796 288 837 q 250 705 251 755 q 256 597 248 654 q 263 491 263 541 z "},"}":{"ha":479,"x_min":12,"x_max":444,"o":"m 216 487 q 227 593 217 537 q 238 701 237 650 q 222 793 239 751 q 153 857 205 834 q 122 888 129 868 q 121 927 115 909 q 140 957 126 945 q 172 963 153 968 q 277 892 243 939 q 322 786 311 846 q 328 656 334 726 q 313 515 321 586 l 414 434 q 435 410 427 426 q 444 376 444 393 q 433 342 444 358 q 399 319 423 326 l 285 277 q 273 143 282 210 q 238 22 263 76 q 170 -66 213 -33 q 56 -100 126 -100 q 24 -83 35 -100 q 12 -44 12 -65 q 26 -6 12 -23 q 68 9 39 11 q 117 21 96 5 q 153 76 138 37 q 179 182 168 115 q 198 347 190 250 q 207 359 201 355 q 225 368 213 363 q 258 376 237 372 q 312 389 279 381 q 262 427 281 411 q 234 453 244 442 q 220 472 224 464 q 216 487 216 480 z "},";":{"ha":323,"x_min":37,"x_max":241,"o":"m 118 454 q 142 494 122 479 q 186 505 161 509 q 227 480 212 500 q 237 435 241 460 q 213 395 233 410 q 167 385 193 381 q 128 409 142 389 q 118 454 114 429 m 95 126 q 90 157 83 141 q 111 182 96 174 q 145 191 126 191 q 178 170 164 190 q 199 115 191 148 q 201 47 206 83 q 179 -24 197 11 q 127 -88 161 -60 q 89 -102 109 -103 q 56 -89 69 -100 q 40 -62 43 -77 q 52 -33 37 -46 q 90 5 77 -18 q 107 50 103 27 q 107 94 111 73 q 95 126 103 114 z "},",":{"ha":248,"x_min":27,"x_max":190,"o":"m 77 122 q 71 152 65 136 q 92 178 77 168 q 126 188 107 189 q 159 168 145 187 q 182 116 174 148 q 186 47 190 84 q 168 -26 183 11 q 118 -92 152 -62 q 81 -107 100 -109 q 47 -96 61 -106 q 31 -69 34 -85 q 41 -39 27 -53 q 78 0 65 -23 q 94 46 91 23 q 92 90 96 69 q 77 122 87 110 z "},"'":{"ha":267,"x_min":54,"x_max":202,"o":"m 84 578 q 75 607 71 590 q 92 635 79 624 q 124 649 106 647 q 159 633 142 651 q 188 583 176 614 q 201 516 199 552 q 191 441 202 480 q 149 370 179 403 q 113 351 133 353 q 79 359 94 350 q 60 383 65 368 q 66 414 54 399 q 98 457 88 433 q 109 505 109 481 q 102 547 109 528 q 84 578 95 567 z "},"\"":{"ha":461,"x_min":54,"x_max":391,"o":"m 84 639 q 75 668 71 651 q 92 696 79 685 q 124 710 106 708 q 159 694 142 712 q 188 644 176 675 q 201 577 199 613 q 191 503 202 541 q 149 431 179 464 q 113 412 133 414 q 79 420 94 411 q 60 444 65 429 q 66 475 54 460 q 98 518 88 494 q 109 566 109 543 q 102 608 109 589 q 84 639 95 628 m 273 644 q 263 673 259 656 q 281 702 267 690 q 313 715 294 713 q 347 700 331 718 q 376 650 365 681 q 389 583 388 618 q 379 508 391 547 q 338 437 368 469 q 302 418 321 419 q 268 425 282 416 q 248 450 254 434 q 255 480 243 465 q 287 524 277 499 q 297 571 297 548 q 290 614 297 594 q 273 644 283 633 z "},"‹":{"ha":507,"x_min":47,"x_max":423,"o":"m 83 271 q 54 300 61 283 q 52 334 47 317 q 66 363 56 350 q 92 382 77 377 l 355 530 q 385 526 370 536 q 405 498 399 515 q 406 463 411 481 q 380 433 401 445 l 189 330 l 393 225 q 420 199 416 217 q 415 163 423 180 q 391 136 407 146 q 361 132 374 125 l 83 271 z "},"«":{"ha":739,"x_min":47,"x_max":701,"o":"m 83 271 q 54 300 61 283 q 52 334 47 317 q 66 363 56 350 q 92 382 77 377 l 355 530 q 385 526 370 536 q 405 498 399 515 q 406 463 411 481 q 380 433 401 445 l 189 330 l 393 225 q 420 199 416 217 q 415 163 423 180 q 391 136 407 146 q 361 132 374 125 l 83 271 m 361 281 q 332 310 339 293 q 330 343 326 327 q 345 373 334 359 q 370 392 355 387 l 633 540 q 663 535 648 545 q 683 508 677 525 q 684 473 689 491 q 658 442 680 454 l 467 339 l 671 235 q 698 208 694 227 q 693 173 701 190 q 669 145 685 156 q 639 141 652 134 l 361 281 z "},"›":{"ha":472,"x_min":58,"x_max":434,"o":"m 121 133 q 90 137 106 126 q 66 165 75 148 q 62 200 58 182 q 88 227 65 218 l 293 331 l 102 434 q 75 465 80 446 q 77 500 71 483 q 97 527 83 517 q 126 532 111 537 l 389 384 q 414 365 403 378 q 430 335 426 351 q 427 302 434 319 q 399 273 420 285 l 121 133 z "},"»":{"ha":772,"x_min":58,"x_max":741,"o":"m 121 133 q 90 137 106 126 q 66 165 75 148 q 62 200 58 182 q 88 227 65 218 l 293 331 l 102 434 q 75 465 80 446 q 77 500 71 483 q 97 527 83 517 q 126 532 111 537 l 389 384 q 414 365 403 378 q 430 335 426 351 q 427 302 434 319 q 399 273 420 285 l 121 133 m 427 132 q 397 136 412 125 q 373 163 381 146 q 368 199 365 180 q 395 225 372 217 l 600 330 l 408 433 q 382 463 387 445 q 383 498 377 481 q 404 526 389 515 q 433 530 418 536 l 696 382 q 721 363 709 377 q 736 334 732 350 q 734 300 741 317 q 705 271 727 283 l 427 132 z "},"@":{"ha":1016,"x_min":33,"x_max":963,"o":"m 438 781 q 303 719 362 761 q 207 618 244 677 q 156 489 170 560 q 157 339 142 418 q 205 214 170 271 q 303 120 241 156 q 453 77 365 84 q 658 104 541 69 q 696 101 682 113 q 714 71 711 90 q 710 35 718 53 q 684 11 703 16 q 441 -24 548 -33 q 254 31 334 -15 q 125 149 175 76 q 56 308 76 222 q 48 500 33 406 q 113 675 64 595 q 240 812 161 754 q 423 894 319 869 q 613 907 528 918 q 764 859 699 895 q 874 766 830 822 q 941 644 918 709 q 962 507 963 578 q 935 372 960 437 q 858 254 909 307 q 730 168 807 201 q 700 168 712 160 q 680 191 688 175 q 665 227 671 206 q 655 269 659 248 q 600 220 631 240 q 530 193 568 201 q 435 192 481 182 q 351 228 389 202 q 284 293 312 254 q 245 381 256 332 q 243 477 235 430 q 276 563 252 524 q 338 631 300 602 q 425 670 376 659 q 496 674 460 678 q 564 656 532 670 q 581 693 564 681 q 618 707 598 705 q 654 700 637 708 q 671 674 671 692 l 754 293 q 831 361 804 311 q 861 476 859 412 q 839 606 863 540 q 764 722 815 673 q 631 790 712 770 q 438 781 549 810 m 342 400 q 365 350 349 373 q 404 312 381 327 q 453 291 426 297 q 507 292 480 285 q 556 313 534 297 q 592 353 578 330 q 611 404 606 377 q 610 460 616 431 q 588 511 604 488 q 550 548 572 533 q 500 568 528 563 q 446 568 473 574 q 397 545 419 562 q 360 506 374 529 q 340 456 346 483 q 342 400 335 429 z "},"*":{"ha":613,"x_min":83,"x_max":541,"o":"m 407 456 l 522 392 q 541 355 541 376 q 530 319 541 335 q 503 298 519 304 q 471 305 486 293 l 368 361 l 370 239 q 348 204 366 214 q 311 195 330 194 q 279 208 293 197 q 269 239 264 220 l 267 343 l 172 269 q 132 264 151 256 q 102 287 113 271 q 92 320 92 302 q 109 347 92 338 l 225 439 l 106 506 q 83 538 84 519 q 94 572 83 556 q 121 596 104 587 q 152 597 138 605 l 264 534 l 263 661 q 279 696 263 686 q 313 705 294 707 q 349 694 332 704 q 365 667 365 684 l 366 552 l 438 610 q 476 621 458 627 q 505 600 494 614 q 518 566 517 585 q 507 536 519 547 l 407 456 z "},"¡":{"ha":245,"x_min":31,"x_max":212,"o":"m 49 623 q 69 659 52 647 q 106 670 87 670 q 142 660 126 670 q 155 632 157 650 l 209 0 q 197 -37 212 -26 q 163 -49 182 -49 q 128 -41 145 -50 q 110 -16 111 -33 l 49 623 m 34 762 q 46 806 31 788 q 87 827 61 825 q 132 814 113 830 q 153 773 151 799 q 140 729 156 747 q 99 708 123 711 q 55 721 73 705 q 34 762 37 736 z "},"¿":{"ha":570,"x_min":35,"x_max":551,"o":"m 404 488 q 394 451 403 464 q 373 433 385 438 q 348 427 361 427 q 323 427 335 426 q 263 421 290 430 q 214 395 236 412 q 178 354 193 378 q 156 302 163 330 q 149 233 147 269 q 165 166 152 197 q 205 111 179 134 q 267 80 231 88 q 382 99 332 68 q 444 205 433 130 q 465 234 448 228 q 503 235 483 240 q 536 216 522 231 q 548 183 551 202 q 508 77 537 121 q 438 10 479 34 q 346 -21 397 -15 q 239 -18 294 -27 q 135 29 178 -5 q 69 109 92 62 q 40 210 45 156 q 48 317 35 265 q 79 399 57 361 q 133 468 100 438 q 209 515 165 498 q 307 532 252 532 l 315 608 q 334 641 317 632 q 368 647 350 650 q 401 633 387 644 q 415 605 416 621 l 404 488 m 328 791 q 349 833 331 817 q 393 846 368 849 q 435 825 419 844 q 449 780 452 806 q 427 739 446 754 q 382 726 408 723 q 341 747 357 728 q 328 791 326 765 z "},"~":{"ha":502,"x_min":31,"x_max":477,"o":"m 385 479 q 406 503 391 496 q 438 507 422 510 q 466 490 454 503 q 476 453 477 476 q 436 360 471 396 q 358 321 401 324 q 299 335 323 319 q 255 370 275 351 q 214 404 235 389 q 168 415 194 419 q 140 395 148 412 q 122 347 132 377 q 97 320 114 324 q 64 324 80 316 q 40 351 49 332 q 39 391 31 369 q 87 472 58 438 q 163 505 115 506 q 227 490 202 505 q 271 458 252 475 q 307 427 289 441 q 349 412 324 412 q 377 431 370 412 q 385 479 384 450 z "},"˜":{"ha":506,"x_min":22,"x_max":468,"o":"m 376 677 q 397 701 381 694 q 429 705 412 708 q 456 688 445 701 q 467 651 468 674 q 427 558 461 594 q 349 519 392 522 q 290 533 313 517 q 245 568 266 549 q 205 602 225 587 q 159 613 184 617 q 130 593 138 610 q 113 545 122 575 q 87 518 104 522 q 55 522 71 514 q 31 549 39 530 q 30 589 22 567 q 77 670 49 636 q 153 703 106 704 q 218 688 193 703 q 261 656 243 673 q 297 625 279 639 q 339 610 315 610 q 368 629 361 610 q 376 677 374 648 z "},"€":{"ha":701,"x_min":20,"x_max":674,"o":"m 91 515 q 120 635 99 579 q 173 734 141 692 q 246 804 205 777 q 336 836 288 830 q 493 807 422 845 q 614 671 564 769 q 618 637 627 655 q 592 609 610 620 q 552 599 574 598 q 517 623 530 600 q 441 709 483 688 q 347 724 399 731 q 253 663 292 718 q 197 529 214 609 l 385 555 q 422 536 410 552 q 435 500 434 519 q 427 467 437 481 q 396 453 416 452 l 189 426 q 190 403 190 415 q 191 378 190 391 l 194 353 l 406 380 q 442 362 430 378 q 455 327 454 346 q 446 293 456 308 q 416 279 435 278 l 224 254 q 311 139 258 180 q 423 104 363 98 q 515 157 476 111 q 570 270 553 202 q 595 300 576 294 q 633 298 614 307 q 663 271 651 290 q 665 225 674 251 q 576 67 636 130 q 434 -5 515 4 q 338 5 385 -11 q 251 53 292 20 q 177 134 210 85 q 122 243 144 183 l 92 239 q 54 250 66 236 q 41 283 42 264 q 49 319 41 302 q 73 338 57 335 l 95 340 l 91 376 q 89 395 90 387 q 88 415 88 404 l 72 412 q 35 424 46 410 q 22 457 23 438 q 29 492 20 476 q 53 511 38 509 l 91 515 z "},"£":{"ha":618,"x_min":30,"x_max":604,"o":"m 260 420 q 285 250 271 335 q 311 96 298 165 l 560 140 q 594 121 585 138 q 602 85 604 104 q 588 49 600 65 q 559 34 576 33 l 300 -11 q 241 -5 267 -16 q 208 45 214 5 l 209 45 q 198 106 202 79 q 189 172 194 134 q 175 264 183 210 q 153 403 167 317 l 84 392 q 46 402 58 388 q 32 435 34 416 q 38 471 30 454 q 62 491 46 488 l 141 502 q 141 637 137 572 q 161 751 145 701 q 209 834 178 802 q 290 875 240 867 q 363 871 331 880 q 418 846 395 863 q 458 810 442 830 q 481 773 473 789 q 492 728 498 750 q 471 694 487 707 q 436 682 456 682 q 403 705 416 682 q 366 754 388 738 q 308 766 343 770 q 273 743 286 764 q 252 690 259 723 q 243 612 244 656 q 247 518 243 568 l 400 541 q 436 526 425 541 q 447 492 448 510 q 435 458 446 473 q 404 444 425 444 l 260 420 z "},"¢":{"ha":564,"x_min":37,"x_max":505,"o":"m 191 87 q 121 130 152 102 q 71 195 91 159 q 44 273 52 231 q 45 358 37 315 q 73 435 53 399 q 123 498 94 471 q 191 541 153 525 q 269 560 228 557 l 273 583 q 300 613 281 606 q 338 614 319 620 q 370 595 357 609 q 378 563 382 581 l 373 538 q 461 476 430 515 q 500 395 492 437 q 492 365 505 377 q 460 348 479 353 q 425 347 442 343 q 404 366 408 351 q 354 434 391 412 l 308 174 q 389 231 343 182 q 421 243 403 245 q 454 227 439 240 q 472 195 468 214 q 461 157 476 176 q 385 96 430 118 q 290 71 340 73 l 288 50 q 266 18 283 26 q 230 16 248 11 q 198 33 212 20 q 187 61 184 46 l 191 87 m 142 338 q 153 254 134 294 q 208 190 172 213 l 251 450 q 181 412 212 442 q 142 338 151 381 z "},"”":{"ha":461,"x_min":54,"x_max":391,"o":"m 84 639 q 75 668 71 651 q 92 696 79 685 q 124 710 106 708 q 159 694 142 712 q 188 644 176 675 q 201 577 199 613 q 191 503 202 541 q 149 431 179 464 q 113 412 133 414 q 79 420 94 411 q 60 444 65 429 q 66 475 54 460 q 98 518 88 494 q 109 566 109 543 q 102 608 109 589 q 84 639 95 628 m 273 644 q 263 673 259 656 q 281 702 267 690 q 313 715 294 713 q 347 700 331 718 q 376 650 365 681 q 389 583 388 618 q 379 508 391 547 q 338 437 368 469 q 302 418 321 419 q 268 425 282 416 q 248 450 254 434 q 255 480 243 465 q 287 524 277 499 q 297 571 297 548 q 290 614 297 594 q 273 644 283 633 z "},"“":{"ha":461,"x_min":57,"x_max":393,"o":"m 363 488 q 373 459 377 476 q 355 431 369 442 q 323 417 342 419 q 289 433 305 415 q 260 483 271 452 q 247 550 248 514 q 257 625 245 586 q 298 696 269 663 q 334 715 315 713 q 368 707 354 716 q 388 683 382 699 q 381 652 393 667 q 349 609 358 633 q 339 562 339 585 q 346 519 339 538 q 363 488 353 499 m 175 483 q 184 454 189 471 q 167 425 180 437 q 135 412 153 414 q 100 427 117 410 q 71 477 83 446 q 58 545 60 509 q 68 619 57 581 q 110 690 80 658 q 146 709 126 708 q 180 702 165 711 q 199 677 194 693 q 193 647 205 662 q 160 604 170 628 q 151 556 151 579 q 157 513 151 533 q 175 483 164 494 z "},"„":{"ha":461,"x_min":68,"x_max":404,"o":"m 98 172 q 88 201 84 184 q 106 230 92 218 q 138 243 119 241 q 172 228 156 245 q 201 178 190 209 q 214 111 213 146 q 204 36 216 75 q 163 -35 193 -3 q 127 -54 146 -53 q 93 -47 107 -56 q 73 -22 79 -38 q 80 8 68 -7 q 112 52 102 27 q 122 99 122 76 q 115 142 122 122 q 98 172 109 161 m 286 178 q 277 207 273 190 q 294 235 281 224 q 326 249 308 247 q 361 233 345 251 q 390 183 378 214 q 403 116 401 152 q 393 41 404 80 q 351 -30 381 3 q 315 -49 335 -47 q 281 -41 296 -50 q 262 -17 267 -33 q 269 14 256 -1 q 300 57 290 33 q 311 104 311 81 q 304 147 311 127 q 286 178 297 167 z "},"’":{"ha":267,"x_min":54,"x_max":202,"o":"m 84 578 q 75 607 71 590 q 92 635 79 624 q 124 649 106 647 q 159 633 142 651 q 188 583 176 614 q 201 516 199 552 q 191 441 202 480 q 149 370 179 403 q 113 351 133 353 q 79 359 94 350 q 60 383 65 368 q 66 414 54 399 q 98 457 88 433 q 109 505 109 481 q 102 547 109 528 q 84 578 95 567 z "},"‘":{"ha":267,"x_min":57,"x_max":205,"o":"m 175 422 q 184 393 189 410 q 167 364 180 376 q 135 351 153 353 q 100 366 117 349 q 71 416 83 385 q 58 484 60 448 q 68 558 57 519 q 110 629 80 597 q 146 648 126 647 q 180 641 165 650 q 199 616 194 632 q 193 586 205 601 q 160 543 170 567 q 151 495 151 518 q 157 452 151 472 q 175 422 164 433 z "},"‚":{"ha":267,"x_min":35,"x_max":183,"o":"m 65 163 q 56 192 52 175 q 73 220 60 209 q 105 234 87 232 q 140 218 123 236 q 169 168 157 199 q 182 101 180 137 q 172 26 183 65 q 130 -45 160 -12 q 94 -64 114 -62 q 60 -56 75 -65 q 41 -32 46 -47 q 47 -1 35 -16 q 79 42 69 18 q 90 90 90 66 q 83 132 90 113 q 65 163 76 152 z "},"…":{"ha":513,"x_min":26,"x_max":488,"o":"m 26 56 q 43 99 26 81 q 85 117 60 117 q 129 99 111 117 q 146 56 146 81 q 129 13 146 30 q 85 -4 111 -4 q 43 13 60 -4 q 26 56 26 30 m 197 79 q 214 122 197 104 q 256 140 231 140 q 300 122 282 140 q 317 79 317 104 q 300 36 317 53 q 256 19 282 19 q 214 36 231 19 q 197 79 197 53 m 368 56 q 385 99 368 81 q 427 117 401 117 q 471 99 453 117 q 488 56 488 81 q 471 13 488 30 q 427 -4 453 -4 q 385 13 401 -4 q 368 56 368 30 z "},"¨":{"ha":350,"x_min":27,"x_max":319,"o":"m 27 549 q 44 593 27 575 q 87 610 61 610 q 130 593 113 610 q 148 549 148 575 q 130 507 148 524 q 87 490 113 490 q 44 507 61 490 q 27 549 27 524 m 198 549 q 215 593 198 575 q 258 610 232 610 q 301 593 283 610 q 319 549 319 575 q 301 507 319 524 q 258 490 283 490 q 215 507 232 490 q 198 549 198 524 z "},"¥":{"ha":621,"x_min":43,"x_max":591,"o":"m 225 365 q 225 368 225 365 l 68 808 q 75 836 64 823 q 104 854 87 849 q 139 853 121 860 q 167 823 157 846 l 298 472 l 492 783 q 524 806 505 804 q 558 798 543 807 q 583 772 574 788 q 583 742 591 755 l 336 351 l 446 339 q 478 312 471 331 q 481 275 486 293 q 464 244 477 256 q 431 237 450 232 l 321 251 l 312 179 l 423 165 q 455 138 448 157 q 459 101 463 119 q 442 71 456 83 q 410 65 429 58 l 298 77 l 290 15 q 271 -19 288 -11 q 235 -24 254 -27 q 202 -8 217 -20 q 190 20 187 4 l 198 90 l 85 104 q 52 124 60 107 q 47 159 43 141 q 62 192 50 178 q 91 205 75 206 l 209 191 l 217 263 l 107 278 q 75 298 83 281 q 70 333 66 315 q 85 366 73 351 q 114 378 98 380 l 225 365 z "},"−":{"ha":492,"x_min":34,"x_max":453,"o":"m 408 370 q 443 348 433 366 q 452 311 453 330 q 438 279 450 293 q 407 269 426 264 l 80 266 q 44 281 54 266 q 35 316 34 297 q 47 351 37 335 q 73 366 57 366 l 408 370 z "},"±":{"ha":492,"x_min":34,"x_max":457,"o":"m 408 247 q 443 224 433 243 q 452 188 453 206 q 438 155 450 170 q 407 145 426 141 l 80 142 q 44 158 54 142 q 35 193 34 174 q 47 227 37 212 q 73 243 57 243 l 408 247 m 194 429 l 84 429 q 48 444 58 429 q 39 479 38 460 q 51 513 41 498 q 77 529 61 529 l 195 530 l 197 643 q 219 677 201 667 q 256 686 237 688 q 288 671 274 684 q 297 640 301 659 l 296 532 l 412 533 q 447 511 437 529 q 456 474 457 492 q 442 441 454 456 q 411 431 430 427 l 294 430 l 294 313 q 278 278 294 288 q 243 270 262 269 q 209 281 224 271 q 194 308 194 292 l 194 429 z "},"´":{"ha":259,"x_min":33,"x_max":221,"o":"m 133 675 q 173 687 153 690 q 205 671 193 684 q 219 640 217 658 q 206 605 221 621 l 121 510 q 85 495 103 491 q 54 513 66 499 q 37 545 41 526 q 43 574 33 563 l 133 675 z "},"`":{"ha":250,"x_min":39,"x_max":229,"o":"m 218 574 q 225 545 229 563 q 208 513 221 526 q 177 495 195 499 q 141 510 159 491 l 56 605 q 41 635 39 617 q 56 667 43 652 q 89 686 69 681 q 129 675 109 690 l 218 574 z "},"×":{"ha":481,"x_min":75,"x_max":410,"o":"m 240 241 l 161 164 q 125 149 144 145 q 94 168 107 153 q 78 200 81 182 q 85 229 75 218 l 168 315 l 90 395 q 81 435 76 415 q 102 466 87 454 q 134 479 117 477 q 163 464 152 480 l 239 387 l 320 469 q 360 477 340 483 q 392 458 380 472 q 406 425 404 444 q 391 396 407 407 l 309 313 l 392 231 q 406 193 410 212 q 387 163 401 175 q 354 147 373 151 q 324 156 335 144 l 240 241 z "},"Þ":{"ha":590,"x_min":27,"x_max":568,"o":"m 241 27 q 230 -1 244 12 q 197 -18 216 -14 q 162 -14 179 -22 q 141 19 145 -7 l 27 731 q 42 773 27 760 q 75 787 57 787 q 111 777 94 788 q 133 743 129 765 q 137 715 133 742 q 146 657 141 689 q 157 598 152 625 q 163 570 161 571 q 219 611 187 594 q 288 633 251 628 q 382 629 336 642 q 465 588 429 616 q 527 519 502 560 q 560 430 552 479 q 557 334 568 381 q 519 249 545 288 q 452 184 492 210 q 363 151 412 159 q 220 175 288 138 l 241 27 m 463 412 q 444 465 458 441 q 407 505 429 488 q 359 528 385 521 q 305 530 332 534 q 254 511 277 526 q 216 474 231 496 q 194 425 201 452 q 191 370 187 399 q 210 318 195 342 q 247 278 225 294 q 295 254 269 262 q 349 251 321 247 q 399 270 377 255 q 437 307 422 285 q 460 357 453 330 q 463 412 467 384 z "},"þ":{"ha":553,"x_min":12,"x_max":549,"o":"m 227 -221 q 214 -250 228 -237 q 181 -265 199 -262 q 146 -260 163 -269 q 126 -227 129 -252 l 12 673 q 28 714 14 701 q 62 727 43 727 q 97 715 80 727 q 118 681 114 703 q 120 661 118 680 q 126 615 122 643 q 134 555 130 587 q 142 496 138 524 q 148 449 145 468 q 152 429 151 430 q 210 468 178 452 q 278 488 241 484 q 372 480 327 494 q 454 437 418 467 q 513 366 490 407 q 544 275 537 324 q 536 180 549 227 q 496 96 524 134 q 429 33 469 58 q 339 3 388 8 q 264 5 300 -3 q 195 33 228 14 l 227 -221 m 446 262 q 429 315 442 290 q 394 356 415 339 q 347 381 373 373 q 293 385 320 389 q 241 367 264 381 q 202 332 218 353 q 178 283 186 311 q 174 228 170 256 q 191 175 178 199 q 227 134 205 151 q 274 108 248 117 q 328 103 300 99 q 378 121 355 107 q 418 157 401 136 q 442 206 434 179 q 446 262 450 233 z "},"˝":{"ha":416,"x_min":33,"x_max":397,"o":"m 133 675 q 173 686 153 690 q 205 667 193 681 q 220 635 218 652 q 206 605 222 617 l 121 510 q 85 495 103 491 q 54 513 66 499 q 37 545 41 526 q 43 574 33 563 l 133 675 m 308 675 q 348 686 328 690 q 380 667 368 681 q 395 635 393 652 q 381 605 397 617 l 296 510 q 260 495 278 491 q 229 513 241 499 q 212 545 216 526 q 218 574 208 563 l 308 675 z "},"ı":{"ha":209,"x_min":33,"x_max":171,"o":"m 58 434 q 83 465 64 458 q 123 468 103 472 q 157 451 142 464 q 165 422 171 438 l 134 37 q 115 2 132 11 q 81 -4 99 -7 q 47 10 62 -1 q 34 37 33 22 l 58 434 z "},"ˇ":{"ha":296,"x_min":20,"x_max":271,"o":"m 201 519 q 173 496 189 503 q 142 490 157 490 q 113 499 126 491 q 90 519 99 507 l 26 613 q 27 642 20 627 q 46 665 34 656 q 74 673 58 674 q 104 656 90 673 l 146 598 l 186 655 q 212 672 195 671 q 241 665 228 673 q 263 644 255 658 q 266 617 271 631 l 201 519 z "},"ß":{"ha":629,"x_min":50,"x_max":586,"o":"m 202 -58 q 189 -100 203 -85 q 155 -117 174 -115 q 119 -106 136 -119 q 100 -64 102 -94 l 54 684 q 68 773 50 732 q 137 826 85 814 q 193 835 157 830 q 269 839 228 840 q 352 829 309 838 q 431 798 395 821 q 492 738 467 776 q 524 642 517 700 q 518 580 526 609 q 495 526 510 551 q 458 482 480 502 q 414 448 437 463 q 478 413 448 434 q 532 364 509 392 q 570 303 556 336 q 585 232 585 270 q 561 127 586 172 q 494 50 536 81 q 395 -1 452 18 q 277 -23 339 -19 q 244 -10 258 -24 q 227 22 231 4 q 230 55 222 39 q 263 73 237 71 q 344 87 304 77 q 415 115 384 96 q 465 165 446 134 q 479 240 483 195 q 457 301 475 275 q 412 344 439 327 q 349 370 384 361 q 274 381 313 378 q 245 393 256 377 q 232 430 235 410 q 237 469 229 450 q 263 487 244 487 q 326 503 296 492 q 380 530 357 513 q 416 573 403 548 q 426 633 429 598 q 407 680 425 658 q 359 715 389 701 q 286 735 328 730 q 195 732 244 741 q 180 730 189 732 q 165 721 172 727 q 153 705 157 715 q 149 680 148 694 l 202 -58 z "},"˙":{"ha":167,"x_min":20,"x_max":141,"o":"m 20 562 q 37 605 20 587 q 80 623 54 623 q 123 605 106 623 q 141 562 141 587 q 123 519 141 536 q 80 502 106 502 q 37 519 54 502 q 20 562 20 536 z "},"˘":{"ha":400,"x_min":41,"x_max":365,"o":"m 283 629 q 308 647 292 646 q 338 640 324 648 q 358 616 351 632 q 355 582 365 601 q 291 517 332 538 q 205 497 250 496 q 119 518 160 498 q 53 579 77 538 q 47 614 41 600 q 68 637 54 629 q 97 643 81 644 q 117 629 113 642 q 158 583 133 597 q 208 572 183 570 q 253 589 232 574 q 283 629 274 604 z "},"˚":{"ha":228,"x_min":24,"x_max":199,"o":"m 85 576 q 111 551 85 551 q 130 558 122 551 q 138 576 138 566 q 130 595 138 587 q 111 604 122 604 q 93 595 100 604 q 85 576 85 587 m 24 576 q 50 639 24 613 q 111 665 75 665 q 174 639 148 665 q 199 576 199 613 q 174 515 199 540 q 111 490 148 490 q 50 515 75 490 q 24 576 24 540 z "},"˛":{"ha":233,"x_min":58,"x_max":206,"o":"m 176 22 q 159 -6 165 11 q 152 -43 152 -23 q 161 -85 152 -64 q 194 -126 171 -107 q 201 -157 206 -141 q 181 -181 195 -172 q 147 -189 167 -190 q 111 -170 127 -187 q 70 -101 81 -137 q 60 -32 58 -65 q 73 30 61 1 q 102 77 84 58 q 136 93 118 95 q 168 79 155 91 q 186 51 182 68 q 176 22 190 34 z "},"÷":{"ha":471,"x_min":23,"x_max":442,"o":"m 176 157 q 186 203 172 183 q 227 227 201 222 q 272 214 252 229 q 296 175 292 199 q 283 130 298 149 q 243 107 269 110 q 198 117 217 103 q 176 157 179 132 m 163 450 q 174 496 160 476 q 214 519 189 517 q 260 508 240 524 q 283 468 279 492 q 271 422 286 442 q 231 400 256 403 q 186 411 205 396 q 163 450 167 426 m 397 370 q 432 348 422 366 q 441 311 442 330 q 427 279 439 293 q 396 269 415 264 l 69 266 q 33 281 43 266 q 24 316 23 297 q 36 351 26 335 q 62 366 46 366 l 397 370 z "},"°":{"ha":224,"x_min":24,"x_max":199,"o":"m 85 576 q 111 551 85 551 q 130 558 122 551 q 138 576 138 566 q 130 595 138 587 q 111 604 122 604 q 93 595 100 604 q 85 576 85 587 m 24 576 q 50 639 24 613 q 111 665 75 665 q 174 639 148 665 q 199 576 199 613 q 174 515 199 540 q 111 490 148 490 q 50 515 75 490 q 24 576 24 540 z "},"•":{"ha":222,"x_min":37,"x_max":187,"o":"m 37 345 q 58 398 37 376 q 111 420 80 420 q 165 398 142 420 q 187 345 187 376 q 165 292 187 313 q 111 270 142 270 q 58 292 80 270 q 37 345 37 313 z "},"©":{"ha":901,"x_min":54,"x_max":848,"o":"m 568 330 q 600 344 581 346 q 633 330 618 342 q 652 298 647 317 q 643 260 658 279 q 545 183 605 209 q 420 167 486 157 q 332 199 372 174 q 264 262 292 225 q 225 347 237 300 q 220 442 213 393 q 251 533 227 491 q 312 604 275 575 q 394 646 349 632 q 488 651 439 659 q 616 593 570 637 q 673 498 662 549 q 665 468 677 480 q 635 450 652 456 q 600 448 617 445 q 578 467 583 452 q 535 525 563 507 q 472 548 507 543 q 418 545 445 552 q 371 520 392 537 q 336 479 350 503 q 317 427 321 456 q 321 372 313 399 q 344 323 328 346 q 382 286 359 301 q 433 267 406 271 q 503 274 473 262 q 568 330 532 286 m 829 316 q 736 116 806 190 q 575 14 666 42 q 387 3 484 -14 q 214 75 290 19 q 96 226 137 132 q 75 448 54 320 q 138 627 92 553 q 245 744 183 700 q 380 802 308 788 q 524 804 453 817 q 659 754 595 792 q 767 654 723 716 q 829 507 811 591 q 829 316 848 422 m 743 331 q 747 484 762 416 q 694 602 731 552 q 607 682 658 652 q 503 722 556 712 q 397 716 452 730 q 294 667 342 703 q 210 575 247 632 q 160 439 174 518 q 162 304 146 363 q 212 200 178 244 q 292 128 245 156 q 387 91 338 100 q 494 84 439 80 q 598 114 549 88 q 686 192 647 140 q 743 331 724 244 z "},"®":{"ha":822,"x_min":24,"x_max":795,"o":"m 791 388 q 751 221 787 292 q 661 104 716 151 q 537 36 606 58 q 397 16 468 14 q 258 44 326 18 q 139 120 191 71 q 56 243 87 170 q 26 414 24 317 q 62 600 27 521 q 153 730 98 678 q 279 807 209 783 q 421 829 349 831 q 562 798 494 827 q 683 714 631 769 q 765 577 735 659 q 791 388 795 495 m 704 391 q 686 543 711 477 q 618 653 661 609 q 520 720 575 697 q 412 745 465 742 q 307 725 359 746 q 212 662 255 704 q 142 558 170 620 q 111 418 114 496 q 132 283 109 340 q 195 186 156 225 q 285 127 235 148 q 384 103 335 106 q 491 112 437 100 q 591 156 545 123 q 667 245 636 189 q 704 391 697 302 m 342 187 q 324 174 338 178 q 296 170 311 170 q 271 175 282 171 q 259 187 259 179 l 260 605 q 286 654 260 636 q 338 673 311 673 q 393 672 357 673 q 467 659 430 671 q 532 620 505 647 q 562 540 560 593 q 541 469 563 500 q 490 423 518 438 l 579 206 q 571 187 582 195 q 545 176 560 179 q 516 175 529 174 q 502 183 503 176 l 419 411 q 370 406 393 404 q 336 410 347 407 l 342 187 m 488 547 q 477 572 488 560 q 445 593 465 585 q 397 603 425 601 q 338 600 369 605 l 336 480 q 381 478 355 477 q 431 486 407 479 q 471 507 454 492 q 488 547 488 521 z "},"¸":{"ha":316,"x_min":45,"x_max":289,"o":"m 132 27 l 134 -7 q 251 -40 213 -9 q 289 -118 289 -71 q 243 -218 289 -189 q 125 -245 198 -247 q 83 -231 98 -245 q 67 -198 69 -216 q 77 -165 65 -180 q 115 -148 88 -149 q 142 -147 127 -148 q 167 -144 156 -146 q 184 -135 178 -141 q 190 -117 191 -129 q 175 -98 187 -102 q 122 -95 163 -94 q 102 -94 117 -95 q 75 -81 88 -92 q 54 -45 62 -69 q 52 27 45 -20 l 132 27 z "},"–":{"ha":492,"x_min":34,"x_max":453,"o":"m 408 369 q 443 347 433 365 q 452 310 453 328 q 438 277 450 292 q 407 267 426 263 l 80 264 q 44 280 54 264 q 35 315 34 296 q 47 349 37 334 q 73 365 57 365 l 408 369 z "},"—":{"ha":574,"x_min":34,"x_max":543,"o":"m 498 369 q 532 347 522 365 q 541 310 543 328 q 528 277 540 292 q 496 267 515 263 l 80 264 q 44 280 54 264 q 35 315 34 296 q 47 349 37 334 q 73 365 57 365 l 498 369 z "},"¯":{"ha":442,"x_min":11,"x_max":430,"o":"m 385 602 q 420 580 410 598 q 429 543 430 562 q 415 511 427 525 q 384 500 403 496 l 57 498 q 21 513 31 498 q 12 548 11 529 q 24 583 14 567 q 50 598 34 598 l 385 602 z "},"Á":{"ha":697,"x_min":33,"x_max":666,"o":"m 160 792 q 182 827 167 817 q 215 837 198 837 q 247 829 232 837 q 270 808 262 821 l 658 111 q 658 81 666 98 q 633 54 650 65 q 599 44 617 43 q 568 66 581 45 l 422 327 l 184 285 l 136 -5 q 114 -37 132 -30 q 78 -39 96 -43 q 46 -22 60 -35 q 35 7 33 -9 l 160 792 m 202 392 l 368 422 l 244 640 l 202 392 m 206 1061 q 246 1072 227 1076 q 278 1056 266 1069 q 292 1025 290 1043 q 279 990 294 1006 l 194 895 q 158 880 176 876 q 127 898 140 884 q 110 930 114 911 q 117 959 106 948 l 206 1061 z "},"Ă":{"ha":697,"x_min":33,"x_max":666,"o":"m 160 792 q 182 827 167 817 q 215 837 198 837 q 247 829 232 837 q 270 808 262 821 l 658 111 q 658 81 666 98 q 633 54 650 65 q 599 44 617 43 q 568 66 581 45 l 422 327 l 184 285 l 136 -5 q 114 -37 132 -30 q 78 -39 96 -43 q 46 -22 60 -35 q 35 7 33 -9 l 160 792 m 202 392 l 368 422 l 244 640 l 202 392 m 288 1054 q 312 1072 296 1070 q 342 1065 328 1073 q 362 1041 355 1057 q 359 1006 369 1025 q 295 942 336 963 q 209 922 254 921 q 123 943 164 922 q 57 1004 81 963 q 52 1039 45 1024 q 72 1061 58 1054 q 101 1067 85 1069 q 121 1054 117 1066 q 162 1008 137 1021 q 212 996 187 994 q 257 1013 236 998 q 288 1054 278 1028 z "},"Â":{"ha":697,"x_min":33,"x_max":666,"o":"m 160 792 q 182 827 167 817 q 215 837 198 837 q 247 829 232 837 q 270 808 262 821 l 658 111 q 658 81 666 98 q 633 54 650 65 q 599 44 617 43 q 568 66 581 45 l 422 327 l 184 285 l 136 -5 q 114 -37 132 -30 q 78 -39 96 -43 q 46 -22 60 -35 q 35 7 33 -9 l 160 792 m 202 392 l 368 422 l 244 640 l 202 392 m 157 1023 q 185 1046 170 1039 q 216 1052 201 1053 q 245 1043 232 1051 q 269 1023 259 1035 l 332 929 q 331 901 338 916 q 312 877 324 886 q 283 869 300 868 q 254 886 267 869 l 212 944 l 172 887 q 146 870 161 871 q 117 877 130 869 q 95 898 103 884 q 92 925 87 911 l 157 1023 z "},"À":{"ha":697,"x_min":33,"x_max":666,"o":"m 160 792 q 182 827 167 817 q 215 837 198 837 q 247 829 232 837 q 270 808 262 821 l 658 111 q 658 81 666 98 q 633 54 650 65 q 599 44 617 43 q 568 66 581 45 l 422 327 l 184 285 l 136 -5 q 114 -37 132 -30 q 78 -39 96 -43 q 46 -22 60 -35 q 35 7 33 -9 l 160 792 m 202 392 l 368 422 l 244 640 l 202 392 m 278 966 q 285 937 289 955 q 268 905 281 918 q 237 887 255 891 q 201 902 218 883 l 115 997 q 101 1027 99 1009 q 116 1059 103 1044 q 149 1078 129 1073 q 189 1067 168 1082 l 278 966 z "},"Ä":{"ha":697,"x_min":33,"x_max":666,"o":"m 160 792 q 182 827 167 817 q 215 837 198 837 q 247 829 232 837 q 270 808 262 821 l 658 111 q 658 81 666 98 q 633 54 650 65 q 599 44 617 43 q 568 66 581 45 l 422 327 l 184 285 l 136 -5 q 114 -37 132 -30 q 78 -39 96 -43 q 46 -22 60 -35 q 35 7 33 -9 l 160 792 m 202 392 l 368 422 l 244 640 l 202 392 m 66 922 q 83 966 66 948 q 126 983 100 983 q 170 966 152 983 q 187 922 187 948 q 170 880 187 897 q 126 863 152 863 q 83 880 100 863 q 66 922 66 897 m 237 922 q 254 966 237 948 q 297 983 271 983 q 340 966 323 983 q 358 922 358 948 q 340 880 358 897 q 297 863 323 863 q 254 880 271 863 q 237 922 237 897 z "},"Ā":{"ha":697,"x_min":33,"x_max":666,"o":"m 160 792 q 182 827 167 817 q 215 837 198 837 q 247 829 232 837 q 270 808 262 821 l 658 111 q 658 81 666 98 q 633 54 650 65 q 599 44 617 43 q 568 66 581 45 l 422 327 l 184 285 l 136 -5 q 114 -37 132 -30 q 78 -39 96 -43 q 46 -22 60 -35 q 35 7 33 -9 l 160 792 m 202 392 l 368 422 l 244 640 l 202 392 m 408 1005 q 443 983 433 1001 q 452 946 453 964 q 438 913 450 928 q 407 903 426 899 l 80 901 q 44 916 54 901 q 35 951 34 932 q 47 985 37 970 q 73 1001 57 1001 l 408 1005 z "},"Ą":{"ha":697,"x_min":33,"x_max":663,"o":"m 160 792 q 182 827 167 817 q 215 837 198 837 q 247 829 232 837 q 270 808 262 821 l 658 111 q 661 91 663 102 q 650 71 658 80 q 631 54 643 61 q 608 45 620 46 q 602 -14 597 19 q 643 -77 608 -47 q 650 -108 655 -92 q 630 -132 644 -123 q 596 -140 616 -141 q 560 -121 576 -138 q 520 -57 532 -90 q 508 7 509 -24 q 517 66 507 38 q 541 114 526 94 l 422 327 l 184 285 l 136 -5 q 114 -37 132 -30 q 78 -39 96 -43 q 46 -22 60 -35 q 35 7 33 -9 l 160 792 m 202 392 l 368 422 l 244 640 l 202 392 z "},"Å":{"ha":697,"x_min":33,"x_max":666,"o":"m 160 792 q 182 827 167 817 q 215 837 198 837 q 247 829 232 837 q 270 808 262 821 l 658 111 q 658 81 666 98 q 633 54 650 65 q 599 44 617 43 q 568 66 581 45 l 422 327 l 184 285 l 136 -5 q 114 -37 132 -30 q 78 -39 96 -43 q 46 -22 60 -35 q 35 7 33 -9 l 160 792 m 202 392 l 368 422 l 244 640 l 202 392 m 179 960 q 205 935 179 935 q 224 942 216 935 q 232 960 232 949 q 224 979 232 971 q 205 987 216 987 q 186 979 194 987 q 179 960 179 971 m 118 960 q 143 1023 118 997 q 205 1048 168 1048 q 267 1023 241 1048 q 293 960 293 997 q 267 899 293 924 q 205 873 241 873 q 143 899 168 873 q 118 960 118 924 z "},"Ã":{"ha":697,"x_min":33,"x_max":666,"o":"m 160 792 q 182 827 167 817 q 215 837 198 837 q 247 829 232 837 q 270 808 262 821 l 658 111 q 658 81 666 98 q 633 54 650 65 q 599 44 617 43 q 568 66 581 45 l 422 327 l 184 285 l 136 -5 q 114 -37 132 -30 q 78 -39 96 -43 q 46 -22 60 -35 q 35 7 33 -9 l 160 792 m 202 392 l 368 422 l 244 640 l 202 392 m 388 1028 q 409 1053 393 1046 q 441 1056 425 1059 q 469 1039 457 1053 q 479 1002 480 1025 q 439 909 473 945 q 361 871 404 873 q 302 884 326 868 q 258 920 278 901 q 217 954 237 939 q 171 964 197 968 q 142 944 151 962 q 125 897 134 926 q 100 869 117 873 q 67 873 83 865 q 43 900 52 882 q 42 940 34 918 q 90 1021 61 987 q 165 1054 118 1055 q 230 1039 205 1054 q 273 1007 255 1024 q 309 976 292 990 q 351 962 327 962 q 380 981 373 962 q 388 1028 387 1000 z "},"Æ":{"ha":1061,"x_min":39,"x_max":1016,"o":"m 574 -23 q 547 -20 562 -23 q 521 -10 533 -16 q 501 5 509 -4 q 494 26 494 14 l 500 294 l 311 305 l 142 37 q 107 15 127 15 q 71 27 87 15 q 47 58 54 39 q 49 90 39 76 l 506 806 q 555 836 532 834 q 606 834 578 837 l 971 817 q 1006 800 997 815 q 1014 765 1016 784 q 1001 731 1012 746 q 974 716 990 716 l 620 727 l 609 472 l 844 461 q 879 444 869 460 q 886 410 888 429 q 873 376 884 391 q 846 361 863 361 l 606 366 l 595 83 l 943 66 q 978 49 968 65 q 985 14 987 33 q 972 -20 983 -4 q 945 -34 962 -35 l 574 -23 m 368 404 l 503 399 l 510 624 l 368 404 z "},"Ǽ":{"ha":1013,"x_min":-7,"x_max":970,"o":"m 528 -23 q 501 -20 515 -23 q 475 -10 487 -16 q 455 5 463 -4 q 448 26 448 14 l 454 294 l 264 305 l 96 37 q 61 15 81 15 q 24 27 41 15 q 1 58 8 39 q 3 90 -7 76 l 460 806 q 509 836 486 834 q 560 834 532 837 l 925 817 q 960 800 951 815 q 968 765 970 784 q 955 731 966 746 q 928 716 944 716 l 574 727 l 563 472 l 798 461 q 833 444 823 460 q 840 410 842 429 q 827 376 838 391 q 800 361 817 361 l 560 366 l 549 83 l 897 66 q 932 49 922 65 q 939 14 941 33 q 926 -20 937 -4 q 899 -34 916 -35 l 528 -23 m 321 404 l 457 399 l 464 624 l 321 404 m 718 1057 q 758 1068 738 1072 q 789 1052 777 1065 q 804 1021 802 1039 q 791 986 806 1002 l 705 891 q 669 876 688 872 q 638 894 651 880 q 621 926 625 907 q 628 955 617 944 l 718 1057 z "},"Ć":{"ha":659,"x_min":31,"x_max":616,"o":"m 514 232 q 541 262 522 256 q 578 258 560 267 q 606 230 595 250 q 606 184 616 210 q 513 30 575 91 q 369 -38 450 -31 q 251 -16 308 -43 q 149 65 194 12 q 75 192 104 118 q 38 354 45 266 q 48 520 31 441 q 100 661 65 600 q 186 762 136 723 q 298 806 237 800 q 454 772 384 812 q 570 632 524 731 q 573 598 582 616 q 547 570 564 581 q 507 562 529 560 q 472 587 486 564 q 398 675 439 652 q 305 694 357 699 q 232 661 264 690 q 177 583 199 631 q 144 476 155 536 q 138 354 133 416 q 164 238 144 292 q 215 146 184 184 q 283 88 245 109 q 361 72 321 68 q 454 121 414 76 q 514 232 495 165 m 308 1057 q 348 1068 328 1072 q 380 1052 368 1065 q 394 1021 392 1039 q 381 986 396 1002 l 296 891 q 260 876 278 872 q 229 894 241 880 q 212 926 216 907 q 218 955 208 944 l 308 1057 z "},"Č":{"ha":659,"x_min":31,"x_max":616,"o":"m 514 232 q 541 262 522 256 q 578 258 560 267 q 606 230 595 250 q 606 184 616 210 q 513 30 575 91 q 369 -38 450 -31 q 251 -16 308 -43 q 149 65 194 12 q 75 192 104 118 q 38 354 45 266 q 48 520 31 441 q 100 661 65 600 q 186 762 136 723 q 298 806 237 800 q 454 772 384 812 q 570 632 524 731 q 573 598 582 616 q 547 570 564 581 q 507 562 529 560 q 472 587 486 564 q 398 675 439 652 q 305 694 357 699 q 232 661 264 690 q 177 583 199 631 q 144 476 155 536 q 138 354 133 416 q 164 238 144 292 q 215 146 184 184 q 283 88 245 109 q 361 72 321 68 q 454 121 414 76 q 514 232 495 165 m 302 892 q 275 869 290 876 q 243 863 259 863 q 214 872 228 864 q 191 892 201 880 l 127 986 q 129 1015 122 1000 q 148 1038 136 1029 q 176 1046 160 1047 q 206 1029 191 1046 l 248 971 l 288 1028 q 313 1045 297 1044 q 343 1038 330 1046 q 365 1017 357 1031 q 368 990 373 1004 l 302 892 z "},"Ç":{"ha":659,"x_min":31,"x_max":616,"o":"m 514 232 q 541 262 522 256 q 578 258 560 267 q 606 230 595 250 q 606 184 616 210 q 513 30 575 91 q 369 -38 450 -31 q 251 -16 308 -43 q 149 65 194 12 q 75 192 104 118 q 38 354 45 266 q 48 520 31 441 q 100 661 65 600 q 186 762 136 723 q 298 806 237 800 q 454 772 384 812 q 570 632 524 731 q 573 598 582 616 q 547 570 564 581 q 507 562 529 560 q 472 587 486 564 q 398 675 439 652 q 305 694 357 699 q 232 661 264 690 q 177 583 199 631 q 144 476 155 536 q 138 354 133 416 q 164 238 144 292 q 215 146 184 184 q 283 88 245 109 q 361 72 321 68 q 454 121 414 76 q 514 232 495 165 m 384 -8 l 387 -42 q 503 -75 465 -45 q 541 -153 541 -106 q 496 -253 541 -224 q 377 -281 450 -282 q 336 -266 350 -281 q 319 -233 321 -251 q 329 -200 317 -216 q 368 -183 340 -184 q 394 -182 380 -183 q 419 -179 408 -182 q 437 -170 430 -176 q 442 -152 444 -164 q 427 -133 439 -137 q 374 -130 415 -129 q 355 -129 369 -130 q 328 -116 340 -127 q 306 -80 315 -104 q 304 -8 297 -56 l 384 -8 z "},"Ĉ":{"ha":659,"x_min":31,"x_max":616,"o":"m 514 232 q 541 262 522 256 q 578 258 560 267 q 606 230 595 250 q 606 184 616 210 q 513 30 575 91 q 369 -38 450 -31 q 251 -16 308 -43 q 149 65 194 12 q 75 192 104 118 q 38 354 45 266 q 48 520 31 441 q 100 661 65 600 q 186 762 136 723 q 298 806 237 800 q 454 772 384 812 q 570 632 524 731 q 573 598 582 616 q 547 570 564 581 q 507 562 529 560 q 472 587 486 564 q 398 675 439 652 q 305 694 357 699 q 232 661 264 690 q 177 583 199 631 q 144 476 155 536 q 138 354 133 416 q 164 238 144 292 q 215 146 184 184 q 283 88 245 109 q 361 72 321 68 q 454 121 414 76 q 514 232 495 165 m 237 1020 q 265 1043 250 1036 q 296 1049 281 1050 q 326 1040 312 1048 q 349 1020 339 1032 l 412 926 q 411 898 418 913 q 392 874 404 883 q 363 866 380 865 q 334 883 347 867 l 292 941 l 252 884 q 226 867 241 868 q 197 874 210 867 q 175 895 183 882 q 172 922 167 909 l 237 1020 z "},"Ċ":{"ha":659,"x_min":31,"x_max":616,"o":"m 514 232 q 541 262 522 256 q 578 258 560 267 q 606 230 595 250 q 606 184 616 210 q 513 30 575 91 q 369 -38 450 -31 q 251 -16 308 -43 q 149 65 194 12 q 75 192 104 118 q 38 354 45 266 q 48 520 31 441 q 100 661 65 600 q 186 762 136 723 q 298 806 237 800 q 454 772 384 812 q 570 632 524 731 q 573 598 582 616 q 547 570 564 581 q 507 562 529 560 q 472 587 486 564 q 398 675 439 652 q 305 694 357 699 q 232 661 264 690 q 177 583 199 631 q 144 476 155 536 q 138 354 133 416 q 164 238 144 292 q 215 146 184 184 q 283 88 245 109 q 361 72 321 68 q 454 121 414 76 q 514 232 495 165 m 217 921 q 234 964 217 947 q 277 982 251 982 q 320 964 302 982 q 338 921 338 947 q 320 878 338 895 q 277 861 302 861 q 234 878 251 861 q 217 921 217 895 z "},"Ď":{"ha":632,"x_min":35,"x_max":579,"o":"m 35 731 q 39 751 35 736 q 52 780 42 765 q 79 807 62 795 q 123 823 96 819 q 328 810 243 841 q 467 717 412 780 q 547 568 521 654 q 576 389 574 481 q 561 234 579 308 q 496 103 543 160 q 370 11 449 46 q 175 -28 292 -24 q 138 -29 156 -28 q 105 -22 119 -30 q 82 4 91 -15 q 72 62 73 23 l 35 731 m 172 76 q 318 96 259 73 q 412 161 377 119 q 460 260 446 202 q 471 385 473 317 q 452 527 468 458 q 397 644 435 595 q 294 715 358 693 q 132 720 229 738 l 172 76 m 349 886 q 321 863 336 869 q 290 857 305 856 q 260 865 274 857 q 237 886 247 873 l 174 979 q 175 1008 168 993 q 194 1031 182 1023 q 222 1040 206 1040 q 252 1023 237 1039 l 294 964 l 334 1021 q 359 1038 343 1038 q 389 1031 376 1039 q 411 1010 403 1024 q 414 983 419 997 l 349 886 z "},"Đ":{"ha":632,"x_min":-12,"x_max":579,"o":"m 49 481 l 35 731 q 39 751 35 736 q 52 780 42 765 q 79 807 62 795 q 123 823 96 819 q 328 810 243 841 q 467 717 412 780 q 547 568 521 654 q 576 389 574 481 q 561 234 579 308 q 496 103 543 160 q 370 11 449 46 q 175 -28 292 -24 q 138 -29 156 -28 q 105 -22 119 -30 q 82 4 91 -15 q 72 62 73 23 l 54 381 l 34 381 q -2 397 8 381 q -11 431 -12 412 q 1 466 -9 450 q 27 481 11 481 l 49 481 m 146 483 l 362 486 q 397 463 387 481 q 406 427 407 445 q 392 394 404 408 q 361 384 380 380 l 152 381 l 172 76 q 318 96 259 73 q 412 161 377 119 q 460 260 446 202 q 471 385 473 317 q 452 527 468 458 q 397 644 435 595 q 294 715 358 693 q 132 720 229 738 l 146 483 z "},"É":{"ha":718,"x_min":39,"x_max":682,"o":"m 288 -62 q 260 -65 275 -65 q 232 -62 245 -65 q 209 -51 218 -58 q 198 -33 199 -43 l 46 692 q 56 749 39 727 q 121 781 72 770 l 480 848 q 517 838 505 852 q 533 806 530 825 q 528 770 536 788 q 506 750 521 753 l 159 678 l 208 427 l 438 472 q 476 463 463 476 q 492 431 490 449 q 487 395 494 412 q 464 374 480 377 l 229 326 l 285 47 l 625 110 q 664 102 651 115 q 680 70 677 88 q 675 34 682 52 q 652 12 667 16 l 288 -62 m 305 1042 q 345 1053 326 1057 q 377 1037 365 1050 q 391 1006 389 1024 q 378 971 393 987 l 293 876 q 257 861 275 857 q 226 879 239 865 q 209 911 213 892 q 216 940 205 929 l 305 1042 z "},"Ĕ":{"ha":715,"x_min":39,"x_max":682,"o":"m 288 -62 q 260 -65 275 -65 q 232 -62 245 -65 q 209 -51 218 -58 q 198 -33 199 -43 l 46 692 q 56 749 39 727 q 121 781 72 770 l 480 848 q 517 838 505 852 q 533 806 530 825 q 528 770 536 788 q 506 750 521 753 l 159 678 l 208 427 l 438 472 q 476 463 463 476 q 492 431 490 449 q 487 395 494 412 q 464 374 480 377 l 229 326 l 285 47 l 625 110 q 664 102 651 115 q 680 70 677 88 q 675 34 682 52 q 652 12 667 16 l 288 -62 m 385 996 q 410 1013 393 1012 q 439 1006 426 1015 q 460 983 453 998 q 457 948 467 967 q 393 884 434 905 q 307 863 351 863 q 220 884 262 864 q 155 945 179 905 q 149 981 142 966 q 170 1003 156 996 q 199 1009 183 1010 q 218 996 214 1008 q 260 949 235 963 q 309 938 285 936 q 355 955 334 940 q 385 996 376 970 z "},"Ě":{"ha":707,"x_min":39,"x_max":682,"o":"m 288 -62 q 260 -65 275 -65 q 232 -62 245 -65 q 209 -51 218 -58 q 198 -33 199 -43 l 46 692 q 56 749 39 727 q 121 781 72 770 l 480 848 q 517 838 505 852 q 533 806 530 825 q 528 770 536 788 q 506 750 521 753 l 159 678 l 208 427 l 438 472 q 476 463 463 476 q 492 431 490 449 q 487 395 494 412 q 464 374 480 377 l 229 326 l 285 47 l 625 110 q 664 102 651 115 q 680 70 677 88 q 675 34 682 52 q 652 12 667 16 l 288 -62 m 358 886 q 330 863 346 869 q 299 857 315 856 q 270 865 283 857 q 247 886 256 873 l 183 979 q 184 1008 178 993 q 203 1031 191 1023 q 231 1040 216 1040 q 262 1023 247 1039 l 304 964 l 343 1021 q 369 1038 353 1038 q 399 1031 385 1039 q 420 1010 412 1024 q 423 983 429 997 l 358 886 z "},"Ê":{"ha":696,"x_min":39,"x_max":682,"o":"m 288 -62 q 260 -65 275 -65 q 232 -62 245 -65 q 209 -51 218 -58 q 198 -33 199 -43 l 46 692 q 56 749 39 727 q 121 781 72 770 l 480 848 q 517 838 505 852 q 533 806 530 825 q 528 770 536 788 q 506 750 521 753 l 159 678 l 208 427 l 438 472 q 476 463 463 476 q 492 431 490 449 q 487 395 494 412 q 464 374 480 377 l 229 326 l 285 47 l 625 110 q 664 102 651 115 q 680 70 677 88 q 675 34 682 52 q 652 12 667 16 l 288 -62 m 248 1012 q 276 1035 260 1028 q 307 1041 292 1042 q 336 1032 323 1040 q 359 1012 350 1024 l 423 918 q 422 890 429 905 q 403 866 415 875 q 374 858 391 857 q 345 875 358 859 l 302 933 l 263 876 q 237 859 252 860 q 208 866 221 859 q 186 887 194 873 q 183 914 178 901 l 248 1012 z "},"Ë":{"ha":703,"x_min":39,"x_max":682,"o":"m 288 -62 q 260 -65 275 -65 q 232 -62 245 -65 q 209 -51 218 -58 q 198 -33 199 -43 l 46 692 q 56 749 39 727 q 121 781 72 770 l 480 848 q 517 838 505 852 q 533 806 530 825 q 528 770 536 788 q 506 750 521 753 l 159 678 l 208 427 l 438 472 q 476 463 463 476 q 492 431 490 449 q 487 395 494 412 q 464 374 480 377 l 229 326 l 285 47 l 625 110 q 664 102 651 115 q 680 70 677 88 q 675 34 682 52 q 652 12 667 16 l 288 -62 m 157 916 q 174 959 157 941 q 217 977 191 977 q 260 959 243 977 q 278 916 278 941 q 260 873 278 890 q 217 856 243 856 q 174 873 191 856 q 157 916 157 890 m 328 916 q 345 959 328 941 q 388 977 362 977 q 431 959 414 977 q 449 916 449 941 q 431 873 449 890 q 388 856 414 856 q 345 873 362 856 q 328 916 328 890 z "},"Ė":{"ha":722,"x_min":39,"x_max":682,"o":"m 288 -62 q 260 -65 275 -65 q 232 -62 245 -65 q 209 -51 218 -58 q 198 -33 199 -43 l 46 692 q 56 749 39 727 q 121 781 72 770 l 480 848 q 517 838 505 852 q 533 806 530 825 q 528 770 536 788 q 506 750 521 753 l 159 678 l 208 427 l 438 472 q 476 463 463 476 q 492 431 490 449 q 487 395 494 412 q 464 374 480 377 l 229 326 l 285 47 l 625 110 q 664 102 651 115 q 680 70 677 88 q 675 34 682 52 q 652 12 667 16 l 288 -62 m 243 928 q 260 971 243 954 q 302 989 277 989 q 346 971 328 989 q 363 928 363 954 q 346 885 363 902 q 302 868 328 868 q 260 885 277 868 q 243 928 243 902 z "},"È":{"ha":711,"x_min":39,"x_max":682,"o":"m 288 -62 q 260 -65 275 -65 q 232 -62 245 -65 q 209 -51 218 -58 q 198 -33 199 -43 l 46 692 q 56 749 39 727 q 121 781 72 770 l 480 848 q 517 838 505 852 q 533 806 530 825 q 528 770 536 788 q 506 750 521 753 l 159 678 l 208 427 l 438 472 q 476 463 463 476 q 492 431 490 449 q 487 395 494 412 q 464 374 480 377 l 229 326 l 285 47 l 625 110 q 664 102 651 115 q 680 70 677 88 q 675 34 682 52 q 652 12 667 16 l 288 -62 m 391 940 q 397 911 401 929 q 380 879 393 892 q 349 861 368 865 q 313 876 331 857 l 228 971 q 214 1001 212 983 q 229 1033 216 1019 q 261 1052 241 1047 q 301 1042 281 1057 l 391 940 z "},"Ē":{"ha":728,"x_min":39,"x_max":682,"o":"m 288 -62 q 260 -65 275 -65 q 232 -62 245 -65 q 209 -51 218 -58 q 198 -33 199 -43 l 46 692 q 56 749 39 727 q 121 781 72 770 l 480 848 q 517 838 505 852 q 533 806 530 825 q 528 770 536 788 q 506 750 521 753 l 159 678 l 208 427 l 438 472 q 476 463 463 476 q 492 431 490 449 q 487 395 494 412 q 464 374 480 377 l 229 326 l 285 47 l 625 110 q 664 102 651 115 q 680 70 677 88 q 675 34 682 52 q 652 12 667 16 l 288 -62 m 465 983 q 500 961 490 979 q 509 924 510 943 q 495 892 507 906 q 464 882 483 878 l 137 879 q 101 895 111 879 q 92 929 91 910 q 104 964 94 948 q 130 979 114 979 l 465 983 z "},"Ę":{"ha":707,"x_min":39,"x_max":682,"o":"m 529 -12 q 512 -41 518 -23 q 506 -78 506 -58 q 515 -119 506 -98 q 548 -160 525 -141 q 555 -191 560 -175 q 535 -215 549 -206 q 501 -222 521 -224 q 465 -203 481 -221 q 418 -119 429 -163 q 416 -35 408 -75 l 288 -62 q 260 -65 275 -65 q 232 -62 245 -65 q 209 -51 218 -58 q 198 -33 199 -43 l 46 692 q 56 749 39 727 q 121 781 72 770 l 480 848 q 517 838 505 852 q 533 806 530 825 q 528 770 536 788 q 506 750 521 753 l 159 678 l 208 427 l 438 472 q 476 463 463 476 q 492 431 490 449 q 487 395 494 412 q 464 374 480 377 l 229 326 l 285 47 l 625 110 q 664 102 651 115 q 680 70 677 88 q 675 34 682 52 q 652 12 667 16 l 529 -12 z "},"Ğ":{"ha":686,"x_min":34,"x_max":640,"o":"m 369 87 q 435 107 404 91 q 489 155 467 123 q 524 237 511 187 q 533 355 536 286 l 376 338 q 338 350 350 335 q 326 383 327 365 q 334 418 326 401 q 359 437 343 435 l 534 456 q 591 452 571 460 q 621 431 612 445 q 633 401 631 418 q 636 372 636 385 q 621 209 640 279 q 567 90 602 138 q 483 14 532 41 q 378 -19 434 -14 q 260 3 317 -24 q 157 83 202 30 q 81 209 111 136 q 42 370 50 282 q 50 536 34 457 q 101 678 66 616 q 186 779 136 741 q 298 823 237 818 q 381 814 340 827 q 458 775 422 802 q 525 709 494 749 q 579 621 556 670 q 571 595 585 609 q 538 572 557 581 q 503 562 519 563 q 483 578 486 562 q 403 682 449 640 q 305 719 357 723 q 233 683 266 715 q 178 602 201 651 q 146 493 156 553 q 142 372 136 433 q 170 255 148 309 q 222 162 191 201 q 290 103 252 123 q 369 87 328 83 m 362 1002 q 387 1020 370 1019 q 416 1013 403 1021 q 437 989 430 1005 q 434 955 444 974 q 370 890 411 911 q 283 870 328 869 q 197 891 239 871 q 132 952 156 911 q 126 987 119 972 q 146 1010 133 1002 q 176 1016 160 1017 q 195 1002 191 1015 q 237 956 212 970 q 286 945 262 943 q 332 962 311 947 q 362 1002 353 977 z "},"Ĝ":{"ha":686,"x_min":34,"x_max":640,"o":"m 369 87 q 435 107 404 91 q 489 155 467 123 q 524 237 511 187 q 533 355 536 286 l 376 338 q 338 350 350 335 q 326 383 327 365 q 334 418 326 401 q 359 437 343 435 l 534 456 q 591 452 571 460 q 621 431 612 445 q 633 401 631 418 q 636 372 636 385 q 621 209 640 279 q 567 90 602 138 q 483 14 532 41 q 378 -19 434 -14 q 260 3 317 -24 q 157 83 202 30 q 81 209 111 136 q 42 370 50 282 q 50 536 34 457 q 101 678 66 616 q 186 779 136 741 q 298 823 237 818 q 381 814 340 827 q 458 775 422 802 q 525 709 494 749 q 579 621 556 670 q 571 595 585 609 q 538 572 557 581 q 503 562 519 563 q 483 578 486 562 q 403 682 449 640 q 305 719 357 723 q 233 683 266 715 q 178 602 201 651 q 146 493 156 553 q 142 372 136 433 q 170 255 148 309 q 222 162 191 201 q 290 103 252 123 q 369 87 328 83 m 203 1016 q 231 1039 216 1032 q 262 1045 247 1046 q 292 1036 278 1044 q 315 1016 305 1028 l 378 922 q 377 894 384 909 q 358 870 370 879 q 330 862 346 861 q 300 879 313 863 l 258 937 l 218 880 q 192 863 208 864 q 163 870 176 863 q 141 891 149 878 q 138 918 133 905 l 203 1016 z "},"Ģ":{"ha":686,"x_min":34,"x_max":640,"o":"m 369 87 q 435 107 404 91 q 489 155 467 123 q 524 237 511 187 q 533 355 536 286 l 376 338 q 338 350 350 335 q 326 383 327 365 q 334 418 326 401 q 359 437 343 435 l 534 456 q 591 452 571 460 q 621 431 612 445 q 633 401 631 418 q 636 372 636 385 q 621 209 640 279 q 567 90 602 138 q 483 14 532 41 q 378 -19 434 -14 q 260 3 317 -24 q 157 83 202 30 q 81 209 111 136 q 42 370 50 282 q 50 536 34 457 q 101 678 66 616 q 186 779 136 741 q 298 823 237 818 q 381 814 340 827 q 458 775 422 802 q 525 709 494 749 q 579 621 556 670 q 571 595 585 609 q 538 572 557 581 q 503 562 519 563 q 483 578 486 562 q 403 682 449 640 q 305 719 357 723 q 233 683 266 715 q 178 602 201 651 q 146 493 156 553 q 142 372 136 433 q 170 255 148 309 q 222 162 191 201 q 290 103 252 123 q 369 87 328 83 m 290 -111 q 281 -82 277 -99 q 298 -54 285 -65 q 330 -40 312 -42 q 365 -56 349 -38 q 394 -106 382 -75 q 407 -173 406 -137 q 397 -248 408 -209 q 355 -319 385 -286 q 319 -338 339 -336 q 286 -330 300 -339 q 266 -306 271 -321 q 273 -275 260 -290 q 304 -232 294 -256 q 315 -184 315 -208 q 308 -142 315 -161 q 290 -111 301 -122 z "},"Ġ":{"ha":686,"x_min":34,"x_max":640,"o":"m 369 87 q 435 107 404 91 q 489 155 467 123 q 524 237 511 187 q 533 355 536 286 l 376 338 q 338 350 350 335 q 326 383 327 365 q 334 418 326 401 q 359 437 343 435 l 534 456 q 591 452 571 460 q 621 431 612 445 q 633 401 631 418 q 636 372 636 385 q 621 209 640 279 q 567 90 602 138 q 483 14 532 41 q 378 -19 434 -14 q 260 3 317 -24 q 157 83 202 30 q 81 209 111 136 q 42 370 50 282 q 50 536 34 457 q 101 678 66 616 q 186 779 136 741 q 298 823 237 818 q 381 814 340 827 q 458 775 422 802 q 525 709 494 749 q 579 621 556 670 q 571 595 585 609 q 538 572 557 581 q 503 562 519 563 q 483 578 486 562 q 403 682 449 640 q 305 719 357 723 q 233 683 266 715 q 178 602 201 651 q 146 493 156 553 q 142 372 136 433 q 170 255 148 309 q 222 162 191 201 q 290 103 252 123 q 369 87 328 83 m 282 928 q 299 971 282 954 q 342 989 316 989 q 385 971 368 989 q 403 928 403 954 q 385 885 403 902 q 342 868 368 868 q 299 885 316 868 q 282 928 282 902 z "},"Ħ":{"ha":651,"x_min":11,"x_max":684,"o":"m 492 330 l 153 370 l 115 38 q 96 5 113 14 q 60 0 79 -3 q 27 15 42 3 q 15 43 12 27 l 72 581 l 57 581 q 21 596 31 581 q 12 631 11 612 q 24 665 14 650 q 50 681 34 681 l 83 681 l 95 792 q 122 822 103 817 q 161 822 141 827 q 193 802 180 817 q 201 772 206 788 l 190 681 l 533 684 l 540 739 q 566 768 547 762 q 605 770 586 774 q 637 751 624 765 q 644 722 650 738 l 640 685 q 674 662 665 680 q 682 625 684 644 q 668 593 680 606 q 637 583 656 579 l 628 583 l 559 -15 q 539 -49 556 -41 q 503 -54 522 -57 q 469 -38 484 -50 q 456 -9 454 -26 l 492 330 m 506 434 l 522 582 l 178 581 l 165 475 l 506 434 z "},"Ĥ":{"ha":651,"x_min":12,"x_max":650,"o":"m 492 330 l 153 370 l 115 38 q 96 5 113 14 q 60 0 79 -3 q 27 15 42 3 q 15 43 12 27 l 95 792 q 122 822 103 817 q 161 822 141 827 q 193 802 180 817 q 201 772 206 788 l 165 475 l 506 434 l 540 739 q 566 768 547 762 q 605 770 586 774 q 637 751 624 765 q 644 722 650 738 l 559 -15 q 539 -49 556 -41 q 503 -54 522 -57 q 469 -38 484 -50 q 456 -9 454 -26 l 492 330 m 361 993 q 389 1016 373 1009 q 420 1022 404 1023 q 449 1013 435 1021 q 472 993 463 1005 l 536 899 q 534 871 541 886 q 515 847 528 856 q 487 839 503 838 q 457 856 471 840 l 415 914 l 376 857 q 349 840 365 841 q 320 847 334 840 q 298 868 307 854 q 296 895 290 882 l 361 993 z "},"Í":{"ha":616,"x_min":9,"x_max":586,"o":"m 297 75 l 182 689 l 65 666 q 28 675 41 662 q 12 708 15 689 q 17 744 9 727 q 41 764 24 761 l 406 830 q 441 814 430 830 q 453 781 453 799 q 443 747 453 762 q 412 731 433 731 l 288 708 l 400 92 l 525 114 q 558 110 543 121 q 580 82 574 99 q 581 47 586 65 q 552 19 575 28 l 187 -46 q 158 -35 171 -49 q 140 -3 145 -22 q 143 32 136 15 q 175 53 151 49 l 293 73 l 297 75 m 250 1042 q 290 1053 270 1057 q 321 1037 309 1050 q 336 1006 334 1024 q 323 971 338 987 l 237 876 q 201 861 220 857 q 170 879 183 865 q 153 911 157 892 q 160 940 149 929 l 250 1042 z "},"Ĭ":{"ha":597,"x_min":9,"x_max":586,"o":"m 297 75 l 182 689 l 65 666 q 28 675 41 662 q 12 708 15 689 q 17 744 9 727 q 41 764 24 761 l 406 830 q 441 814 430 830 q 453 781 453 799 q 443 747 453 762 q 412 731 433 731 l 288 708 l 400 92 l 525 114 q 558 110 543 121 q 580 82 574 99 q 581 47 586 65 q 552 19 575 28 l 187 -46 q 158 -35 171 -49 q 140 -3 145 -22 q 143 32 136 15 q 175 53 151 49 l 293 73 l 297 75 m 330 996 q 354 1013 338 1012 q 384 1006 370 1015 q 404 983 397 998 q 401 948 411 967 q 337 884 378 905 q 251 863 296 863 q 165 884 206 864 q 99 945 123 905 q 94 981 87 966 q 114 1003 100 996 q 143 1009 127 1010 q 163 996 159 1008 q 204 949 179 963 q 254 938 229 936 q 299 955 278 940 q 330 996 320 970 z "},"Î":{"ha":605,"x_min":9,"x_max":586,"o":"m 297 75 l 182 689 l 65 666 q 28 675 41 662 q 12 708 15 689 q 17 744 9 727 q 41 764 24 761 l 406 830 q 441 814 430 830 q 453 781 453 799 q 443 747 453 762 q 412 731 433 731 l 288 708 l 400 92 l 525 114 q 558 110 543 121 q 580 82 574 99 q 581 47 586 65 q 552 19 575 28 l 187 -46 q 158 -35 171 -49 q 140 -3 145 -22 q 143 32 136 15 q 175 53 151 49 l 293 73 l 297 75 m 193 1012 q 220 1035 205 1028 q 252 1041 236 1042 q 281 1032 267 1040 q 304 1012 294 1024 l 368 918 q 366 890 373 905 q 347 866 359 875 q 319 858 335 857 q 289 875 302 859 l 247 933 l 208 876 q 181 859 197 860 q 152 866 165 859 q 130 887 138 873 q 127 914 122 901 l 193 1012 z "},"Ï":{"ha":629,"x_min":9,"x_max":586,"o":"m 297 75 l 182 689 l 65 666 q 28 675 41 662 q 12 708 15 689 q 17 744 9 727 q 41 764 24 761 l 406 830 q 441 814 430 830 q 453 781 453 799 q 443 747 453 762 q 412 731 433 731 l 288 708 l 400 92 l 525 114 q 558 110 543 121 q 580 82 574 99 q 581 47 586 65 q 552 19 575 28 l 187 -46 q 158 -35 171 -49 q 140 -3 145 -22 q 143 32 136 15 q 175 53 151 49 l 293 73 l 297 75 m 102 916 q 119 959 102 941 q 161 977 136 977 q 205 959 187 977 q 222 916 222 941 q 205 873 222 890 q 161 856 187 856 q 119 873 136 856 q 102 916 102 890 m 273 916 q 290 959 273 941 q 332 977 307 977 q 376 959 358 977 q 393 916 393 941 q 376 873 393 890 q 332 856 358 856 q 290 873 307 856 q 273 916 273 890 z "},"Ì":{"ha":623,"x_min":9,"x_max":586,"o":"m 297 75 l 182 689 l 65 666 q 28 675 41 662 q 12 708 15 689 q 17 744 9 727 q 41 764 24 761 l 406 830 q 441 814 430 830 q 453 781 453 799 q 443 747 453 762 q 412 731 433 731 l 288 708 l 400 92 l 525 114 q 558 110 543 121 q 580 82 574 99 q 581 47 586 65 q 552 19 575 28 l 187 -46 q 158 -35 171 -49 q 140 -3 145 -22 q 143 32 136 15 q 175 53 151 49 l 293 73 l 297 75 m 335 940 q 342 911 346 929 q 325 879 338 892 q 294 861 312 865 q 258 876 275 857 l 172 971 q 158 1001 156 983 q 173 1033 160 1019 q 205 1052 186 1047 q 245 1042 225 1057 l 335 940 z "},"Ī":{"ha":605,"x_min":9,"x_max":586,"o":"m 297 75 l 182 689 l 65 666 q 28 675 41 662 q 12 708 15 689 q 17 744 9 727 q 41 764 24 761 l 406 830 q 441 814 430 830 q 453 781 453 799 q 443 747 453 762 q 412 731 433 731 l 288 708 l 400 92 l 525 114 q 558 110 543 121 q 580 82 574 99 q 581 47 586 65 q 552 19 575 28 l 187 -46 q 158 -35 171 -49 q 140 -3 145 -22 q 143 32 136 15 q 175 53 151 49 l 293 73 l 297 75 m 414 968 q 448 946 438 964 q 457 909 458 928 q 444 877 456 891 q 412 867 431 863 l 85 864 q 50 880 60 864 q 41 914 39 895 q 52 949 42 933 q 79 964 62 964 l 414 968 z "},"İ":{"ha":601,"x_min":9,"x_max":586,"o":"m 297 75 l 182 689 l 65 666 q 28 675 41 662 q 12 708 15 689 q 17 744 9 727 q 41 764 24 761 l 406 830 q 441 814 430 830 q 453 781 453 799 q 443 747 453 762 q 412 731 433 731 l 288 708 l 400 92 l 525 114 q 558 110 543 121 q 580 82 574 99 q 581 47 586 65 q 552 19 575 28 l 187 -46 q 158 -35 171 -49 q 140 -3 145 -22 q 143 32 136 15 q 175 53 151 49 l 293 73 l 297 75 m 129 917 q 146 960 129 943 q 189 978 163 978 q 232 960 214 978 q 250 917 250 943 q 232 874 250 891 q 189 857 214 857 q 146 874 163 857 q 129 917 129 891 z "},"Į":{"ha":608,"x_min":9,"x_max":586,"o":"m 297 75 l 182 689 l 65 666 q 28 675 41 662 q 12 708 15 689 q 17 744 9 727 q 41 764 24 761 l 406 830 q 441 814 430 830 q 453 781 453 799 q 443 747 453 762 q 412 731 433 731 l 288 708 l 400 92 l 525 114 q 558 110 543 121 q 580 82 574 99 q 581 47 586 65 q 552 19 575 28 l 521 14 q 509 -15 513 1 q 508 -50 506 -31 q 519 -87 510 -68 q 549 -122 529 -106 q 556 -153 562 -137 q 536 -177 551 -168 q 503 -184 522 -186 q 467 -165 483 -183 q 420 -84 431 -126 q 416 -5 410 -42 l 187 -46 q 158 -35 171 -49 q 140 -3 145 -22 q 143 32 136 15 q 175 53 151 49 l 293 73 l 297 75 z "},"Ĩ":{"ha":608,"x_min":9,"x_max":586,"o":"m 297 75 l 182 689 l 65 666 q 28 675 41 662 q 12 708 15 689 q 17 744 9 727 q 41 764 24 761 l 406 830 q 441 814 430 830 q 453 781 453 799 q 443 747 453 762 q 412 731 433 731 l 288 708 l 400 92 l 525 114 q 558 110 543 121 q 580 82 574 99 q 581 47 586 65 q 552 19 575 28 l 187 -46 q 158 -35 171 -49 q 140 -3 145 -22 q 143 32 136 15 q 175 53 151 49 l 293 73 l 297 75 m 384 1043 q 405 1067 389 1061 q 437 1071 420 1074 q 465 1054 453 1067 q 475 1017 476 1040 q 435 924 469 960 q 357 886 400 888 q 298 899 321 883 q 254 935 274 916 q 213 968 233 954 q 167 979 193 983 q 138 959 146 977 q 121 911 130 941 q 96 884 113 888 q 63 888 79 880 q 39 915 47 897 q 38 955 30 933 q 85 1036 57 1002 q 161 1069 114 1070 q 226 1054 201 1069 q 269 1022 251 1039 q 305 991 288 1005 q 347 977 323 977 q 376 996 369 977 q 384 1043 382 1015 z "},"Ĵ":{"ha":776,"x_min":20,"x_max":753,"o":"m 123 273 q 183 160 142 205 q 277 113 224 115 q 342 140 315 110 q 387 219 369 170 q 416 334 406 269 q 434 468 427 399 q 444 606 441 537 q 452 731 448 674 l 271 747 q 238 766 247 749 q 231 801 229 783 q 245 834 233 819 q 273 848 256 849 l 713 814 q 745 789 738 807 q 748 754 753 772 q 729 724 743 736 q 696 716 715 712 l 560 726 q 555 577 557 658 q 542 416 552 496 q 514 260 532 335 q 465 126 496 184 q 385 34 433 68 q 270 1 338 0 q 193 20 229 3 q 125 67 156 38 q 71 136 95 96 q 31 222 47 176 q 31 268 20 248 q 59 297 41 288 q 96 302 77 307 q 123 273 115 297 m 483 1024 q 511 1047 495 1040 q 542 1053 526 1054 q 571 1044 557 1053 q 594 1024 585 1036 l 658 930 q 656 902 663 917 q 637 878 650 887 q 609 870 625 869 q 579 887 593 871 l 537 945 l 498 888 q 471 871 487 872 q 442 878 456 871 q 420 899 429 886 q 418 926 412 913 l 483 1024 z "},"Ķ":{"ha":642,"x_min":18,"x_max":631,"o":"m 18 730 q 37 766 19 754 q 75 777 54 777 q 110 767 95 777 q 123 741 125 757 l 155 438 l 449 806 q 490 810 471 818 q 521 785 509 802 q 534 748 533 768 q 519 720 534 728 l 301 457 l 616 85 q 630 58 629 77 q 622 21 631 38 q 596 -4 613 4 q 557 1 579 -12 l 233 376 q 186 319 198 335 q 167 302 174 302 l 198 -3 q 185 -40 199 -28 q 152 -52 171 -52 q 116 -44 133 -53 q 98 -19 99 -35 l 18 730 m 255 -20 q 245 9 241 -8 q 263 37 250 26 q 295 51 277 49 q 330 35 313 53 q 359 -15 347 16 q 372 -82 370 -46 q 361 -157 373 -118 q 320 -228 350 -195 q 284 -247 304 -245 q 250 -239 264 -248 q 231 -215 236 -231 q 237 -184 225 -199 q 269 -141 259 -165 q 279 -94 279 -117 q 273 -51 279 -71 q 255 -20 266 -31 z "},"Ĺ":{"ha":594,"x_min":34,"x_max":536,"o":"m 183 811 q 212 838 193 834 q 251 833 232 841 q 281 810 270 826 q 286 779 293 795 l 144 121 l 507 47 q 533 18 530 38 q 526 -19 536 -1 q 500 -47 517 -37 q 468 -52 484 -58 l 104 23 q 78 31 92 26 q 54 45 64 37 q 39 70 43 54 q 38 109 34 85 l 183 811 m 437 1029 q 477 1041 457 1044 q 509 1025 496 1038 q 523 994 521 1012 q 510 959 525 975 l 425 864 q 389 849 407 845 q 357 867 370 853 q 340 899 345 880 q 347 928 336 917 l 437 1029 z "},"Ľ":{"ha":594,"x_min":34,"x_max":536,"o":"m 183 811 q 212 838 193 834 q 251 833 232 841 q 281 810 270 826 q 286 779 293 795 l 144 121 l 507 47 q 533 18 530 38 q 526 -19 536 -1 q 500 -47 517 -37 q 468 -52 484 -58 l 104 23 q 78 31 92 26 q 54 45 64 37 q 39 70 43 54 q 38 109 34 85 l 183 811 m 354 666 q 345 695 340 678 q 362 724 349 712 q 394 737 376 735 q 429 722 412 739 q 458 671 446 703 q 471 604 469 640 q 460 530 472 568 q 419 458 449 491 q 383 439 403 441 q 349 447 363 438 q 330 471 335 456 q 336 502 324 487 q 368 545 358 521 q 378 593 378 570 q 372 635 378 616 q 354 666 365 655 z "},"Ļ":{"ha":594,"x_min":34,"x_max":536,"o":"m 183 811 q 212 838 193 834 q 251 833 232 841 q 281 810 270 826 q 286 779 293 795 l 144 121 l 507 47 q 533 18 530 38 q 526 -19 536 -1 q 500 -47 517 -37 q 468 -52 484 -58 l 104 23 q 78 31 92 26 q 54 45 64 37 q 39 70 43 54 q 38 109 34 85 l 183 811 m 237 -100 q 228 -71 224 -88 q 245 -43 232 -54 q 277 -29 259 -31 q 312 -45 296 -27 q 341 -95 330 -64 q 354 -162 353 -126 q 344 -237 355 -198 q 302 -308 332 -275 q 267 -327 286 -326 q 233 -319 247 -328 q 213 -295 218 -311 q 220 -264 208 -279 q 252 -221 241 -245 q 262 -174 262 -197 q 255 -131 262 -151 q 237 -100 248 -111 z "},"Ŀ":{"ha":594,"x_min":34,"x_max":536,"o":"m 183 811 q 212 838 193 834 q 251 833 232 841 q 281 810 270 826 q 286 779 293 795 l 144 121 l 507 47 q 533 18 530 38 q 526 -19 536 -1 q 500 -47 517 -37 q 468 -52 484 -58 l 104 23 q 78 31 92 26 q 54 45 64 37 q 39 70 43 54 q 38 109 34 85 l 183 811 m 316 414 q 333 457 316 439 q 376 475 350 475 q 419 457 401 475 q 437 414 437 439 q 419 371 437 388 q 376 354 401 354 q 333 371 350 354 q 316 414 316 388 z "},"Ł":{"ha":654,"x_min":27,"x_max":595,"o":"m 140 312 l 100 286 q 62 280 79 273 q 36 304 45 288 q 27 340 27 321 q 41 368 27 359 l 168 453 l 243 811 q 272 838 252 834 q 311 833 292 841 q 341 810 330 826 q 346 779 353 795 l 293 536 l 319 553 q 360 553 342 563 q 387 528 378 544 q 393 493 396 511 q 373 468 391 475 l 262 395 l 203 121 l 567 47 q 593 18 590 38 q 586 -19 595 -1 q 560 -47 576 -37 q 528 -52 544 -58 l 164 23 q 138 31 152 26 q 113 45 123 37 q 98 70 103 54 q 98 109 94 85 l 140 312 z "},"Ń":{"ha":722,"x_min":20,"x_max":697,"o":"m 220 621 l 123 52 q 102 20 119 27 q 66 16 84 12 q 34 33 47 20 q 23 62 20 46 l 146 819 q 168 846 152 838 q 201 852 183 854 q 234 841 218 850 q 255 817 250 831 l 495 172 l 589 742 q 616 771 597 765 q 653 772 635 777 q 684 753 671 768 q 693 722 697 739 l 566 -28 q 549 -52 563 -45 q 517 -57 534 -58 q 485 -47 500 -56 q 465 -26 469 -39 l 220 621 m 454 1031 q 494 1042 475 1046 q 526 1026 514 1039 q 541 995 538 1013 q 528 960 543 977 l 442 865 q 406 850 425 846 q 375 868 388 854 q 358 900 362 882 q 365 929 354 918 l 454 1031 z "},"Ň":{"ha":722,"x_min":20,"x_max":697,"o":"m 220 621 l 123 52 q 102 20 119 27 q 66 16 84 12 q 34 33 47 20 q 23 62 20 46 l 146 819 q 168 846 152 838 q 201 852 183 854 q 234 841 218 850 q 255 817 250 831 l 495 172 l 589 742 q 616 771 597 765 q 653 772 635 777 q 684 753 671 768 q 693 722 697 739 l 566 -28 q 549 -52 563 -45 q 517 -57 534 -58 q 485 -47 500 -56 q 465 -26 469 -39 l 220 621 m 496 890 q 469 867 484 873 q 437 861 453 860 q 408 869 422 861 q 385 890 395 878 l 321 983 q 323 1012 316 997 q 342 1036 330 1027 q 370 1044 354 1044 q 400 1027 385 1043 l 442 968 l 481 1025 q 507 1042 491 1042 q 537 1036 524 1043 q 559 1015 551 1028 q 562 987 567 1001 l 496 890 z "},"Ņ":{"ha":726,"x_min":20,"x_max":697,"o":"m 220 621 l 123 52 q 102 20 119 27 q 66 16 84 12 q 34 33 47 20 q 23 62 20 46 l 146 819 q 168 846 152 838 q 201 852 183 854 q 234 841 218 850 q 255 817 250 831 l 495 172 l 589 742 q 616 771 597 765 q 653 772 635 777 q 684 753 671 768 q 693 722 697 739 l 566 -28 q 549 -52 563 -45 q 517 -57 534 -58 q 485 -47 500 -56 q 465 -26 469 -39 l 220 621 m 267 -53 q 258 -24 254 -41 q 275 5 262 -7 q 307 18 289 16 q 342 3 326 20 q 371 -47 359 -16 q 384 -115 382 -79 q 374 -189 385 -151 q 332 -260 362 -228 q 296 -279 316 -278 q 262 -272 277 -281 q 243 -248 248 -263 q 250 -217 237 -232 q 281 -174 271 -198 q 292 -126 292 -149 q 285 -83 292 -103 q 267 -53 278 -64 z "},"Ñ":{"ha":751,"x_min":20,"x_max":697,"o":"m 220 621 l 123 52 q 102 20 119 27 q 66 16 84 12 q 34 33 47 20 q 23 62 20 46 l 146 819 q 168 846 152 838 q 201 852 183 854 q 234 841 218 850 q 255 817 250 831 l 495 172 l 589 742 q 616 771 597 765 q 653 772 635 777 q 684 753 671 768 q 693 722 697 739 l 566 -28 q 549 -52 563 -45 q 517 -57 534 -58 q 485 -47 500 -56 q 465 -26 469 -39 l 220 621 m 593 1021 q 614 1046 598 1039 q 646 1049 629 1053 q 673 1032 662 1046 q 684 996 685 1019 q 644 903 678 939 q 566 864 609 867 q 507 878 530 861 q 463 913 483 894 q 422 947 442 932 q 376 958 401 962 q 347 937 355 955 q 330 890 339 920 q 304 863 321 867 q 272 867 288 859 q 248 893 256 875 q 247 933 239 911 q 294 1015 266 981 q 370 1047 323 1048 q 435 1032 410 1047 q 478 1000 460 1017 q 514 969 496 983 q 556 955 532 955 q 585 974 578 955 q 593 1021 591 993 z "},"Ó":{"ha":700,"x_min":42,"x_max":673,"o":"m 76 486 q 152 634 104 568 q 256 742 199 700 q 376 799 313 784 q 496 793 438 814 q 595 724 555 773 q 654 606 635 674 q 669 456 673 537 q 637 292 666 374 q 562 144 609 209 q 459 41 515 80 q 342 -12 403 1 q 222 -4 281 -24 q 123 64 164 16 q 62 178 83 113 q 45 323 42 244 q 76 486 47 403 m 168 445 q 145 328 148 385 q 155 224 142 271 q 193 142 167 176 q 258 95 220 107 q 336 92 296 81 q 416 134 377 103 q 487 211 454 164 q 540 317 519 258 q 564 437 560 376 q 557 549 568 498 q 522 639 547 601 q 458 690 496 677 q 378 689 420 704 q 296 640 335 674 q 222 554 256 605 q 168 445 189 503 m 351 1042 q 391 1053 372 1057 q 423 1037 411 1050 q 437 1006 435 1024 q 425 971 439 987 l 339 876 q 303 861 321 857 q 272 879 285 865 q 255 911 259 892 q 262 940 251 929 l 351 1042 z "},"Ŏ":{"ha":700,"x_min":42,"x_max":673,"o":"m 76 486 q 152 634 104 568 q 256 742 199 700 q 376 799 313 784 q 496 793 438 814 q 595 724 555 773 q 654 606 635 674 q 669 456 673 537 q 637 292 666 374 q 562 144 609 209 q 459 41 515 80 q 342 -12 403 1 q 222 -4 281 -24 q 123 64 164 16 q 62 178 83 113 q 45 323 42 244 q 76 486 47 403 m 168 445 q 145 328 148 385 q 155 224 142 271 q 193 142 167 176 q 258 95 220 107 q 336 92 296 81 q 416 134 377 103 q 487 211 454 164 q 540 317 519 258 q 564 437 560 376 q 557 549 568 498 q 522 639 547 601 q 458 690 496 677 q 378 689 420 704 q 296 640 335 674 q 222 554 256 605 q 168 445 189 503 m 530 998 q 555 1016 538 1015 q 585 1009 571 1017 q 605 985 598 1001 q 602 951 612 970 q 538 886 579 907 q 452 866 496 865 q 366 887 407 867 q 300 948 324 907 q 294 983 288 968 q 315 1006 301 998 q 344 1012 328 1013 q 363 998 359 1010 q 405 952 380 966 q 454 941 430 939 q 500 958 479 943 q 530 998 521 972 z "},"Ô":{"ha":700,"x_min":42,"x_max":673,"o":"m 76 486 q 152 634 104 568 q 256 742 199 700 q 376 799 313 784 q 496 793 438 814 q 595 724 555 773 q 654 606 635 674 q 669 456 673 537 q 637 292 666 374 q 562 144 609 209 q 459 41 515 80 q 342 -12 403 1 q 222 -4 281 -24 q 123 64 164 16 q 62 178 83 113 q 45 323 42 244 q 76 486 47 403 m 168 445 q 145 328 148 385 q 155 224 142 271 q 193 142 167 176 q 258 95 220 107 q 336 92 296 81 q 416 134 377 103 q 487 211 454 164 q 540 317 519 258 q 564 437 560 376 q 557 549 568 498 q 522 639 547 601 q 458 690 496 677 q 378 689 420 704 q 296 640 335 674 q 222 554 256 605 q 168 445 189 503 m 368 1009 q 395 1032 380 1025 q 427 1038 411 1039 q 456 1029 442 1038 q 479 1009 469 1021 l 543 916 q 541 887 548 902 q 522 863 534 872 q 494 855 510 854 q 464 872 477 856 l 422 930 l 382 873 q 356 857 372 857 q 327 863 340 856 q 305 884 313 871 q 302 911 297 898 l 368 1009 z "},"Ò":{"ha":700,"x_min":42,"x_max":673,"o":"m 76 486 q 152 634 104 568 q 256 742 199 700 q 376 799 313 784 q 496 793 438 814 q 595 724 555 773 q 654 606 635 674 q 669 456 673 537 q 637 292 666 374 q 562 144 609 209 q 459 41 515 80 q 342 -12 403 1 q 222 -4 281 -24 q 123 64 164 16 q 62 178 83 113 q 45 323 42 244 q 76 486 47 403 m 168 445 q 145 328 148 385 q 155 224 142 271 q 193 142 167 176 q 258 95 220 107 q 336 92 296 81 q 416 134 377 103 q 487 211 454 164 q 540 317 519 258 q 564 437 560 376 q 557 549 568 498 q 522 639 547 601 q 458 690 496 677 q 378 689 420 704 q 296 640 335 674 q 222 554 256 605 q 168 445 189 503 m 549 940 q 556 911 560 929 q 539 879 552 892 q 508 861 526 865 q 472 876 490 857 l 387 971 q 372 1001 370 983 q 387 1033 374 1019 q 420 1052 400 1047 q 460 1042 439 1057 l 549 940 z "},"Ö":{"ha":700,"x_min":42,"x_max":673,"o":"m 76 486 q 152 634 104 568 q 256 742 199 700 q 376 799 313 784 q 496 793 438 814 q 595 724 555 773 q 654 606 635 674 q 669 456 673 537 q 637 292 666 374 q 562 144 609 209 q 459 41 515 80 q 342 -12 403 1 q 222 -4 281 -24 q 123 64 164 16 q 62 178 83 113 q 45 323 42 244 q 76 486 47 403 m 168 445 q 145 328 148 385 q 155 224 142 271 q 193 142 167 176 q 258 95 220 107 q 336 92 296 81 q 416 134 377 103 q 487 211 454 164 q 540 317 519 258 q 564 437 560 376 q 557 549 568 498 q 522 639 547 601 q 458 690 496 677 q 378 689 420 704 q 296 640 335 674 q 222 554 256 605 q 168 445 189 503 m 294 901 q 311 944 294 926 q 354 962 328 962 q 397 944 380 962 q 415 901 415 926 q 397 858 415 875 q 354 841 380 841 q 311 858 328 841 q 294 901 294 875 m 465 901 q 482 944 465 926 q 525 962 499 962 q 568 944 551 962 q 586 901 586 926 q 568 858 586 875 q 525 841 551 841 q 482 858 499 841 q 465 901 465 875 z "},"Ō":{"ha":700,"x_min":42,"x_max":673,"o":"m 76 486 q 152 634 104 568 q 256 742 199 700 q 376 799 313 784 q 496 793 438 814 q 595 724 555 773 q 654 606 635 674 q 669 456 673 537 q 637 292 666 374 q 562 144 609 209 q 459 41 515 80 q 342 -12 403 1 q 222 -4 281 -24 q 123 64 164 16 q 62 178 83 113 q 45 323 42 244 q 76 486 47 403 m 168 445 q 145 328 148 385 q 155 224 142 271 q 193 142 167 176 q 258 95 220 107 q 336 92 296 81 q 416 134 377 103 q 487 211 454 164 q 540 317 519 258 q 564 437 560 376 q 557 549 568 498 q 522 639 547 601 q 458 690 496 677 q 378 689 420 704 q 296 640 335 674 q 222 554 256 605 q 168 445 189 503 m 600 975 q 634 953 624 971 q 643 916 644 935 q 629 884 642 898 q 598 873 617 869 l 271 871 q 235 886 245 871 q 227 921 225 902 q 238 956 228 940 q 264 971 248 971 l 600 975 z "},"Ő":{"ha":700,"x_min":42,"x_max":673,"o":"m 76 486 q 152 634 104 568 q 256 742 199 700 q 376 799 313 784 q 496 793 438 814 q 595 724 555 773 q 654 606 635 674 q 669 456 673 537 q 637 292 666 374 q 562 144 609 209 q 459 41 515 80 q 342 -12 403 1 q 222 -4 281 -24 q 123 64 164 16 q 62 178 83 113 q 45 323 42 244 q 76 486 47 403 m 168 445 q 145 328 148 385 q 155 224 142 271 q 193 142 167 176 q 258 95 220 107 q 336 92 296 81 q 416 134 377 103 q 487 211 454 164 q 540 317 519 258 q 564 437 560 376 q 557 549 568 498 q 522 639 547 601 q 458 690 496 677 q 378 689 420 704 q 296 640 335 674 q 222 554 256 605 q 168 445 189 503 m 392 1031 q 432 1041 412 1046 q 465 1022 452 1036 q 479 990 477 1008 q 465 960 481 972 l 380 865 q 344 850 362 846 q 313 868 326 854 q 296 900 300 882 q 302 929 292 918 l 392 1031 m 567 1031 q 607 1041 587 1046 q 640 1022 627 1036 q 654 990 652 1008 q 640 960 656 972 l 555 865 q 519 850 537 846 q 488 868 500 854 q 471 900 475 882 q 477 929 467 918 l 567 1031 z "},"Ø":{"ha":700,"x_min":42,"x_max":673,"o":"m 76 486 q 152 634 104 568 q 256 742 199 700 q 376 799 313 784 q 496 793 438 814 q 595 724 555 773 q 654 606 635 674 q 669 456 673 537 q 637 292 666 374 q 562 144 609 209 q 459 41 515 80 q 342 -12 403 1 q 222 -4 281 -24 q 123 64 164 16 q 62 178 83 113 q 45 323 42 244 q 76 486 47 403 m 168 445 q 145 328 148 385 q 155 224 142 271 q 193 142 167 176 q 258 95 220 107 q 336 92 296 81 q 416 134 377 103 q 487 211 454 164 q 540 317 519 258 q 564 437 560 376 q 557 549 568 498 q 522 639 547 601 q 458 690 496 677 q 378 689 420 704 q 296 640 335 674 q 222 554 256 605 q 168 445 189 503 m 469 807 q 503 829 483 827 q 540 821 524 830 q 566 795 556 812 q 567 762 575 779 l 222 12 q 193 -14 212 -11 q 159 -9 175 -18 q 132 16 142 0 q 129 46 122 31 l 469 807 z "},"Ǿ":{"ha":700,"x_min":42,"x_max":673,"o":"m 76 486 q 152 634 104 568 q 256 742 199 700 q 376 799 313 784 q 496 793 438 814 q 595 724 555 773 q 654 606 635 674 q 669 456 673 537 q 637 292 666 374 q 562 144 609 209 q 459 41 515 80 q 342 -12 403 1 q 222 -4 281 -24 q 123 64 164 16 q 62 178 83 113 q 45 323 42 244 q 76 486 47 403 m 168 445 q 145 328 148 385 q 155 224 142 271 q 193 142 167 176 q 258 95 220 107 q 336 92 296 81 q 416 134 377 103 q 487 211 454 164 q 540 317 519 258 q 564 437 560 376 q 557 549 568 498 q 522 639 547 601 q 458 690 496 677 q 378 689 420 704 q 296 640 335 674 q 222 554 256 605 q 168 445 189 503 m 469 807 q 503 829 483 827 q 540 821 524 830 q 566 795 556 812 q 567 762 575 779 l 222 12 q 193 -14 212 -11 q 159 -9 175 -18 q 132 16 142 0 q 129 46 122 31 l 469 807 m 351 1042 q 391 1053 372 1057 q 423 1037 411 1050 q 437 1006 435 1024 q 425 971 439 987 l 339 876 q 303 861 321 857 q 272 879 285 865 q 255 911 259 892 q 262 940 251 929 l 351 1042 z "},"Õ":{"ha":700,"x_min":42,"x_max":673,"o":"m 76 486 q 152 634 104 568 q 256 742 199 700 q 376 799 313 784 q 496 793 438 814 q 595 724 555 773 q 654 606 635 674 q 669 456 673 537 q 637 292 666 374 q 562 144 609 209 q 459 41 515 80 q 342 -12 403 1 q 222 -4 281 -24 q 123 64 164 16 q 62 178 83 113 q 45 323 42 244 q 76 486 47 403 m 168 445 q 145 328 148 385 q 155 224 142 271 q 193 142 167 176 q 258 95 220 107 q 336 92 296 81 q 416 134 377 103 q 487 211 454 164 q 540 317 519 258 q 564 437 560 376 q 557 549 568 498 q 522 639 547 601 q 458 690 496 677 q 378 689 420 704 q 296 640 335 674 q 222 554 256 605 q 168 445 189 503 m 541 1010 q 562 1035 547 1028 q 594 1038 578 1042 q 622 1021 610 1035 q 632 985 633 1008 q 592 892 627 928 q 514 853 557 856 q 455 867 479 850 q 411 902 431 883 q 370 936 391 921 q 324 947 350 951 q 296 926 304 944 q 278 879 288 909 q 253 852 270 856 q 220 856 236 848 q 196 882 205 864 q 195 922 187 901 q 243 1004 214 970 q 319 1036 271 1038 q 383 1021 358 1036 q 427 989 408 1006 q 463 958 445 972 q 505 944 480 944 q 533 963 526 944 q 541 1010 540 982 z "},"Œ":{"ha":887,"x_min":24,"x_max":834,"o":"m 724 -34 q 561 -20 628 -26 q 448 -11 494 -15 q 376 -4 403 -7 q 333 1 349 -1 q 309 4 317 3 q 294 7 301 5 q 165 56 218 14 q 79 161 111 98 q 35 302 46 224 q 35 460 24 381 q 75 614 45 540 q 154 745 104 689 q 272 830 203 800 q 429 852 340 860 l 792 815 q 825 796 817 812 q 831 762 834 780 q 817 728 829 743 q 789 715 806 713 l 437 743 l 414 490 l 647 467 q 682 448 673 464 q 687 413 690 431 q 672 380 684 395 q 644 366 661 365 l 406 384 l 381 102 l 727 68 q 760 49 751 65 q 766 14 769 33 q 752 -20 764 -5 q 724 -34 741 -35 m 136 430 q 139 321 130 373 q 168 227 148 269 q 216 155 187 184 q 279 115 244 126 l 328 736 q 260 702 293 730 q 202 633 228 674 q 159 539 176 591 q 136 430 141 487 z "},"Ŕ":{"ha":663,"x_min":38,"x_max":644,"o":"m 251 11 q 231 -14 245 -5 q 199 -24 216 -23 q 169 -20 183 -26 q 153 -1 155 -15 l 46 699 q 62 784 38 749 q 130 826 85 819 q 186 836 151 830 q 262 842 221 841 q 347 838 304 844 q 428 812 391 831 q 493 755 465 792 q 532 661 521 719 q 532 596 537 628 q 513 536 526 564 q 480 484 499 507 q 439 444 461 460 l 636 95 q 631 62 644 76 q 597 42 617 49 q 557 37 576 35 q 533 50 537 38 l 334 408 q 253 387 293 392 q 193 384 213 382 l 251 11 m 435 647 q 406 697 431 674 q 341 732 381 720 q 250 744 301 745 q 140 723 198 743 l 178 481 q 262 490 214 483 q 350 517 309 498 q 416 567 391 536 q 435 647 442 598 m 302 1042 q 342 1053 323 1057 q 374 1037 362 1050 q 389 1006 387 1024 q 376 971 391 987 l 290 876 q 254 861 273 857 q 223 879 236 865 q 206 911 210 892 q 213 940 202 929 l 302 1042 z "},"Ř":{"ha":652,"x_min":38,"x_max":644,"o":"m 251 11 q 231 -14 245 -5 q 199 -24 216 -23 q 169 -20 183 -26 q 153 -1 155 -15 l 46 699 q 62 784 38 749 q 130 826 85 819 q 186 836 151 830 q 262 842 221 841 q 347 838 304 844 q 428 812 391 831 q 493 755 465 792 q 532 661 521 719 q 532 596 537 628 q 513 536 526 564 q 480 484 499 507 q 439 444 461 460 l 636 95 q 631 62 644 76 q 597 42 617 49 q 557 37 576 35 q 533 50 537 38 l 334 408 q 253 387 293 392 q 193 384 213 382 l 251 11 m 435 647 q 406 697 431 674 q 341 732 381 720 q 250 744 301 745 q 140 723 198 743 l 178 481 q 262 490 214 483 q 350 517 309 498 q 416 567 391 536 q 435 647 442 598 m 278 918 q 250 895 266 902 q 219 889 235 888 q 190 898 203 890 q 167 918 176 906 l 103 1012 q 104 1040 98 1025 q 123 1064 111 1055 q 151 1072 136 1073 q 182 1055 167 1072 l 224 997 l 263 1054 q 289 1071 273 1070 q 319 1064 305 1072 q 340 1043 332 1057 q 343 1016 349 1029 l 278 918 z "},"Ŗ":{"ha":666,"x_min":38,"x_max":644,"o":"m 251 11 q 231 -14 245 -5 q 199 -24 216 -23 q 169 -20 183 -26 q 153 -1 155 -15 l 46 699 q 62 784 38 749 q 130 826 85 819 q 186 836 151 830 q 262 842 221 841 q 347 838 304 844 q 428 812 391 831 q 493 755 465 792 q 532 661 521 719 q 532 596 537 628 q 513 536 526 564 q 480 484 499 507 q 439 444 461 460 l 636 95 q 631 62 644 76 q 597 42 617 49 q 557 37 576 35 q 533 50 537 38 l 334 408 q 253 387 293 392 q 193 384 213 382 l 251 11 m 435 647 q 406 697 431 674 q 341 732 381 720 q 250 744 301 745 q 140 723 198 743 l 178 481 q 262 490 214 483 q 350 517 309 498 q 416 567 391 536 q 435 647 442 598 m 324 -84 q 315 -55 311 -72 q 332 -26 319 -38 q 364 -13 346 -15 q 399 -28 382 -11 q 428 -79 416 -47 q 441 -146 439 -110 q 431 -220 442 -182 q 389 -292 419 -259 q 353 -311 373 -309 q 319 -303 334 -312 q 300 -279 305 -294 q 307 -248 294 -263 q 338 -205 328 -229 q 349 -157 349 -180 q 342 -115 349 -134 q 324 -84 335 -95 z "},"Ś":{"ha":616,"x_min":16,"x_max":582,"o":"m 576 610 q 568 576 582 590 q 536 559 555 563 q 500 562 518 555 q 481 587 483 568 q 464 654 479 628 q 429 694 449 680 q 390 715 410 709 q 361 724 370 722 q 298 728 327 732 q 246 712 269 724 q 209 682 224 700 q 189 643 194 663 q 189 570 178 600 q 225 517 199 540 q 288 473 251 494 q 366 430 326 453 q 443 378 406 406 q 505 317 480 351 q 540 237 530 282 q 533 133 549 191 q 479 32 517 71 q 393 -25 441 -7 q 290 -43 345 -43 q 187 -24 236 -42 q 73 49 121 -1 q 16 170 24 99 q 36 208 19 194 q 71 224 53 221 q 105 219 90 227 q 121 191 121 212 q 155 111 119 142 q 237 65 190 79 q 297 57 267 57 q 353 68 327 57 q 400 100 380 79 q 431 156 420 122 q 435 222 442 194 q 409 275 429 251 q 359 318 389 298 q 296 358 330 338 q 210 409 254 382 q 135 471 167 435 q 90 553 103 506 q 92 663 76 600 q 136 749 106 713 q 205 803 165 784 q 290 827 245 822 q 378 823 335 831 q 434 804 403 818 q 494 766 465 791 q 546 703 524 741 q 576 610 568 665 m 410 1053 q 450 1064 430 1067 q 481 1048 469 1061 q 496 1017 494 1035 q 483 982 498 998 l 397 887 q 361 872 380 868 q 330 890 343 876 q 313 922 317 903 q 320 951 309 940 l 410 1053 z "},"Š":{"ha":582,"x_min":16,"x_max":582,"o":"m 576 610 q 568 576 582 590 q 536 559 555 563 q 500 562 518 555 q 481 587 483 568 q 464 654 479 628 q 429 694 449 680 q 390 715 410 709 q 361 724 370 722 q 298 728 327 732 q 246 712 269 724 q 209 682 224 700 q 189 643 194 663 q 189 570 178 600 q 225 517 199 540 q 288 473 251 494 q 366 430 326 453 q 443 378 406 406 q 505 317 480 351 q 540 237 530 282 q 533 133 549 191 q 479 32 517 71 q 393 -25 441 -7 q 290 -43 345 -43 q 187 -24 236 -42 q 73 49 121 -1 q 16 170 24 99 q 36 208 19 194 q 71 224 53 221 q 105 219 90 227 q 121 191 121 212 q 155 111 119 142 q 237 65 190 79 q 297 57 267 57 q 353 68 327 57 q 400 100 380 79 q 431 156 420 122 q 435 222 442 194 q 409 275 429 251 q 359 318 389 298 q 296 358 330 338 q 210 409 254 382 q 135 471 167 435 q 90 553 103 506 q 92 663 76 600 q 136 749 106 713 q 205 803 165 784 q 290 827 245 822 q 378 823 335 831 q 434 804 403 818 q 494 766 465 791 q 546 703 524 741 q 576 610 568 665 m 346 886 q 318 863 334 869 q 287 857 302 856 q 258 865 271 857 q 235 886 244 873 l 171 979 q 172 1008 165 993 q 191 1031 179 1023 q 219 1040 203 1040 q 250 1023 235 1039 l 292 964 l 331 1021 q 357 1038 340 1038 q 387 1031 373 1039 q 408 1010 400 1024 q 411 983 416 997 l 346 886 z "},"Ş":{"ha":582,"x_min":16,"x_max":582,"o":"m 576 610 q 568 576 582 590 q 536 559 555 563 q 500 562 518 555 q 481 587 483 568 q 464 654 479 628 q 429 694 449 680 q 390 715 410 709 q 361 724 370 722 q 298 728 327 732 q 246 712 269 724 q 209 682 224 700 q 189 643 194 663 q 189 570 178 600 q 225 517 199 540 q 288 473 251 494 q 366 430 326 453 q 443 378 406 406 q 505 317 480 351 q 540 237 530 282 q 533 133 549 191 q 479 32 517 71 q 393 -25 441 -7 q 290 -43 345 -43 q 187 -24 236 -42 q 73 49 121 -1 q 16 170 24 99 q 36 208 19 194 q 71 224 53 221 q 105 219 90 227 q 121 191 121 212 q 155 111 119 142 q 237 65 190 79 q 297 57 267 57 q 353 68 327 57 q 400 100 380 79 q 431 156 420 122 q 435 222 442 194 q 409 275 429 251 q 359 318 389 298 q 296 358 330 338 q 210 409 254 382 q 135 471 167 435 q 90 553 103 506 q 92 663 76 600 q 136 749 106 713 q 205 803 165 784 q 290 827 245 822 q 378 823 335 831 q 434 804 403 818 q 494 766 465 791 q 546 703 524 741 q 576 610 568 665 m 294 -16 l 297 -50 q 414 -83 376 -53 q 452 -161 452 -114 q 406 -261 452 -232 q 288 -289 361 -290 q 246 -274 260 -289 q 230 -241 232 -259 q 239 -208 228 -224 q 278 -191 251 -193 q 304 -191 290 -191 q 330 -187 319 -190 q 347 -178 340 -184 q 353 -160 354 -172 q 338 -141 350 -145 q 285 -138 326 -137 q 265 -137 279 -138 q 238 -124 251 -136 q 216 -88 225 -113 q 214 -16 208 -64 l 294 -16 z "},"Ŝ":{"ha":582,"x_min":16,"x_max":582,"o":"m 576 610 q 568 576 582 590 q 536 559 555 563 q 500 562 518 555 q 481 587 483 568 q 464 654 479 628 q 429 694 449 680 q 390 715 410 709 q 361 724 370 722 q 298 728 327 732 q 246 712 269 724 q 209 682 224 700 q 189 643 194 663 q 189 570 178 600 q 225 517 199 540 q 288 473 251 494 q 366 430 326 453 q 443 378 406 406 q 505 317 480 351 q 540 237 530 282 q 533 133 549 191 q 479 32 517 71 q 393 -25 441 -7 q 290 -43 345 -43 q 187 -24 236 -42 q 73 49 121 -1 q 16 170 24 99 q 36 208 19 194 q 71 224 53 221 q 105 219 90 227 q 121 191 121 212 q 155 111 119 142 q 237 65 190 79 q 297 57 267 57 q 353 68 327 57 q 400 100 380 79 q 431 156 420 122 q 435 222 442 194 q 409 275 429 251 q 359 318 389 298 q 296 358 330 338 q 210 409 254 382 q 135 471 167 435 q 90 553 103 506 q 92 663 76 600 q 136 749 106 713 q 205 803 165 784 q 290 827 245 822 q 378 823 335 831 q 434 804 403 818 q 494 766 465 791 q 546 703 524 741 q 576 610 568 665 m 236 1012 q 264 1035 248 1028 q 295 1041 279 1042 q 324 1032 311 1040 q 347 1012 338 1024 l 411 918 q 410 890 416 905 q 391 866 403 875 q 362 858 378 857 q 332 875 346 859 l 290 933 l 251 876 q 224 859 240 860 q 195 866 209 859 q 174 887 182 873 q 171 914 165 901 l 236 1012 z "},"Ș":{"ha":582,"x_min":16,"x_max":582,"o":"m 576 610 q 568 576 582 590 q 536 559 555 563 q 500 562 518 555 q 481 587 483 568 q 464 654 479 628 q 429 694 449 680 q 390 715 410 709 q 361 724 370 722 q 298 728 327 732 q 246 712 269 724 q 209 682 224 700 q 189 643 194 663 q 189 570 178 600 q 225 517 199 540 q 288 473 251 494 q 366 430 326 453 q 443 378 406 406 q 505 317 480 351 q 540 237 530 282 q 533 133 549 191 q 479 32 517 71 q 393 -25 441 -7 q 290 -43 345 -43 q 187 -24 236 -42 q 73 49 121 -1 q 16 170 24 99 q 36 208 19 194 q 71 224 53 221 q 105 219 90 227 q 121 191 121 212 q 155 111 119 142 q 237 65 190 79 q 297 57 267 57 q 353 68 327 57 q 400 100 380 79 q 431 156 420 122 q 435 222 442 194 q 409 275 429 251 q 359 318 389 298 q 296 358 330 338 q 210 409 254 382 q 135 471 167 435 q 90 553 103 506 q 92 663 76 600 q 136 749 106 713 q 205 803 165 784 q 290 827 245 822 q 378 823 335 831 q 434 804 403 818 q 494 766 465 791 q 546 703 524 741 q 576 610 568 665 m 217 -118 q 208 -89 203 -106 q 225 -60 212 -72 q 257 -47 239 -49 q 292 -62 275 -45 q 321 -113 309 -81 q 334 -180 332 -144 q 323 -254 335 -216 q 282 -326 312 -293 q 246 -345 266 -343 q 212 -337 227 -346 q 193 -313 198 -328 q 199 -282 187 -297 q 231 -239 221 -263 q 241 -191 241 -214 q 235 -149 241 -168 q 217 -118 228 -129 z "},"Ŧ":{"ha":681,"x_min":31,"x_max":636,"o":"m 315 551 l 283 682 l 88 637 q 50 645 64 632 q 34 676 37 658 q 38 712 31 694 q 60 734 45 730 l 589 850 q 625 837 613 852 q 635 804 636 822 q 624 769 635 785 q 594 753 613 753 l 388 705 l 422 552 l 532 553 q 566 531 556 549 q 575 494 576 513 q 562 462 574 476 q 530 452 549 448 l 445 450 l 543 19 q 535 -19 548 -5 q 504 -36 522 -33 q 468 -33 486 -39 q 446 -9 450 -26 l 338 450 l 203 449 q 168 465 178 449 q 159 499 157 480 q 170 534 160 518 q 197 549 180 549 l 315 551 z "},"Ť":{"ha":681,"x_min":31,"x_max":636,"o":"m 589 850 q 625 837 613 852 q 635 804 636 822 q 624 769 635 785 q 594 753 613 753 l 388 705 l 543 19 q 535 -19 548 -5 q 504 -36 522 -33 q 468 -33 486 -39 q 446 -9 450 -26 l 283 682 l 88 637 q 50 645 64 632 q 34 676 37 658 q 38 712 31 694 q 60 734 45 730 l 589 850 m 395 886 q 367 863 382 869 q 336 857 351 856 q 307 865 320 857 q 283 886 293 873 l 220 979 q 221 1008 214 993 q 240 1031 228 1023 q 268 1040 252 1040 q 298 1023 283 1039 l 340 964 l 380 1021 q 406 1038 389 1038 q 435 1031 422 1039 q 457 1010 449 1024 q 460 983 465 997 l 395 886 z "},"Ţ":{"ha":681,"x_min":31,"x_max":636,"o":"m 589 850 q 625 837 613 852 q 635 804 636 822 q 624 769 635 785 q 594 753 613 753 l 388 705 l 543 19 q 535 -19 548 -5 q 504 -36 522 -33 q 468 -33 486 -39 q 446 -9 450 -26 l 283 682 l 88 637 q 50 645 64 632 q 34 676 37 658 q 38 712 31 694 q 60 734 45 730 l 589 850 m 468 -172 q 458 -143 454 -160 q 476 -115 463 -126 q 508 -101 490 -103 q 543 -117 526 -99 q 572 -167 560 -136 q 585 -234 583 -198 q 574 -309 586 -270 q 533 -380 563 -347 q 497 -399 517 -397 q 463 -391 477 -400 q 444 -367 449 -382 q 450 -336 438 -351 q 482 -293 472 -317 q 492 -245 492 -269 q 486 -203 492 -222 q 468 -172 479 -183 z "},"Ú":{"ha":618,"x_min":16,"x_max":637,"o":"m 217 803 q 159 528 178 643 q 130 335 140 414 q 132 199 121 248 q 163 123 144 149 q 204 90 183 98 q 235 80 225 83 q 268 76 247 77 q 314 89 289 75 q 368 139 339 103 q 425 248 396 175 q 481 437 454 321 q 532 727 509 553 q 554 760 537 749 q 590 769 571 770 q 623 754 609 768 q 636 712 637 741 q 625 639 632 686 q 608 532 618 591 q 583 405 598 472 q 545 273 567 338 q 494 150 524 208 q 427 50 465 92 q 341 -12 389 8 q 233 -23 293 -33 q 99 37 145 -8 q 35 143 53 81 q 20 278 16 205 q 34 423 23 351 q 64 599 46 502 q 113 817 83 696 q 136 848 118 841 q 174 850 155 854 q 208 831 194 845 q 217 803 221 818 m 453 1017 q 493 1029 473 1032 q 525 1013 513 1025 q 539 981 537 1000 q 526 947 541 963 l 441 852 q 405 837 423 833 q 374 854 387 841 q 357 886 361 868 q 363 916 353 905 l 453 1017 z "},"Ŭ":{"ha":659,"x_min":16,"x_max":637,"o":"m 217 803 q 159 528 178 643 q 130 335 140 414 q 132 199 121 248 q 163 123 144 149 q 204 90 183 98 q 235 80 225 83 q 268 76 247 77 q 314 89 289 75 q 368 139 339 103 q 425 248 396 175 q 481 437 454 321 q 532 727 509 553 q 554 760 537 749 q 590 769 571 770 q 623 754 609 768 q 636 712 637 741 q 625 639 632 686 q 608 532 618 591 q 583 405 598 472 q 545 273 567 338 q 494 150 524 208 q 427 50 465 92 q 341 -12 389 8 q 233 -23 293 -33 q 99 37 145 -8 q 35 143 53 81 q 20 278 16 205 q 34 423 23 351 q 64 599 46 502 q 113 817 83 696 q 136 848 118 841 q 174 850 155 854 q 208 831 194 845 q 217 803 221 818 m 496 998 q 521 1016 505 1015 q 551 1009 537 1017 q 571 985 564 1001 q 568 951 578 970 q 504 886 545 907 q 418 866 463 865 q 332 887 373 867 q 266 948 290 907 q 260 983 254 968 q 281 1006 267 998 q 310 1012 294 1013 q 330 998 326 1010 q 371 952 346 966 q 420 941 396 939 q 466 958 445 943 q 496 998 487 972 z "},"Û":{"ha":618,"x_min":16,"x_max":637,"o":"m 217 803 q 159 528 178 643 q 130 335 140 414 q 132 199 121 248 q 163 123 144 149 q 204 90 183 98 q 235 80 225 83 q 268 76 247 77 q 314 89 289 75 q 368 139 339 103 q 425 248 396 175 q 481 437 454 321 q 532 727 509 553 q 554 760 537 749 q 590 769 571 770 q 623 754 609 768 q 636 712 637 741 q 625 639 632 686 q 608 532 618 591 q 583 405 598 472 q 545 273 567 338 q 494 150 524 208 q 427 50 465 92 q 341 -12 389 8 q 233 -23 293 -33 q 99 37 145 -8 q 35 143 53 81 q 20 278 16 205 q 34 423 23 351 q 64 599 46 502 q 113 817 83 696 q 136 848 118 841 q 174 850 155 854 q 208 831 194 845 q 217 803 221 818 m 381 990 q 409 1013 393 1006 q 440 1019 425 1020 q 469 1010 456 1019 q 492 990 483 1002 l 556 897 q 555 868 562 883 q 536 844 548 853 q 507 836 524 836 q 477 853 491 837 l 435 911 l 396 854 q 370 838 385 838 q 340 844 354 837 q 319 865 327 852 q 316 892 311 879 l 381 990 z "},"Ü":{"ha":618,"x_min":16,"x_max":637,"o":"m 217 803 q 159 528 178 643 q 130 335 140 414 q 132 199 121 248 q 163 123 144 149 q 204 90 183 98 q 235 80 225 83 q 268 76 247 77 q 314 89 289 75 q 368 139 339 103 q 425 248 396 175 q 481 437 454 321 q 532 727 509 553 q 554 760 537 749 q 590 769 571 770 q 623 754 609 768 q 636 712 637 741 q 625 639 632 686 q 608 532 618 591 q 583 405 598 472 q 545 273 567 338 q 494 150 524 208 q 427 50 465 92 q 341 -12 389 8 q 233 -23 293 -33 q 99 37 145 -8 q 35 143 53 81 q 20 278 16 205 q 34 423 23 351 q 64 599 46 502 q 113 817 83 696 q 136 848 118 841 q 174 850 155 854 q 208 831 194 845 q 217 803 221 818 m 275 911 q 292 955 275 937 q 335 972 309 972 q 378 955 361 972 q 396 911 396 937 q 378 869 396 886 q 335 852 361 852 q 292 869 309 852 q 275 911 275 886 m 446 911 q 463 955 446 937 q 506 972 480 972 q 549 955 532 972 q 567 911 567 937 q 549 869 567 886 q 506 852 532 852 q 463 869 480 852 q 446 911 446 886 z "},"Ű":{"ha":663,"x_min":16,"x_max":637,"o":"m 217 803 q 159 528 178 643 q 130 335 140 414 q 132 199 121 248 q 163 123 144 149 q 204 90 183 98 q 235 80 225 83 q 268 76 247 77 q 314 89 289 75 q 368 139 339 103 q 425 248 396 175 q 481 437 454 321 q 532 727 509 553 q 554 760 537 749 q 590 769 571 770 q 623 754 609 768 q 636 712 637 741 q 625 639 632 686 q 608 532 618 591 q 583 405 598 472 q 545 273 567 338 q 494 150 524 208 q 427 50 465 92 q 341 -12 389 8 q 233 -23 293 -33 q 99 37 145 -8 q 35 143 53 81 q 20 278 16 205 q 34 423 23 351 q 64 599 46 502 q 113 817 83 696 q 136 848 118 841 q 174 850 155 854 q 208 831 194 845 q 217 803 221 818 m 328 1029 q 368 1040 349 1044 q 401 1021 388 1035 q 416 989 414 1006 q 401 959 418 971 l 316 864 q 280 849 298 845 q 249 867 262 853 q 232 899 236 880 q 239 928 228 917 l 328 1029 m 503 1029 q 543 1040 524 1044 q 576 1021 563 1035 q 591 989 589 1006 q 576 959 593 971 l 491 864 q 455 849 473 845 q 424 867 437 853 q 407 899 411 880 q 414 928 403 917 l 503 1029 z "},"Ù":{"ha":618,"x_min":16,"x_max":637,"o":"m 217 803 q 159 528 178 643 q 130 335 140 414 q 132 199 121 248 q 163 123 144 149 q 204 90 183 98 q 235 80 225 83 q 268 76 247 77 q 314 89 289 75 q 368 139 339 103 q 425 248 396 175 q 481 437 454 321 q 532 727 509 553 q 554 760 537 749 q 590 769 571 770 q 623 754 609 768 q 636 712 637 741 q 625 639 632 686 q 608 532 618 591 q 583 405 598 472 q 545 273 567 338 q 494 150 524 208 q 427 50 465 92 q 341 -12 389 8 q 233 -23 293 -33 q 99 37 145 -8 q 35 143 53 81 q 20 278 16 205 q 34 423 23 351 q 64 599 46 502 q 113 817 83 696 q 136 848 118 841 q 174 850 155 854 q 208 831 194 845 q 217 803 221 818 m 480 922 q 487 893 491 911 q 470 861 483 875 q 439 844 457 848 q 403 859 420 840 l 317 954 q 303 983 301 966 q 318 1015 305 1001 q 351 1034 331 1029 q 391 1024 370 1039 l 480 922 z "},"Ū":{"ha":659,"x_min":16,"x_max":637,"o":"m 217 803 q 159 528 178 643 q 130 335 140 414 q 132 199 121 248 q 163 123 144 149 q 204 90 183 98 q 235 80 225 83 q 268 76 247 77 q 314 89 289 75 q 368 139 339 103 q 425 248 396 175 q 481 437 454 321 q 532 727 509 553 q 554 760 537 749 q 590 769 571 770 q 623 754 609 768 q 636 712 637 741 q 625 639 632 686 q 608 532 618 591 q 583 405 598 472 q 545 273 567 338 q 494 150 524 208 q 427 50 465 92 q 341 -12 389 8 q 233 -23 293 -33 q 99 37 145 -8 q 35 143 53 81 q 20 278 16 205 q 34 423 23 351 q 64 599 46 502 q 113 817 83 696 q 136 848 118 841 q 174 850 155 854 q 208 831 194 845 q 217 803 221 818 m 541 982 q 576 960 566 978 q 585 923 586 941 q 571 890 583 905 q 540 880 559 876 l 213 878 q 177 893 187 878 q 168 928 167 909 q 180 962 170 947 q 206 978 190 978 l 541 982 z "},"Ų":{"ha":618,"x_min":16,"x_max":637,"o":"m 392 12 q 374 -16 381 1 q 368 -53 368 -33 q 377 -95 368 -73 q 410 -136 387 -117 q 416 -166 422 -151 q 397 -191 411 -182 q 363 -198 382 -199 q 327 -179 343 -197 q 282 -101 293 -141 q 275 -26 271 -61 q 254 -26 264 -26 q 233 -23 244 -26 q 99 37 145 -8 q 35 143 53 81 q 20 278 16 205 q 34 423 23 351 q 64 599 46 502 q 113 817 83 696 q 136 848 118 841 q 174 850 155 854 q 208 831 194 845 q 217 803 221 818 q 159 528 178 643 q 130 335 140 414 q 132 199 121 248 q 163 123 144 149 q 204 90 183 98 q 235 80 225 83 q 268 76 247 77 q 314 89 289 75 q 368 139 339 103 q 425 248 396 175 q 481 437 454 321 q 532 727 509 553 q 554 760 537 749 q 590 769 571 770 q 623 754 609 768 q 636 712 637 741 q 625 633 632 685 q 606 517 617 582 q 576 382 594 453 q 534 243 559 311 q 477 117 510 175 q 400 23 444 60 q 392 12 397 16 z "},"Ů":{"ha":655,"x_min":16,"x_max":637,"o":"m 217 803 q 159 528 178 643 q 130 335 140 414 q 132 199 121 248 q 163 123 144 149 q 204 90 183 98 q 235 80 225 83 q 268 76 247 77 q 314 89 289 75 q 368 139 339 103 q 425 248 396 175 q 481 437 454 321 q 532 727 509 553 q 554 760 537 749 q 590 769 571 770 q 623 754 609 768 q 636 712 637 741 q 625 639 632 686 q 608 532 618 591 q 583 405 598 472 q 545 273 567 338 q 494 150 524 208 q 427 50 465 92 q 341 -12 389 8 q 233 -23 293 -33 q 99 37 145 -8 q 35 143 53 81 q 20 278 16 205 q 34 423 23 351 q 64 599 46 502 q 113 817 83 696 q 136 848 118 841 q 174 850 155 854 q 208 831 194 845 q 217 803 221 818 m 374 936 q 400 910 374 910 q 419 918 411 910 q 427 936 427 925 q 419 955 427 947 q 400 963 411 963 q 382 955 389 963 q 374 936 374 947 m 313 936 q 338 998 313 972 q 400 1024 363 1024 q 463 998 437 1024 q 488 936 488 972 q 463 874 488 899 q 400 849 437 849 q 338 874 363 849 q 313 936 313 899 z "},"Ũ":{"ha":618,"x_min":16,"x_max":637,"o":"m 217 803 q 159 528 178 643 q 130 335 140 414 q 132 199 121 248 q 163 123 144 149 q 204 90 183 98 q 235 80 225 83 q 268 76 247 77 q 314 89 289 75 q 368 139 339 103 q 425 248 396 175 q 481 437 454 321 q 532 727 509 553 q 554 760 537 749 q 590 769 571 770 q 623 754 609 768 q 636 712 637 741 q 625 639 632 686 q 608 532 618 591 q 583 405 598 472 q 545 273 567 338 q 494 150 524 208 q 427 50 465 92 q 341 -12 389 8 q 233 -23 293 -33 q 99 37 145 -8 q 35 143 53 81 q 20 278 16 205 q 34 423 23 351 q 64 599 46 502 q 113 817 83 696 q 136 848 118 841 q 174 850 155 854 q 208 831 194 845 q 217 803 221 818 m 511 1054 q 532 1078 517 1072 q 564 1082 548 1085 q 592 1065 581 1078 q 602 1028 604 1051 q 562 935 597 971 q 484 897 528 899 q 425 910 449 894 q 381 945 401 926 q 340 979 361 964 q 294 990 320 994 q 266 970 274 987 q 248 922 258 952 q 223 895 240 899 q 191 899 206 891 q 166 926 175 907 q 165 966 157 944 q 213 1047 184 1013 q 289 1080 241 1081 q 353 1065 328 1080 q 397 1033 378 1050 q 433 1002 415 1016 q 475 987 450 987 q 503 1006 496 987 q 511 1054 510 1025 z "},"Ẃ":{"ha":1072,"x_min":43,"x_max":1044,"o":"m 514 525 l 300 5 q 268 -20 285 -15 q 235 -20 251 -26 q 206 -3 218 -15 q 190 24 194 9 l 47 802 q 56 831 43 818 q 87 850 69 845 q 123 848 106 854 q 146 818 141 842 l 266 175 l 495 742 q 517 761 503 755 q 545 764 530 766 q 571 753 559 762 q 589 730 583 745 l 667 125 l 945 715 q 976 738 958 736 q 1010 730 994 739 q 1036 704 1027 720 q 1036 674 1044 688 l 701 -41 q 679 -63 694 -54 q 646 -73 663 -72 q 614 -64 629 -73 q 591 -31 600 -54 l 514 525 m 537 1042 q 577 1053 557 1057 q 609 1037 597 1050 q 623 1006 621 1024 q 610 971 625 987 l 525 876 q 489 861 507 857 q 458 879 471 865 q 441 911 445 892 q 448 940 437 929 l 537 1042 z "},"Ŵ":{"ha":1072,"x_min":43,"x_max":1044,"o":"m 514 525 l 300 5 q 268 -20 285 -15 q 235 -20 251 -26 q 206 -3 218 -15 q 190 24 194 9 l 47 802 q 56 831 43 818 q 87 850 69 845 q 123 848 106 854 q 146 818 141 842 l 266 175 l 495 742 q 517 761 503 755 q 545 764 530 766 q 571 753 559 762 q 589 730 583 745 l 667 125 l 945 715 q 976 738 958 736 q 1010 730 994 739 q 1036 704 1027 720 q 1036 674 1044 688 l 701 -41 q 679 -63 694 -54 q 646 -73 663 -72 q 614 -64 629 -73 q 591 -31 600 -54 l 514 525 m 480 1012 q 508 1035 492 1028 q 539 1041 524 1042 q 568 1032 555 1040 q 591 1012 582 1024 l 655 918 q 654 890 661 905 q 635 866 647 875 q 606 858 623 857 q 576 875 590 859 l 534 933 l 495 876 q 469 859 484 860 q 439 866 453 859 q 418 887 426 873 q 415 914 410 901 l 480 1012 z "},"Ẅ":{"ha":1072,"x_min":43,"x_max":1044,"o":"m 514 525 l 300 5 q 268 -20 285 -15 q 235 -20 251 -26 q 206 -3 218 -15 q 190 24 194 9 l 47 802 q 56 831 43 818 q 87 850 69 845 q 123 848 106 854 q 146 818 141 842 l 266 175 l 495 742 q 517 761 503 755 q 545 764 530 766 q 571 753 559 762 q 589 730 583 745 l 667 125 l 945 715 q 976 738 958 736 q 1010 730 994 739 q 1036 704 1027 720 q 1036 674 1044 688 l 701 -41 q 679 -63 694 -54 q 646 -73 663 -72 q 614 -64 629 -73 q 591 -31 600 -54 l 514 525 m 389 916 q 406 959 389 941 q 449 977 423 977 q 492 959 475 977 q 510 916 510 941 q 492 873 510 890 q 449 856 475 856 q 406 873 423 856 q 389 916 389 890 m 560 916 q 577 959 560 941 q 620 977 594 977 q 663 959 646 977 q 681 916 681 941 q 663 873 681 890 q 620 856 646 856 q 577 873 594 856 q 560 916 560 890 z "},"Ẁ":{"ha":1072,"x_min":43,"x_max":1044,"o":"m 514 525 l 300 5 q 268 -20 285 -15 q 235 -20 251 -26 q 206 -3 218 -15 q 190 24 194 9 l 47 802 q 56 831 43 818 q 87 850 69 845 q 123 848 106 854 q 146 818 141 842 l 266 175 l 495 742 q 517 761 503 755 q 545 764 530 766 q 571 753 559 762 q 589 730 583 745 l 667 125 l 945 715 q 976 738 958 736 q 1010 730 994 739 q 1036 704 1027 720 q 1036 674 1044 688 l 701 -41 q 679 -63 694 -54 q 646 -73 663 -72 q 614 -64 629 -73 q 591 -31 600 -54 l 514 525 m 623 940 q 629 911 633 929 q 612 879 625 892 q 581 861 600 865 q 545 876 563 857 l 460 971 q 446 1001 444 983 q 460 1033 448 1019 q 493 1052 473 1047 q 533 1042 513 1057 l 623 940 z "},"Ý":{"ha":570,"x_min":41,"x_max":560,"o":"m 164 343 q 163 348 164 346 q 163 354 163 350 l 43 806 q 54 833 41 822 q 84 848 66 845 q 119 844 102 852 q 144 812 137 837 l 244 450 l 464 745 q 498 765 479 765 q 532 754 517 765 q 553 726 547 743 q 552 696 560 709 l 273 328 l 199 -4 q 176 -35 194 -28 q 140 -37 159 -42 q 109 -19 122 -33 q 99 11 96 -5 l 164 343 m 392 1027 q 432 1038 412 1042 q 464 1022 452 1035 q 478 991 476 1009 q 465 956 480 972 l 380 861 q 344 846 362 842 q 313 864 326 850 q 296 896 300 878 q 302 925 292 914 l 392 1027 z "},"Ŷ":{"ha":570,"x_min":41,"x_max":560,"o":"m 164 343 q 163 348 164 346 q 163 354 163 350 l 43 806 q 54 833 41 822 q 84 848 66 845 q 119 844 102 852 q 144 812 137 837 l 244 450 l 464 745 q 498 765 479 765 q 532 754 517 765 q 553 726 547 743 q 552 696 560 709 l 273 328 l 199 -4 q 176 -35 194 -28 q 140 -37 159 -42 q 109 -19 122 -33 q 99 11 96 -5 l 164 343 m 269 1019 q 296 1042 281 1035 q 328 1048 312 1048 q 357 1039 343 1047 q 380 1019 370 1031 l 444 925 q 442 897 449 911 q 423 873 435 882 q 395 865 411 864 q 365 882 378 865 l 323 940 l 283 883 q 257 866 273 867 q 228 873 241 865 q 206 894 214 880 q 203 921 198 907 l 269 1019 z "},"Ÿ":{"ha":570,"x_min":41,"x_max":560,"o":"m 164 343 q 163 348 164 346 q 163 354 163 350 l 43 806 q 54 833 41 822 q 84 848 66 845 q 119 844 102 852 q 144 812 137 837 l 244 450 l 464 745 q 498 765 479 765 q 532 754 517 765 q 553 726 547 743 q 552 696 560 709 l 273 328 l 199 -4 q 176 -35 194 -28 q 140 -37 159 -42 q 109 -19 122 -33 q 99 11 96 -5 l 164 343 m 193 916 q 210 959 193 941 q 252 977 227 977 q 296 959 278 977 q 313 916 313 941 q 296 873 313 890 q 252 856 278 856 q 210 873 227 856 q 193 916 193 890 m 363 916 q 380 959 363 941 q 423 977 397 977 q 467 959 449 977 q 484 916 484 941 q 467 873 484 890 q 423 856 449 856 q 380 873 397 856 q 363 916 363 890 z "},"Ỳ":{"ha":570,"x_min":41,"x_max":560,"o":"m 164 343 q 163 348 164 346 q 163 354 163 350 l 43 806 q 54 833 41 822 q 84 848 66 845 q 119 844 102 852 q 144 812 137 837 l 244 450 l 464 745 q 498 765 479 765 q 532 754 517 765 q 553 726 547 743 q 552 696 560 709 l 273 328 l 199 -4 q 176 -35 194 -28 q 140 -37 159 -42 q 109 -19 122 -33 q 99 11 96 -5 l 164 343 m 372 940 q 378 911 382 929 q 361 879 374 892 q 330 861 349 865 q 294 876 312 857 l 209 971 q 195 1001 193 983 q 210 1033 197 1019 q 242 1052 222 1047 q 282 1042 262 1057 l 372 940 z "},"Ź":{"ha":743,"x_min":23,"x_max":701,"o":"m 231 -43 q 195 -39 209 -49 q 177 -12 182 -30 q 176 27 172 5 q 191 69 179 49 l 423 750 l 77 682 q 40 698 53 682 q 25 732 27 713 q 32 768 23 751 q 58 788 41 785 l 496 871 q 522 867 509 872 q 545 849 536 863 q 557 812 555 836 q 547 757 559 789 l 315 77 l 644 138 q 683 129 670 142 q 699 96 696 115 q 694 60 701 77 q 670 41 686 43 l 231 -43 m 301 1042 q 341 1053 321 1057 q 373 1037 361 1050 q 387 1006 385 1024 q 374 971 389 987 l 289 876 q 253 861 271 857 q 222 879 235 865 q 205 911 209 892 q 212 940 201 929 l 301 1042 z "},"Ż":{"ha":732,"x_min":23,"x_max":701,"o":"m 231 -43 q 195 -39 209 -49 q 177 -12 182 -30 q 176 27 172 5 q 191 69 179 49 l 423 750 l 77 682 q 40 698 53 682 q 25 732 27 713 q 32 768 23 751 q 58 788 41 785 l 496 871 q 522 867 509 872 q 545 849 536 863 q 557 812 555 836 q 547 757 559 789 l 315 77 l 644 138 q 683 129 670 142 q 699 96 696 115 q 694 60 701 77 q 670 41 686 43 l 231 -43 m 224 956 q 241 1000 224 982 q 283 1017 258 1017 q 327 1000 309 1017 q 345 956 345 982 q 327 913 345 930 q 283 897 309 897 q 241 913 258 897 q 224 956 224 930 z "},"Ž":{"ha":722,"x_min":23,"x_max":701,"o":"m 231 -43 q 195 -39 209 -49 q 177 -12 182 -30 q 176 27 172 5 q 191 69 179 49 l 423 750 l 77 682 q 40 698 53 682 q 25 732 27 713 q 32 768 23 751 q 58 788 41 785 l 496 871 q 522 867 509 872 q 545 849 536 863 q 557 812 555 836 q 547 757 559 789 l 315 77 l 644 138 q 683 129 670 142 q 699 96 696 115 q 694 60 701 77 q 670 41 686 43 l 231 -43 m 354 886 q 326 863 342 869 q 295 857 311 856 q 266 865 279 857 q 243 886 252 873 l 179 979 q 180 1008 174 993 q 199 1031 187 1023 q 227 1040 212 1040 q 258 1023 243 1039 l 300 964 l 339 1021 q 365 1038 349 1038 q 395 1031 381 1039 q 416 1010 408 1024 q 419 983 425 997 l 354 886 z "},"á":{"ha":548,"x_min":7,"x_max":540,"o":"m 332 54 q 262 36 298 39 q 187 43 225 33 q 102 85 140 56 q 43 156 65 115 q 14 245 20 197 q 19 340 7 293 q 60 426 31 388 q 129 488 90 464 q 215 520 168 511 q 309 517 262 529 q 376 489 347 509 q 427 442 406 469 q 460 465 439 463 q 498 460 480 468 q 528 438 517 453 q 532 408 540 423 l 427 14 q 403 -17 420 -11 q 367 -17 385 -23 q 336 3 349 -11 q 328 31 324 16 l 332 54 m 115 315 q 111 258 107 286 q 129 207 115 231 q 163 166 142 183 q 210 142 183 149 q 264 140 237 136 q 315 159 292 145 q 356 195 339 174 q 380 244 373 217 q 384 299 388 271 q 366 351 380 327 q 332 392 353 374 q 283 418 311 410 q 230 420 256 425 q 180 401 203 415 q 140 364 157 387 q 115 315 122 342 m 294 783 q 334 794 315 798 q 366 778 354 791 q 380 747 378 765 q 368 712 382 728 l 282 617 q 246 602 264 598 q 215 620 228 606 q 198 652 202 633 q 205 681 194 670 l 294 783 z "},"ă":{"ha":593,"x_min":38,"x_max":571,"o":"m 363 54 q 293 36 330 39 q 218 43 256 33 q 134 85 171 56 q 74 156 96 115 q 45 245 52 197 q 50 340 38 293 q 92 426 62 388 q 160 488 121 464 q 246 520 199 511 q 340 517 293 529 q 408 489 378 509 q 458 442 437 469 q 491 465 471 463 q 530 460 511 468 q 559 438 548 453 q 563 408 571 423 l 458 14 q 434 -17 452 -11 q 398 -17 416 -23 q 368 3 380 -11 q 359 31 355 16 l 363 54 m 146 315 q 142 258 138 286 q 160 207 146 231 q 194 166 174 183 q 241 142 214 149 q 296 140 269 136 q 347 159 323 145 q 387 195 370 174 q 411 244 404 217 q 415 299 419 271 q 397 351 411 327 q 363 392 384 374 q 315 418 342 410 q 261 420 288 425 q 212 401 235 415 q 171 364 189 387 q 146 315 153 342 m 414 732 q 438 750 422 749 q 468 743 454 751 q 488 720 481 735 q 486 685 495 704 q 421 621 463 642 q 335 600 380 600 q 249 621 290 601 q 183 682 208 642 q 178 718 171 703 q 198 740 184 732 q 227 746 212 747 q 247 732 243 745 q 288 686 263 700 q 338 675 313 673 q 383 692 362 677 q 414 732 404 707 z "},"ä":{"ha":548,"x_min":14,"x_max":547,"o":"m 339 15 q 269 -3 305 0 q 194 4 232 -7 q 109 46 146 16 q 50 117 72 76 q 20 205 27 157 q 26 301 14 254 q 67 387 38 349 q 136 448 96 425 q 222 481 175 472 q 316 477 269 490 q 383 450 354 469 q 434 403 412 430 q 467 426 446 423 q 505 421 487 429 q 535 399 524 414 q 538 369 547 384 l 434 -26 q 410 -56 427 -50 q 374 -56 392 -62 q 343 -37 355 -50 q 335 -8 331 -23 l 339 15 m 122 275 q 118 219 114 247 q 136 168 122 191 q 170 127 149 144 q 217 103 190 110 q 271 101 244 96 q 322 120 298 106 q 363 156 346 134 q 387 205 380 178 q 391 260 395 232 q 373 311 387 288 q 338 353 359 335 q 290 378 317 370 q 237 380 263 385 q 187 361 210 376 q 146 325 164 347 q 122 275 129 302 m 127 549 q 144 593 127 575 q 187 610 161 610 q 231 593 213 610 q 248 549 248 575 q 231 507 248 524 q 187 490 213 490 q 144 507 161 490 q 127 549 127 524 m 298 549 q 315 593 298 575 q 358 610 332 610 q 401 593 384 610 q 419 549 419 575 q 401 507 419 524 q 358 490 384 490 q 315 507 332 490 q 298 549 298 524 z "},"à":{"ha":548,"x_min":14,"x_max":547,"o":"m 339 54 q 269 36 305 39 q 194 43 232 33 q 109 85 146 56 q 50 156 72 115 q 20 245 27 197 q 26 340 14 293 q 67 426 38 388 q 136 488 96 464 q 222 520 175 511 q 316 517 269 529 q 383 489 354 509 q 434 442 412 469 q 467 465 446 463 q 505 460 487 468 q 535 438 524 453 q 538 408 547 423 l 434 14 q 410 -17 427 -11 q 374 -17 392 -23 q 343 3 355 -11 q 335 31 331 16 l 339 54 m 122 315 q 118 258 114 286 q 136 207 122 231 q 170 166 149 183 q 217 142 190 149 q 271 140 244 136 q 322 159 298 145 q 363 195 346 174 q 387 244 380 217 q 391 299 395 271 q 373 351 387 327 q 338 392 359 374 q 290 418 317 410 q 237 420 263 425 q 187 401 210 415 q 146 364 164 387 q 122 315 129 342 m 434 694 q 441 665 445 684 q 424 633 437 647 q 393 616 411 620 q 357 631 374 612 l 271 726 q 257 755 255 738 q 272 787 259 773 q 304 806 285 802 q 345 796 324 811 l 434 694 z "},"â":{"ha":548,"x_min":20,"x_max":553,"o":"m 346 49 q 275 31 312 34 q 201 38 239 27 q 116 80 153 50 q 56 151 79 110 q 27 239 34 191 q 33 335 20 288 q 74 420 45 382 q 142 482 103 458 q 229 515 182 506 q 323 511 275 524 q 390 484 361 503 q 441 437 419 464 q 473 460 453 457 q 512 455 494 463 q 542 433 530 448 q 545 403 553 418 l 441 8 q 416 -22 434 -16 q 380 -22 399 -28 q 350 -3 362 -16 q 342 26 338 11 l 346 49 m 129 309 q 125 253 121 281 q 142 201 129 225 q 176 161 156 178 q 224 137 197 144 q 278 135 251 130 q 329 154 305 140 q 370 190 353 168 q 393 239 387 212 q 397 294 401 266 q 380 345 393 321 q 345 387 366 369 q 297 412 324 404 q 243 414 270 419 q 194 395 217 410 q 153 359 171 381 q 129 309 136 336 m 240 723 q 268 746 252 739 q 299 752 283 753 q 328 743 315 751 q 351 723 342 735 l 415 629 q 414 601 420 616 q 395 577 407 586 q 366 569 382 568 q 336 586 350 570 l 294 644 l 255 587 q 229 570 244 571 q 199 577 213 570 q 178 598 186 585 q 175 625 170 612 l 240 723 z "},"ā":{"ha":597,"x_min":38,"x_max":571,"o":"m 363 54 q 293 36 330 39 q 218 43 256 33 q 134 85 171 56 q 74 156 96 115 q 45 245 52 197 q 50 340 38 293 q 92 426 62 388 q 160 488 121 464 q 246 520 199 511 q 340 517 293 529 q 408 489 378 509 q 458 442 437 469 q 491 465 471 463 q 530 460 511 468 q 559 438 548 453 q 563 408 571 423 l 458 14 q 434 -17 452 -11 q 398 -17 416 -23 q 368 3 380 -11 q 359 31 355 16 l 363 54 m 146 315 q 142 258 138 286 q 160 207 146 231 q 194 166 174 183 q 241 142 214 149 q 296 140 269 136 q 347 159 323 145 q 387 195 370 174 q 411 244 404 217 q 415 299 419 271 q 397 351 411 327 q 363 392 384 374 q 315 418 342 410 q 261 420 288 425 q 212 401 235 415 q 171 364 189 387 q 146 315 153 342 m 487 680 q 522 657 511 675 q 530 621 532 639 q 517 588 529 602 q 486 578 505 574 l 159 575 q 123 591 133 575 q 114 625 113 606 q 125 660 115 644 q 152 675 136 675 l 487 680 z "},"ą":{"ha":590,"x_min":38,"x_max":571,"o":"m 458 14 q 430 -18 452 -11 q 425 -76 419 -43 q 465 -138 431 -109 q 472 -169 477 -153 q 452 -193 467 -184 q 418 -201 438 -202 q 382 -182 399 -199 q 342 -117 354 -151 q 330 -53 331 -84 q 339 5 330 -22 q 363 53 349 33 l 363 54 q 293 36 330 39 q 218 43 256 33 q 134 85 171 56 q 74 156 96 115 q 45 245 52 197 q 50 340 38 293 q 92 426 62 388 q 160 488 121 464 q 246 520 199 511 q 340 517 293 529 q 408 489 378 509 q 458 442 437 469 q 491 465 471 463 q 530 460 511 468 q 559 438 548 453 q 563 408 571 423 l 458 14 m 146 315 q 142 258 138 286 q 160 207 146 231 q 194 166 174 183 q 241 142 214 149 q 296 140 269 136 q 347 159 323 145 q 387 195 370 174 q 411 244 404 217 q 415 299 419 271 q 397 351 411 327 q 363 392 384 374 q 315 418 342 410 q 261 420 288 425 q 212 401 235 415 q 171 364 189 387 q 146 315 153 342 z "},"å":{"ha":548,"x_min":3,"x_max":536,"o":"m 328 49 q 258 31 294 34 q 183 38 221 27 q 98 80 136 50 q 39 151 61 110 q 9 239 16 191 q 15 335 3 288 q 56 420 27 382 q 125 482 85 458 q 211 515 164 506 q 305 511 258 524 q 372 484 343 503 q 423 437 401 464 q 456 460 435 457 q 494 455 476 463 q 524 433 513 448 q 528 403 536 418 l 423 8 q 399 -22 416 -16 q 363 -22 381 -28 q 332 -3 345 -16 q 324 26 320 11 l 328 49 m 111 309 q 107 253 103 281 q 125 201 111 225 q 159 161 138 178 q 206 137 179 144 q 260 135 233 130 q 311 154 288 140 q 352 190 335 168 q 376 239 369 212 q 380 294 384 266 q 362 345 376 321 q 328 387 349 369 q 279 412 307 404 q 226 414 252 419 q 176 395 199 410 q 136 359 153 381 q 111 309 118 336 m 262 646 q 288 620 262 620 q 307 627 298 620 q 315 646 315 635 q 307 665 315 656 q 288 673 298 673 q 269 665 277 673 q 262 646 262 656 m 201 646 q 226 708 201 682 q 288 734 251 734 q 350 708 324 734 q 376 646 376 682 q 350 584 376 609 q 288 559 324 559 q 226 584 251 559 q 201 646 201 609 z "},"ã":{"ha":548,"x_min":11,"x_max":544,"o":"m 336 45 q 266 26 302 30 q 191 34 229 23 q 106 76 144 46 q 47 146 69 106 q 18 235 24 187 q 23 331 11 283 q 64 416 35 378 q 133 478 94 454 q 219 511 172 502 q 313 507 266 519 q 380 479 351 499 q 431 433 410 460 q 464 456 444 453 q 503 451 484 458 q 532 429 521 444 q 536 399 544 414 l 431 4 q 407 -26 425 -20 q 371 -26 389 -33 q 340 -7 353 -20 q 332 22 328 7 l 336 45 m 119 305 q 115 249 111 277 q 133 197 119 221 q 167 157 146 174 q 214 133 187 140 q 269 131 241 126 q 319 150 296 136 q 360 186 343 164 q 384 235 377 208 q 388 290 392 262 q 370 341 384 317 q 336 382 357 365 q 288 408 315 400 q 234 410 260 415 q 184 391 208 406 q 144 355 161 377 q 119 305 126 332 m 410 677 q 431 701 415 694 q 463 705 446 708 q 490 688 479 701 q 500 651 502 674 q 460 558 495 594 q 382 519 426 522 q 323 533 347 517 q 279 568 300 549 q 239 602 259 587 q 193 613 218 617 q 164 593 172 610 q 146 545 156 575 q 121 518 138 522 q 89 522 104 514 q 64 549 73 530 q 64 589 56 567 q 111 670 83 636 q 187 703 140 704 q 252 688 227 703 q 295 656 277 673 q 331 625 313 639 q 373 610 349 610 q 401 629 395 610 q 410 677 408 648 z "},"æ":{"ha":812,"x_min":47,"x_max":795,"o":"m 692 157 q 723 176 703 174 q 761 170 743 178 q 787 145 779 161 q 781 109 795 129 q 709 33 750 61 q 624 -7 669 4 q 533 -12 579 -18 q 448 16 487 -5 q 387 -26 420 -9 q 316 -46 354 -42 q 222 -37 267 -52 q 140 8 176 -22 q 81 80 104 38 q 53 171 58 122 q 61 267 47 220 q 102 350 75 313 q 172 410 130 387 q 262 439 213 434 q 331 436 297 444 q 395 412 365 429 q 456 455 422 438 q 529 477 490 472 q 610 475 570 483 q 682 448 650 468 q 739 397 715 429 q 774 326 764 366 q 768 252 787 281 q 680 214 750 222 l 426 189 l 427 179 q 473 114 442 140 q 542 83 505 88 q 619 94 579 77 q 692 157 659 111 m 151 180 q 168 127 155 152 q 203 86 182 103 q 250 60 224 69 q 302 54 275 52 q 338 64 321 57 q 369 83 355 71 q 337 139 350 109 q 320 209 324 170 q 321 270 317 240 q 335 327 324 300 q 304 336 320 332 q 271 336 288 339 q 220 319 244 334 q 180 283 197 305 q 156 235 164 262 q 151 180 148 209 m 538 377 q 471 346 500 370 q 429 286 442 321 l 677 312 q 652 351 667 336 q 618 372 637 365 q 579 379 600 378 q 538 377 559 380 z "},"ǽ":{"ha":800,"x_min":47,"x_max":795,"o":"m 692 157 q 723 176 703 174 q 761 170 743 178 q 787 145 779 161 q 781 109 795 129 q 709 33 750 61 q 624 -7 669 4 q 533 -12 579 -18 q 448 16 487 -5 q 387 -26 420 -9 q 316 -46 354 -42 q 222 -37 267 -52 q 140 8 176 -22 q 81 80 104 38 q 53 171 58 122 q 61 267 47 220 q 102 350 75 313 q 172 410 130 387 q 262 439 213 434 q 331 436 297 444 q 395 412 365 429 q 456 455 422 438 q 529 477 490 472 q 610 475 570 483 q 682 448 650 468 q 739 397 715 429 q 774 326 764 366 q 768 252 787 281 q 680 214 750 222 l 426 189 l 427 179 q 473 114 442 140 q 542 83 505 88 q 619 94 579 77 q 692 157 659 111 m 151 180 q 168 127 155 152 q 203 86 182 103 q 250 60 224 69 q 302 54 275 52 q 338 64 321 57 q 369 83 355 71 q 337 139 350 109 q 320 209 324 170 q 321 270 317 240 q 335 327 324 300 q 304 336 320 332 q 271 336 288 339 q 220 319 244 334 q 180 283 197 305 q 156 235 164 262 q 151 180 148 209 m 538 377 q 471 346 500 370 q 429 286 442 321 l 677 312 q 652 351 667 336 q 618 372 637 365 q 579 379 600 378 q 538 377 559 380 m 403 675 q 443 687 423 690 q 475 671 463 684 q 489 640 487 658 q 476 605 491 621 l 391 510 q 355 495 373 491 q 323 513 336 499 q 307 545 311 526 q 313 574 302 563 l 403 675 z "},"ć":{"ha":521,"x_min":30,"x_max":509,"o":"m 407 213 q 432 237 414 232 q 468 237 450 243 q 497 214 486 231 q 502 175 509 198 q 437 68 483 113 q 326 9 391 24 q 231 9 277 -1 q 146 45 184 19 q 79 111 107 72 q 41 198 52 151 q 39 294 30 247 q 72 381 47 342 q 134 449 96 420 q 220 488 171 477 q 359 478 301 503 q 445 410 418 453 q 449 378 456 395 q 427 351 442 362 q 395 336 412 339 q 369 345 378 334 q 309 387 342 380 q 241 385 277 393 q 193 363 214 380 q 157 324 171 347 q 137 273 142 301 q 138 217 132 245 q 160 167 144 190 q 199 129 176 144 q 248 108 221 114 q 302 109 275 102 q 365 140 342 118 q 407 213 388 161 m 248 708 q 288 720 269 723 q 320 703 308 716 q 334 672 332 690 q 321 637 336 654 l 236 543 q 200 528 218 524 q 169 545 182 532 q 152 577 156 559 q 159 606 148 595 l 248 708 z "},"č":{"ha":521,"x_min":30,"x_max":509,"o":"m 407 213 q 432 237 414 232 q 468 237 450 243 q 497 214 486 231 q 502 175 509 198 q 437 68 483 113 q 326 9 391 24 q 231 9 277 -1 q 146 45 184 19 q 79 111 107 72 q 41 198 52 151 q 39 294 30 247 q 72 381 47 342 q 134 449 96 420 q 220 488 171 477 q 359 478 301 503 q 445 410 418 453 q 449 378 456 395 q 427 351 442 362 q 395 336 412 339 q 369 345 378 334 q 309 387 342 380 q 241 385 277 393 q 193 363 214 380 q 157 324 171 347 q 137 273 142 301 q 138 217 132 245 q 160 167 144 190 q 199 129 176 144 q 248 108 221 114 q 302 109 275 102 q 365 140 342 118 q 407 213 388 161 m 308 567 q 280 544 296 551 q 249 538 264 537 q 220 547 233 538 q 197 567 206 555 l 133 661 q 134 689 127 674 q 153 713 141 704 q 181 721 165 722 q 212 704 197 720 l 254 646 l 293 703 q 319 720 302 719 q 349 713 335 720 q 370 692 362 705 q 373 665 378 678 l 308 567 z "},"ç":{"ha":521,"x_min":30,"x_max":509,"o":"m 407 213 q 432 237 414 232 q 468 237 450 243 q 497 214 486 231 q 502 175 509 198 q 437 68 483 113 q 326 9 391 24 q 311 6 319 7 q 297 4 304 5 l 297 3 q 414 -31 376 0 q 452 -109 452 -61 q 406 -208 452 -179 q 288 -236 361 -237 q 246 -221 260 -236 q 230 -189 232 -206 q 239 -155 228 -171 q 278 -138 251 -140 q 304 -138 290 -138 q 330 -134 319 -137 q 347 -125 340 -132 q 353 -107 354 -119 q 338 -88 350 -92 q 285 -85 326 -84 q 267 -84 279 -85 q 241 -74 254 -83 q 219 -45 228 -65 q 212 14 210 -24 q 102 81 149 33 q 41 198 56 130 q 39 294 30 247 q 72 381 47 342 q 134 449 96 420 q 220 488 171 477 q 359 478 301 503 q 445 410 418 453 q 449 378 456 395 q 427 351 442 362 q 395 336 412 339 q 369 345 378 334 q 309 387 342 380 q 241 385 277 393 q 193 363 214 380 q 157 324 171 347 q 137 273 142 301 q 138 217 132 245 q 160 167 144 190 q 199 129 176 144 q 248 108 221 114 q 302 109 275 102 q 365 140 342 118 q 407 213 388 161 z "},"ĉ":{"ha":521,"x_min":30,"x_max":509,"o":"m 407 213 q 432 237 414 232 q 468 237 450 243 q 497 214 486 231 q 502 175 509 198 q 437 68 483 113 q 326 9 391 24 q 231 9 277 -1 q 146 45 184 19 q 79 111 107 72 q 41 198 52 151 q 39 294 30 247 q 72 381 47 342 q 134 449 96 420 q 220 488 171 477 q 359 478 301 503 q 445 410 418 453 q 449 378 456 395 q 427 351 442 362 q 395 336 412 339 q 369 345 378 334 q 309 387 342 380 q 241 385 277 393 q 193 363 214 380 q 157 324 171 347 q 137 273 142 301 q 138 217 132 245 q 160 167 144 190 q 199 129 176 144 q 248 108 221 114 q 302 109 275 102 q 365 140 342 118 q 407 213 388 161 m 193 689 q 220 712 205 705 q 252 718 236 719 q 281 709 267 718 q 304 689 294 701 l 368 595 q 366 567 373 582 q 347 543 359 552 q 319 535 335 534 q 289 552 302 536 l 247 610 l 208 553 q 181 536 197 537 q 152 543 165 536 q 130 564 138 551 q 127 591 122 578 l 193 689 z "},"ċ":{"ha":521,"x_min":30,"x_max":509,"o":"m 407 213 q 432 237 414 232 q 468 237 450 243 q 497 214 486 231 q 502 175 509 198 q 437 68 483 113 q 326 9 391 24 q 231 9 277 -1 q 146 45 184 19 q 79 111 107 72 q 41 198 52 151 q 39 294 30 247 q 72 381 47 342 q 134 449 96 420 q 220 488 171 477 q 359 478 301 503 q 445 410 418 453 q 449 378 456 395 q 427 351 442 362 q 395 336 412 339 q 369 345 378 334 q 309 387 342 380 q 241 385 277 393 q 193 363 214 380 q 157 324 171 347 q 137 273 142 301 q 138 217 132 245 q 160 167 144 190 q 199 129 176 144 q 248 108 221 114 q 302 109 275 102 q 365 140 342 118 q 407 213 388 161 m 184 598 q 201 642 184 624 q 244 659 218 659 q 288 642 270 659 q 305 598 305 624 q 288 555 305 572 q 244 538 270 538 q 201 555 218 538 q 184 598 184 572 z "},"ď":{"ha":770,"x_min":23,"x_max":741,"o":"m 373 33 q 229 5 307 -5 q 140 39 180 12 q 73 103 100 65 q 35 188 46 141 q 30 283 23 235 q 63 374 38 332 q 125 444 88 415 q 207 485 161 472 q 301 490 252 498 q 368 468 336 484 q 426 427 400 452 q 431 454 426 429 q 441 519 435 480 q 454 602 448 557 q 467 684 461 646 q 476 748 472 723 q 480 774 480 773 q 501 808 484 796 q 536 819 518 819 q 570 806 555 819 q 586 764 586 792 l 472 3 q 451 -30 468 -22 q 416 -34 434 -38 q 383 -18 397 -30 q 372 11 369 -5 l 373 33 m 127 267 q 131 212 123 239 q 154 163 138 186 q 193 126 170 141 q 243 107 216 111 q 296 111 270 103 q 344 135 323 118 q 380 176 365 152 q 399 228 395 199 q 396 283 403 256 q 374 331 389 309 q 335 368 358 353 q 285 387 312 382 q 230 383 256 391 q 182 359 203 376 q 146 319 161 343 q 127 267 132 296 m 623 617 q 613 646 609 629 q 631 675 617 663 q 663 688 644 686 q 697 673 681 690 q 726 623 715 654 q 739 555 738 591 q 729 481 741 519 q 688 410 718 442 q 652 391 671 392 q 618 398 632 389 q 598 422 604 407 q 605 453 593 438 q 637 496 627 472 q 647 544 647 521 q 640 587 647 567 q 623 617 633 606 z "},"đ":{"ha":614,"x_min":20,"x_max":715,"o":"m 370 33 q 227 5 304 -5 q 138 39 178 12 q 71 103 98 65 q 32 188 43 141 q 27 283 20 235 q 60 374 35 332 q 122 444 85 415 q 204 485 159 472 q 298 490 250 498 q 366 468 334 484 q 423 427 397 452 q 428 454 423 429 q 439 519 433 480 q 452 602 445 557 q 464 684 458 646 q 473 748 469 723 q 477 774 477 773 q 498 808 481 796 q 534 819 515 819 q 568 806 552 819 q 583 764 583 792 l 469 3 q 448 -30 465 -22 q 413 -34 431 -38 q 380 -18 395 -30 q 369 11 366 -5 l 370 33 m 125 267 q 128 212 121 239 q 151 163 136 186 q 190 126 167 141 q 240 107 213 111 q 294 111 267 103 q 341 135 320 118 q 377 176 362 152 q 396 228 392 199 q 393 283 400 256 q 371 331 387 309 q 332 368 355 353 q 282 387 309 382 q 227 383 254 391 q 180 359 201 376 q 144 319 159 343 q 125 267 129 296 m 670 682 q 705 660 694 678 q 713 623 715 642 q 700 591 712 605 q 669 581 688 576 l 342 578 q 306 593 316 578 q 297 628 296 609 q 309 663 298 647 q 335 678 319 678 l 670 682 z "},"é":{"ha":541,"x_min":30,"x_max":533,"o":"m 429 237 q 448 269 431 258 q 484 280 465 279 q 518 270 503 281 q 530 235 533 259 q 498 127 525 174 q 431 51 471 81 q 343 7 392 20 q 246 2 294 -5 q 153 37 198 9 q 75 114 107 64 q 39 201 47 155 q 39 294 30 248 q 73 380 47 339 q 138 449 98 420 q 211 484 172 473 q 288 492 250 495 q 363 473 327 490 q 427 425 399 457 q 450 390 442 407 q 454 356 457 373 q 437 321 452 339 q 392 283 422 302 l 178 142 q 248 101 208 111 q 326 102 289 91 q 392 146 363 113 q 429 237 420 180 m 193 363 q 146 305 161 340 q 136 233 132 270 l 346 368 q 266 395 307 403 q 193 363 225 387 m 210 686 q 250 698 231 701 q 282 682 270 694 q 296 650 294 669 q 283 616 298 632 l 198 521 q 162 506 180 502 q 131 524 144 510 q 114 555 118 537 q 121 585 110 574 l 210 686 z "},"ĕ":{"ha":541,"x_min":30,"x_max":533,"o":"m 429 237 q 448 269 431 258 q 484 280 465 279 q 518 270 503 281 q 530 235 533 259 q 498 127 525 174 q 431 51 471 81 q 343 7 392 20 q 246 2 294 -5 q 153 37 198 9 q 75 114 107 64 q 39 201 47 155 q 39 294 30 248 q 73 380 47 339 q 138 449 98 420 q 211 484 172 473 q 288 492 250 495 q 363 473 327 490 q 427 425 399 457 q 450 390 442 407 q 454 356 457 373 q 437 321 452 339 q 392 283 422 302 l 178 142 q 248 101 208 111 q 326 102 289 91 q 392 146 363 113 q 429 237 420 180 m 193 363 q 146 305 161 340 q 136 233 132 270 l 346 368 q 266 395 307 403 q 193 363 225 387 m 320 685 q 345 703 328 701 q 374 696 361 704 q 395 672 388 688 q 392 637 401 656 q 328 573 369 594 q 241 553 286 552 q 155 574 197 553 q 90 635 114 594 q 84 670 77 655 q 104 692 91 685 q 134 699 118 700 q 153 685 149 697 q 195 639 170 652 q 244 627 220 625 q 290 644 269 629 q 320 685 311 659 z "},"ě":{"ha":541,"x_min":30,"x_max":533,"o":"m 429 237 q 448 269 431 258 q 484 280 465 279 q 518 270 503 281 q 530 235 533 259 q 498 127 525 174 q 431 51 471 81 q 343 7 392 20 q 246 2 294 -5 q 153 37 198 9 q 75 114 107 64 q 39 201 47 155 q 39 294 30 248 q 73 380 47 339 q 138 449 98 420 q 211 484 172 473 q 288 492 250 495 q 363 473 327 490 q 427 425 399 457 q 450 390 442 407 q 454 356 457 373 q 437 321 452 339 q 392 283 422 302 l 178 142 q 248 101 208 111 q 326 102 289 91 q 392 146 363 113 q 429 237 420 180 m 193 363 q 146 305 161 340 q 136 233 132 270 l 346 368 q 266 395 307 403 q 193 363 225 387 m 326 560 q 298 537 313 544 q 267 531 282 530 q 237 540 251 532 q 214 560 224 548 l 151 654 q 152 682 145 667 q 171 706 159 697 q 199 714 183 715 q 229 697 214 713 l 271 639 l 311 696 q 336 713 320 712 q 366 706 353 713 q 388 685 380 699 q 391 658 396 671 l 326 560 z "},"ê":{"ha":541,"x_min":30,"x_max":533,"o":"m 429 237 q 448 269 431 258 q 484 280 465 279 q 518 270 503 281 q 530 235 533 259 q 498 127 525 174 q 431 51 471 81 q 343 7 392 20 q 246 2 294 -5 q 153 37 198 9 q 75 114 107 64 q 39 201 47 155 q 39 294 30 248 q 73 380 47 339 q 138 449 98 420 q 211 484 172 473 q 288 492 250 495 q 363 473 327 490 q 427 425 399 457 q 450 390 442 407 q 454 356 457 373 q 437 321 452 339 q 392 283 422 302 l 178 142 q 248 101 208 111 q 326 102 289 91 q 392 146 363 113 q 429 237 420 180 m 193 363 q 146 305 161 340 q 136 233 132 270 l 346 368 q 266 395 307 403 q 193 363 225 387 m 153 704 q 181 727 165 720 q 212 733 197 734 q 241 724 228 732 q 264 704 255 716 l 328 610 q 327 582 334 597 q 308 558 320 567 q 279 550 296 549 q 250 567 263 551 l 208 625 l 168 568 q 142 551 157 552 q 113 558 126 551 q 91 579 99 566 q 88 606 83 593 l 153 704 z "},"ë":{"ha":541,"x_min":30,"x_max":533,"o":"m 429 237 q 448 269 431 258 q 484 280 465 279 q 518 270 503 281 q 530 235 533 259 q 498 127 525 174 q 431 51 471 81 q 343 7 392 20 q 246 2 294 -5 q 153 37 198 9 q 75 114 107 64 q 39 201 47 155 q 39 294 30 248 q 73 380 47 339 q 138 449 98 420 q 211 484 172 473 q 288 492 250 495 q 363 473 327 490 q 427 425 399 457 q 450 390 442 407 q 454 356 457 373 q 437 321 452 339 q 392 283 422 302 l 178 142 q 248 101 208 111 q 326 102 289 91 q 392 146 363 113 q 429 237 420 180 m 193 363 q 146 305 161 340 q 136 233 132 270 l 346 368 q 266 395 307 403 q 193 363 225 387 m 58 578 q 75 621 58 604 q 118 639 92 639 q 161 621 144 639 q 179 578 179 604 q 161 535 179 552 q 118 518 144 518 q 75 535 92 518 q 58 578 58 552 m 229 578 q 246 621 229 604 q 289 639 263 639 q 332 621 315 639 q 350 578 350 604 q 332 535 350 552 q 289 518 315 518 q 246 535 263 518 q 229 578 229 552 z "},"ė":{"ha":541,"x_min":30,"x_max":533,"o":"m 429 237 q 448 269 431 258 q 484 280 465 279 q 518 270 503 281 q 530 235 533 259 q 498 127 525 174 q 431 51 471 81 q 343 7 392 20 q 246 2 294 -5 q 153 37 198 9 q 75 114 107 64 q 39 201 47 155 q 39 294 30 248 q 73 380 47 339 q 138 449 98 420 q 211 484 172 473 q 288 492 250 495 q 363 473 327 490 q 427 425 399 457 q 450 390 442 407 q 454 356 457 373 q 437 321 452 339 q 392 283 422 302 l 178 142 q 248 101 208 111 q 326 102 289 91 q 392 146 363 113 q 429 237 420 180 m 193 363 q 146 305 161 340 q 136 233 132 270 l 346 368 q 266 395 307 403 q 193 363 225 387 m 193 598 q 210 642 193 624 q 252 659 227 659 q 296 642 278 659 q 313 598 313 624 q 296 555 313 572 q 252 538 278 538 q 210 555 227 538 q 193 598 193 572 z "},"è":{"ha":541,"x_min":30,"x_max":533,"o":"m 429 237 q 448 269 431 258 q 484 280 465 279 q 518 270 503 281 q 530 235 533 259 q 498 127 525 174 q 431 51 471 81 q 343 7 392 20 q 246 2 294 -5 q 153 37 198 9 q 75 114 107 64 q 39 201 47 155 q 39 294 30 248 q 73 380 47 339 q 138 449 98 420 q 211 484 172 473 q 288 492 250 495 q 363 473 327 490 q 427 425 399 457 q 450 390 442 407 q 454 356 457 373 q 437 321 452 339 q 392 283 422 302 l 178 142 q 248 101 208 111 q 326 102 289 91 q 392 146 363 113 q 429 237 420 180 m 193 363 q 146 305 161 340 q 136 233 132 270 l 346 368 q 266 395 307 403 q 193 363 225 387 m 237 613 q 244 584 248 602 q 227 552 240 566 q 196 534 214 538 q 160 549 178 530 l 75 644 q 60 674 58 656 q 75 706 62 692 q 108 725 88 720 q 148 715 127 730 l 237 613 z "},"ē":{"ha":541,"x_min":30,"x_max":533,"o":"m 429 237 q 448 269 431 258 q 484 280 465 279 q 518 270 503 281 q 530 235 533 259 q 498 127 525 174 q 431 51 471 81 q 343 7 392 20 q 246 2 294 -5 q 153 37 198 9 q 75 114 107 64 q 39 201 47 155 q 39 294 30 248 q 73 380 47 339 q 138 449 98 420 q 211 484 172 473 q 288 492 250 495 q 363 473 327 490 q 427 425 399 457 q 450 390 442 407 q 454 356 457 373 q 437 321 452 339 q 392 283 422 302 l 178 142 q 248 101 208 111 q 326 102 289 91 q 392 146 363 113 q 429 237 420 180 m 193 363 q 146 305 161 340 q 136 233 132 270 l 346 368 q 266 395 307 403 q 193 363 225 387 m 435 642 q 470 619 460 637 q 479 583 480 601 q 465 550 477 564 q 434 540 453 536 l 107 537 q 71 553 81 537 q 62 587 61 568 q 74 622 64 606 q 100 637 84 637 l 435 642 z "},"ę":{"ha":541,"x_min":30,"x_max":533,"o":"m 433 31 q 415 3 422 20 q 408 -34 408 -14 q 418 -76 408 -54 q 450 -117 427 -98 q 457 -147 463 -132 q 437 -172 452 -163 q 404 -179 423 -180 q 368 -160 384 -178 q 321 -78 332 -121 q 317 3 311 -35 q 185 18 251 -8 q 75 114 119 45 q 39 201 47 155 q 39 294 30 248 q 73 380 47 339 q 138 449 98 420 q 211 484 172 473 q 288 492 250 495 q 363 473 327 490 q 427 425 399 457 q 450 390 442 407 q 454 356 457 373 q 437 321 452 339 q 392 283 422 302 l 178 142 q 248 101 208 111 q 326 102 289 91 q 392 146 363 113 q 429 237 420 180 q 448 269 431 258 q 484 280 465 279 q 518 270 503 281 q 530 235 533 259 q 500 134 524 178 q 442 60 477 90 q 433 31 445 43 m 193 363 q 146 305 161 340 q 136 233 132 270 l 346 368 q 266 395 307 403 q 193 363 225 387 z "},"ğ":{"ha":537,"x_min":15,"x_max":545,"o":"m 359 486 q 371 513 357 500 q 404 531 385 526 q 439 528 422 536 q 460 495 456 521 l 517 146 q 502 -123 545 -27 q 317 -237 458 -220 q 216 -227 262 -244 q 114 -163 171 -210 q 98 -130 95 -148 q 116 -98 102 -113 q 149 -79 130 -84 q 182 -83 168 -73 q 250 -127 216 -118 q 313 -136 283 -137 q 379 -115 354 -133 q 416 -71 404 -98 q 429 -9 429 -43 q 422 64 430 26 q 364 26 399 41 q 296 7 330 12 q 201 11 247 -1 q 119 51 156 23 q 57 119 83 79 q 23 208 31 159 q 26 303 15 256 q 64 389 38 350 q 130 454 91 427 q 218 490 170 481 q 362 465 296 500 l 359 486 m 121 227 q 140 174 125 198 q 176 134 155 151 q 224 111 198 118 q 279 109 251 104 q 329 128 307 113 q 367 166 351 144 q 389 215 382 189 q 391 270 395 241 q 372 321 387 298 q 335 361 357 345 q 287 385 313 377 q 233 388 260 392 q 183 368 206 384 q 144 330 160 353 q 122 281 129 308 q 121 227 115 255 m 328 682 q 353 700 336 699 q 382 693 369 701 q 403 669 396 685 q 400 635 410 654 q 336 570 377 591 q 250 550 294 549 q 163 571 205 551 q 98 632 122 591 q 92 667 85 652 q 113 690 99 682 q 142 696 126 697 q 161 682 157 694 q 203 636 178 650 q 252 625 228 623 q 298 642 277 627 q 328 682 319 656 z "},"ĝ":{"ha":537,"x_min":15,"x_max":545,"o":"m 359 486 q 371 513 357 500 q 404 531 385 526 q 439 528 422 536 q 460 495 456 521 l 517 146 q 502 -123 545 -27 q 317 -237 458 -220 q 216 -227 262 -244 q 114 -163 171 -210 q 98 -130 95 -148 q 116 -98 102 -113 q 149 -79 130 -84 q 182 -83 168 -73 q 250 -127 216 -118 q 313 -136 283 -137 q 379 -115 354 -133 q 416 -71 404 -98 q 429 -9 429 -43 q 422 64 430 26 q 364 26 399 41 q 296 7 330 12 q 201 11 247 -1 q 119 51 156 23 q 57 119 83 79 q 23 208 31 159 q 26 303 15 256 q 64 389 38 350 q 130 454 91 427 q 218 490 170 481 q 362 465 296 500 l 359 486 m 121 227 q 140 174 125 198 q 176 134 155 151 q 224 111 198 118 q 279 109 251 104 q 329 128 307 113 q 367 166 351 144 q 389 215 382 189 q 391 270 395 241 q 372 321 387 298 q 335 361 357 345 q 287 385 313 377 q 233 388 260 392 q 183 368 206 384 q 144 330 160 353 q 122 281 129 308 q 121 227 115 255 m 187 700 q 215 723 199 716 q 246 729 231 730 q 275 720 262 728 q 298 700 289 712 l 362 606 q 361 578 368 593 q 342 554 354 563 q 313 546 330 545 q 283 563 297 547 l 241 621 l 202 564 q 176 547 191 548 q 146 554 160 547 q 125 575 133 562 q 122 602 117 589 l 187 700 z "},"ģ":{"ha":537,"x_min":15,"x_max":545,"o":"m 359 486 q 371 513 357 500 q 404 531 385 526 q 439 528 422 536 q 460 495 456 521 l 517 146 q 502 -123 545 -27 q 317 -237 458 -220 q 216 -227 262 -244 q 114 -163 171 -210 q 98 -130 95 -148 q 116 -98 102 -113 q 149 -79 130 -84 q 182 -83 168 -73 q 250 -127 216 -118 q 313 -136 283 -137 q 379 -115 354 -133 q 416 -71 404 -98 q 429 -9 429 -43 q 422 64 430 26 q 364 26 399 41 q 296 7 330 12 q 201 11 247 -1 q 119 51 156 23 q 57 119 83 79 q 23 208 31 159 q 26 303 15 256 q 64 389 38 350 q 130 454 91 427 q 218 490 170 481 q 362 465 296 500 l 359 486 m 121 227 q 140 174 125 198 q 176 134 155 151 q 224 111 198 118 q 279 109 251 104 q 329 128 307 113 q 367 166 351 144 q 389 215 382 189 q 391 270 395 241 q 372 321 387 298 q 335 361 357 345 q 287 385 313 377 q 233 388 260 392 q 183 368 206 384 q 144 330 160 353 q 122 281 129 308 q 121 227 115 255 m 250 618 q 259 589 263 606 q 241 561 255 572 q 210 547 228 549 q 175 563 191 545 q 146 613 157 582 q 133 680 134 644 q 143 755 132 716 q 184 826 155 793 q 220 845 201 844 q 254 838 240 846 q 274 813 269 829 q 267 783 279 798 q 235 739 244 764 q 225 692 225 715 q 232 649 225 669 q 250 618 239 629 z "},"ġ":{"ha":537,"x_min":15,"x_max":545,"o":"m 359 486 q 371 513 357 500 q 404 531 385 526 q 439 528 422 536 q 460 495 456 521 l 517 146 q 502 -123 545 -27 q 317 -237 458 -220 q 216 -227 262 -244 q 114 -163 171 -210 q 98 -130 95 -148 q 116 -98 102 -113 q 149 -79 130 -84 q 182 -83 168 -73 q 250 -127 216 -118 q 313 -136 283 -137 q 379 -115 354 -133 q 416 -71 404 -98 q 429 -9 429 -43 q 422 64 430 26 q 364 26 399 41 q 296 7 330 12 q 201 11 247 -1 q 119 51 156 23 q 57 119 83 79 q 23 208 31 159 q 26 303 15 256 q 64 389 38 350 q 130 454 91 427 q 218 490 170 481 q 362 465 296 500 l 359 486 m 121 227 q 140 174 125 198 q 176 134 155 151 q 224 111 198 118 q 279 109 251 104 q 329 128 307 113 q 367 166 351 144 q 389 215 382 189 q 391 270 395 241 q 372 321 387 298 q 335 361 357 345 q 287 385 313 377 q 233 388 260 392 q 183 368 206 384 q 144 330 160 353 q 122 281 129 308 q 121 227 115 255 m 138 617 q 155 661 138 643 q 198 678 172 678 q 241 661 224 678 q 259 617 259 643 q 241 574 259 591 q 198 557 224 557 q 155 574 172 557 q 138 617 138 591 z "},"ħ":{"ha":511,"x_min":-38,"x_max":484,"o":"m 370 -22 q 380 163 382 94 q 367 269 378 232 q 338 319 355 307 q 305 332 321 331 q 252 326 278 335 q 206 299 227 317 q 172 256 186 281 q 156 202 159 231 l 142 11 q 123 -24 140 -11 q 88 -37 107 -37 q 54 -26 69 -38 q 35 15 38 -14 l 98 764 q 116 798 99 789 q 151 804 133 807 q 184 790 170 802 q 198 762 199 779 l 170 399 q 237 428 201 418 q 312 435 273 438 q 419 393 382 430 q 470 296 456 357 q 482 153 484 235 q 472 -26 480 71 q 452 -59 469 -50 q 417 -65 435 -68 q 384 -50 399 -62 q 370 -22 369 -38 m 336 640 q 371 618 361 636 q 380 581 381 600 q 366 549 378 563 q 335 538 354 534 l 8 536 q -28 551 -18 536 q -37 586 -38 567 q -25 621 -35 605 q 1 636 -15 636 l 336 640 z "},"ĥ":{"ha":511,"x_min":35,"x_max":498,"o":"m 370 -22 q 380 163 382 94 q 367 269 378 232 q 338 319 355 307 q 305 332 321 331 q 252 326 278 335 q 206 299 227 317 q 172 256 186 281 q 156 202 159 231 l 142 11 q 123 -24 140 -11 q 88 -37 107 -37 q 54 -26 69 -38 q 35 15 38 -14 l 98 764 q 116 798 99 789 q 151 804 133 807 q 184 790 170 802 q 198 762 199 779 l 170 399 q 237 428 201 418 q 312 435 273 438 q 419 393 382 430 q 470 296 456 357 q 482 153 484 235 q 472 -26 480 71 q 452 -59 469 -50 q 417 -65 435 -68 q 384 -50 399 -62 q 370 -22 369 -38 m 317 937 q 345 960 330 954 q 376 966 361 967 q 406 958 392 966 q 429 937 419 949 l 492 844 q 491 815 498 830 q 472 791 484 800 q 444 783 460 783 q 414 800 427 784 l 372 859 l 332 802 q 306 785 321 785 q 277 791 290 784 q 255 812 263 799 q 252 840 247 826 l 317 937 z "},"í":{"ha":209,"x_min":8,"x_max":197,"o":"m 58 434 q 83 465 64 458 q 123 468 103 472 q 157 451 142 464 q 165 422 171 438 l 134 37 q 115 2 132 11 q 81 -4 99 -7 q 47 10 62 -1 q 34 37 33 22 l 58 434 m 109 675 q 149 687 129 690 q 180 671 168 684 q 195 640 193 658 q 182 605 197 621 l 96 510 q 60 495 79 491 q 29 513 42 499 q 12 545 16 526 q 19 574 8 563 l 109 675 z "},"ĭ":{"ha":209,"x_min":-54,"x_max":270,"o":"m 58 434 q 83 465 64 458 q 123 468 103 472 q 157 451 142 464 q 165 422 171 438 l 134 37 q 115 2 132 11 q 81 -4 99 -7 q 47 10 62 -1 q 34 37 33 22 l 58 434 m 189 629 q 213 647 197 646 q 243 640 229 648 q 263 616 256 632 q 260 582 270 601 q 196 517 237 538 q 110 497 155 496 q 24 518 65 498 q -42 579 -18 538 q -47 614 -54 600 q -27 637 -41 629 q 2 643 -14 644 q 22 629 18 642 q 63 583 38 597 q 113 572 88 570 q 158 589 137 574 q 189 629 179 604 z "},"î":{"ha":209,"x_min":-19,"x_max":232,"o":"m 58 434 q 83 465 64 458 q 123 468 103 472 q 157 451 142 464 q 165 422 171 438 l 134 37 q 115 2 132 11 q 81 -4 99 -7 q 47 10 62 -1 q 34 37 33 22 l 58 434 m 52 646 q 79 669 64 662 q 111 675 95 675 q 140 666 126 674 q 163 646 153 658 l 227 552 q 225 524 232 538 q 206 500 218 509 q 178 492 194 491 q 148 509 161 492 l 106 567 l 66 510 q 40 493 56 494 q 11 500 24 492 q -11 521 -3 507 q -14 548 -19 534 l 52 646 z "},"ï":{"ha":209,"x_min":-39,"x_max":252,"o":"m 58 434 q 83 465 64 458 q 123 468 103 472 q 157 451 142 464 q 165 422 171 438 l 134 37 q 115 2 132 11 q 81 -4 99 -7 q 47 10 62 -1 q 34 37 33 22 l 58 434 m -39 549 q -22 593 -39 575 q 20 610 -5 610 q 64 593 46 610 q 81 549 81 575 q 64 507 81 524 q 20 490 46 490 q -22 507 -5 490 q -39 549 -39 524 m 132 549 q 149 593 132 575 q 191 610 165 610 q 235 593 217 610 q 252 549 252 575 q 235 507 252 524 q 191 490 217 490 q 149 507 165 490 q 132 549 132 524 z "},"ì":{"ha":209,"x_min":15,"x_max":205,"o":"m 58 434 q 83 465 64 458 q 123 468 103 472 q 157 451 142 464 q 165 422 171 438 l 134 37 q 115 2 132 11 q 81 -4 99 -7 q 47 10 62 -1 q 34 37 33 22 l 58 434 m 194 574 q 201 545 205 563 q 184 513 197 526 q 153 495 171 499 q 117 510 134 491 l 31 605 q 17 635 15 617 q 32 667 19 652 q 64 686 45 681 q 104 675 84 690 l 194 574 z "},"ī":{"ha":209,"x_min":-103,"x_max":316,"o":"m 58 434 q 83 465 64 458 q 123 468 103 472 q 157 451 142 464 q 165 422 171 438 l 134 37 q 115 2 132 11 q 81 -4 99 -7 q 47 10 62 -1 q 34 37 33 22 l 58 434 m 271 602 q 306 580 296 598 q 315 543 316 562 q 301 511 313 525 q 270 500 289 496 l -57 498 q -93 513 -83 498 q -102 548 -103 529 q -90 583 -100 567 q -64 598 -80 598 l 271 602 z "},"į":{"ha":224,"x_min":20,"x_max":222,"o":"m 138 3 q 121 -25 127 -8 q 114 -62 114 -42 q 123 -104 114 -83 q 156 -145 133 -126 q 163 -176 168 -160 q 143 -200 157 -191 q 109 -208 129 -209 q 73 -189 90 -206 q 34 -127 46 -159 q 21 -64 22 -95 q 28 -7 20 -34 q 50 41 37 20 q 50 47 50 41 l 87 442 q 113 472 94 465 q 153 474 133 479 q 186 456 172 469 q 194 427 199 444 l 152 42 q 148 28 151 37 q 138 3 151 12 m 99 582 q 120 623 102 608 q 164 635 138 639 q 206 614 190 632 q 220 570 222 595 q 197 528 216 543 q 152 515 178 513 q 111 537 126 518 q 99 582 96 556 z "},"ĩ":{"ha":209,"x_min":-113,"x_max":334,"o":"m 58 434 q 83 465 64 458 q 123 468 103 472 q 157 451 142 464 q 165 422 171 438 l 134 37 q 115 2 132 11 q 81 -4 99 -7 q 47 10 62 -1 q 34 37 33 22 l 58 434 m 241 677 q 262 701 247 694 q 294 705 278 708 q 322 688 311 701 q 332 651 334 674 q 292 558 327 594 q 214 519 258 522 q 155 533 179 517 q 111 568 132 549 q 71 602 91 587 q 24 613 50 617 q -4 593 4 610 q -22 545 -12 575 q -47 518 -30 522 q -79 522 -64 514 q -104 549 -95 530 q -104 589 -113 567 q -57 670 -85 636 q 19 703 -28 704 q 83 688 58 703 q 127 656 109 673 q 163 625 145 639 q 205 610 180 610 q 233 629 227 610 q 241 677 240 648 z "},"ȷ":{"ha":193,"x_min":-95,"x_max":193,"o":"m 52 450 q 64 478 50 467 q 98 493 79 490 q 133 488 117 496 q 152 453 149 479 l 184 100 q 184 -56 193 14 q 149 -175 176 -126 q 75 -248 122 -224 q -43 -267 27 -271 q -83 -250 -71 -266 q -94 -214 -95 -233 q -80 -180 -94 -195 q -39 -167 -66 -165 q 68 -91 38 -170 q 79 160 98 -12 l 52 450 z "},"ĵ":{"ha":193,"x_min":-95,"x_max":220,"o":"m 52 450 q 64 478 50 467 q 98 493 79 490 q 133 488 117 496 q 152 453 149 479 l 184 100 q 184 -56 193 14 q 149 -175 176 -126 q 75 -248 122 -224 q -43 -267 27 -271 q -83 -250 -71 -266 q -94 -214 -95 -233 q -80 -180 -94 -195 q -39 -167 -66 -165 q 68 -91 38 -170 q 79 160 98 -12 l 52 450 m 39 713 q 67 736 52 730 q 98 743 83 743 q 127 734 114 742 q 151 713 141 726 l 214 620 q 213 591 220 606 q 194 568 206 576 q 165 559 182 559 q 136 576 149 560 l 94 635 l 54 578 q 28 561 43 562 q -1 568 12 560 q -23 589 -15 575 q -26 616 -31 602 l 39 713 z "},"ķ":{"ha":505,"x_min":15,"x_max":505,"o":"m 15 781 q 35 817 18 806 q 73 827 53 827 q 109 816 94 826 q 122 789 123 806 l 170 335 l 362 534 q 403 538 384 547 q 433 513 422 530 q 446 477 445 496 q 433 450 448 458 l 317 336 l 495 102 q 499 71 505 90 q 479 39 494 53 q 446 22 465 26 q 408 38 426 19 l 239 259 l 182 205 l 199 50 q 187 13 202 24 q 154 1 172 1 q 119 9 136 0 q 100 33 102 18 l 15 781 m 220 -77 q 210 -48 206 -65 q 228 -20 214 -31 q 260 -6 241 -8 q 294 -22 278 -4 q 323 -72 312 -41 q 336 -139 335 -103 q 326 -214 338 -175 q 285 -285 315 -252 q 249 -304 269 -302 q 215 -296 229 -305 q 195 -272 201 -288 q 202 -241 190 -256 q 234 -198 224 -222 q 244 -151 244 -174 q 237 -108 244 -127 q 220 -77 231 -88 z "},"ĺ":{"ha":231,"x_min":22,"x_max":214,"o":"m 24 776 q 43 812 26 800 q 79 823 60 823 q 114 813 98 823 q 132 785 130 803 l 212 46 q 200 9 214 20 q 167 -4 186 -3 q 131 3 148 -5 q 113 28 114 12 l 24 776 m 122 1032 q 162 1044 142 1047 q 194 1027 182 1040 q 208 996 206 1015 q 195 962 210 978 l 110 867 q 74 852 92 848 q 43 869 56 856 q 26 901 30 883 q 33 930 22 920 l 122 1032 z "},"ľ":{"ha":392,"x_min":42,"x_max":365,"o":"m 42 796 q 60 832 43 821 q 96 844 77 844 q 132 833 115 844 q 149 806 148 823 l 229 66 q 218 29 232 41 q 184 16 203 18 q 149 24 165 15 q 130 49 132 33 l 42 796 m 247 612 q 237 641 233 624 q 255 669 241 658 q 287 683 269 681 q 321 667 305 685 q 351 617 339 648 q 363 550 362 586 q 353 475 365 514 q 312 404 342 437 q 276 385 296 387 q 242 393 256 384 q 222 417 228 401 q 229 448 217 433 q 261 491 251 467 q 271 538 271 515 q 264 581 271 562 q 247 612 258 601 z "},"ļ":{"ha":245,"x_min":28,"x_max":231,"o":"m 28 789 q 47 825 30 814 q 83 837 64 837 q 118 827 102 837 q 136 799 134 817 l 216 60 q 204 22 218 34 q 171 9 190 11 q 135 17 152 8 q 117 42 118 26 l 28 789 m 113 -100 q 103 -71 99 -88 q 121 -43 107 -54 q 153 -29 134 -31 q 187 -45 171 -27 q 216 -95 205 -64 q 229 -162 228 -126 q 219 -237 231 -198 q 178 -308 208 -275 q 142 -327 161 -326 q 108 -319 122 -328 q 88 -295 94 -311 q 95 -264 83 -279 q 127 -221 117 -245 q 137 -174 137 -197 q 130 -131 137 -151 q 113 -100 123 -111 z "},"ŀ":{"ha":387,"x_min":53,"x_max":366,"o":"m 53 780 q 71 816 54 804 q 107 827 88 827 q 142 817 126 827 q 160 789 159 807 l 240 50 q 229 13 243 24 q 195 0 214 1 q 159 7 176 -1 q 141 33 142 16 l 53 780 m 245 357 q 262 400 245 382 q 305 418 279 418 q 349 400 331 418 q 366 357 366 382 q 349 314 366 331 q 305 297 331 297 q 262 314 279 297 q 245 357 245 331 z "},"ł":{"ha":296,"x_min":23,"x_max":286,"o":"m 111 214 l 88 203 q 50 205 65 194 q 29 234 35 216 q 27 271 23 252 q 46 294 31 289 l 98 321 l 42 800 q 60 836 43 825 q 96 848 77 848 q 132 838 115 848 q 149 810 148 827 l 197 372 l 220 384 q 260 376 244 388 q 281 348 275 365 q 280 313 286 331 q 255 289 274 296 l 208 264 l 229 71 q 218 33 232 45 q 184 20 203 22 q 149 28 165 19 q 130 53 132 37 l 111 214 z "},"ń":{"ha":511,"x_min":37,"x_max":495,"o":"m 370 28 q 388 214 388 144 q 378 321 388 283 q 353 372 369 359 q 320 388 336 385 q 266 383 292 392 q 218 357 240 374 q 183 317 197 340 q 165 264 170 293 l 142 72 q 121 39 138 52 q 86 27 104 27 q 53 40 68 27 q 37 81 38 53 l 90 487 q 109 519 92 511 q 144 524 126 528 q 177 509 163 521 q 190 480 191 496 l 189 460 q 256 487 220 479 q 331 490 293 495 q 437 442 401 480 q 484 343 472 404 q 488 201 495 282 q 469 23 481 119 q 450 -11 467 -3 q 414 -15 433 -19 q 382 1 396 -11 q 370 28 368 14 m 273 749 q 313 760 293 764 q 345 744 332 757 q 359 713 357 731 q 346 678 361 694 l 260 583 q 224 568 243 564 q 193 586 206 572 q 176 618 180 600 q 183 647 172 636 l 273 749 z "},"ŉ":{"ha":511,"x_min":37,"x_max":495,"o":"m 370 28 q 388 214 388 144 q 378 321 388 283 q 353 372 369 359 q 320 388 336 385 q 266 383 292 392 q 218 357 240 374 q 183 317 197 340 q 165 264 170 293 l 142 72 q 121 39 138 52 q 86 27 104 27 q 53 40 68 27 q 37 81 38 53 l 90 487 q 109 519 92 511 q 144 524 126 528 q 177 509 163 521 q 190 480 191 496 l 189 460 q 256 487 220 479 q 331 490 293 495 q 437 442 401 480 q 484 343 472 404 q 488 201 495 282 q 469 23 481 119 q 450 -11 467 -3 q 414 -15 433 -19 q 382 1 396 -11 q 370 28 368 14 m 221 780 q 212 809 208 792 q 229 838 216 826 q 261 851 243 849 q 296 836 279 853 q 325 785 313 817 q 338 718 336 754 q 328 644 339 682 q 286 572 316 605 q 250 553 270 555 q 216 561 231 552 q 197 585 202 570 q 203 616 191 601 q 235 659 225 635 q 245 707 245 684 q 239 749 245 730 q 221 780 232 769 z "},"ň":{"ha":511,"x_min":37,"x_max":495,"o":"m 370 28 q 388 214 388 144 q 378 321 388 283 q 353 372 369 359 q 320 388 336 385 q 266 383 292 392 q 218 357 240 374 q 183 317 197 340 q 165 264 170 293 l 142 72 q 121 39 138 52 q 86 27 104 27 q 53 40 68 27 q 37 81 38 53 l 90 487 q 109 519 92 511 q 144 524 126 528 q 177 509 163 521 q 190 480 191 496 l 189 460 q 256 487 220 479 q 331 490 293 495 q 437 442 401 480 q 484 343 472 404 q 488 201 495 282 q 469 23 481 119 q 450 -11 467 -3 q 414 -15 433 -19 q 382 1 396 -11 q 370 28 368 14 m 330 612 q 302 589 317 595 q 271 583 286 582 q 241 591 255 583 q 218 612 228 600 l 155 705 q 156 734 149 719 q 175 758 163 749 q 203 766 187 766 q 233 749 218 765 l 275 690 l 315 747 q 340 764 324 764 q 370 758 357 765 q 392 736 384 750 q 395 709 400 723 l 330 612 z "},"ņ":{"ha":511,"x_min":37,"x_max":495,"o":"m 370 28 q 388 214 388 144 q 378 321 388 283 q 353 372 369 359 q 320 388 336 385 q 266 383 292 392 q 218 357 240 374 q 183 317 197 340 q 165 264 170 293 l 142 72 q 121 39 138 52 q 86 27 104 27 q 53 40 68 27 q 37 81 38 53 l 90 487 q 109 519 92 511 q 144 524 126 528 q 177 509 163 521 q 190 480 191 496 l 189 460 q 256 487 220 479 q 331 490 293 495 q 437 442 401 480 q 484 343 472 404 q 488 201 495 282 q 469 23 481 119 q 450 -11 467 -3 q 414 -15 433 -19 q 382 1 396 -11 q 370 28 368 14 m 220 -68 q 210 -39 206 -56 q 228 -10 214 -22 q 260 3 241 1 q 294 -12 278 5 q 323 -62 312 -31 q 336 -130 335 -94 q 326 -204 338 -165 q 285 -275 315 -243 q 249 -294 269 -293 q 215 -287 229 -296 q 195 -262 201 -278 q 202 -232 190 -247 q 234 -189 224 -213 q 244 -141 244 -164 q 237 -98 244 -118 q 220 -68 231 -79 z "},"ñ":{"ha":511,"x_min":37,"x_max":528,"o":"m 370 28 q 388 214 388 144 q 378 321 388 283 q 353 372 369 359 q 320 388 336 385 q 266 383 292 392 q 218 357 240 374 q 183 317 197 340 q 165 264 170 293 l 142 72 q 121 39 138 52 q 86 27 104 27 q 53 40 68 27 q 37 81 38 53 l 90 487 q 109 519 92 511 q 144 524 126 528 q 177 509 163 521 q 190 480 191 496 l 189 460 q 256 487 220 479 q 331 490 293 495 q 437 442 401 480 q 484 343 472 404 q 488 201 495 282 q 469 23 481 119 q 450 -11 467 -3 q 414 -15 433 -19 q 382 1 396 -11 q 370 28 368 14 m 435 720 q 456 745 441 738 q 488 748 472 751 q 516 731 505 745 q 526 694 528 718 q 486 602 521 637 q 408 563 452 566 q 349 576 373 560 q 305 612 326 593 q 264 646 285 631 q 218 656 244 661 q 190 636 198 654 q 172 589 182 618 q 147 562 164 566 q 115 566 130 557 q 90 592 99 574 q 90 632 81 610 q 137 713 109 680 q 213 746 165 747 q 277 731 252 746 q 321 699 302 716 q 357 668 339 682 q 399 654 374 654 q 427 673 420 654 q 435 720 434 692 z "},"ó":{"ha":548,"x_min":30,"x_max":515,"o":"m 71 118 q 37 208 45 160 q 39 300 30 255 q 75 385 49 346 q 144 450 102 425 q 233 483 186 476 q 324 478 279 490 q 408 439 369 467 q 473 369 448 411 q 507 279 499 327 q 506 186 515 232 q 470 100 496 140 q 401 35 444 61 q 313 3 359 9 q 220 9 266 -3 q 136 48 175 20 q 71 118 96 76 m 156 170 q 193 129 171 145 q 242 106 216 113 q 296 102 269 99 q 347 121 323 106 q 385 159 370 136 q 406 208 400 182 q 408 262 412 235 q 388 313 403 289 q 351 354 373 338 q 302 376 328 370 q 248 379 275 382 q 198 361 221 376 q 159 323 174 346 q 138 275 144 301 q 136 221 132 248 q 156 170 141 194 m 285 712 q 325 724 305 727 q 357 707 345 720 q 371 676 369 694 q 358 642 373 658 l 273 547 q 237 532 255 528 q 205 549 218 536 q 189 581 193 563 q 195 610 184 600 l 285 712 z "},"ŏ":{"ha":548,"x_min":30,"x_max":515,"o":"m 71 118 q 37 208 45 160 q 39 300 30 255 q 75 385 49 346 q 144 450 102 425 q 233 483 186 476 q 324 478 279 490 q 408 439 369 467 q 473 369 448 411 q 507 279 499 327 q 506 186 515 232 q 470 100 496 140 q 401 35 444 61 q 313 3 359 9 q 220 9 266 -3 q 136 48 175 20 q 71 118 96 76 m 156 170 q 193 129 171 145 q 242 106 216 113 q 296 102 269 99 q 347 121 323 106 q 385 159 370 136 q 406 208 400 182 q 408 262 412 235 q 388 313 403 289 q 351 354 373 338 q 302 376 328 370 q 248 379 275 382 q 198 361 221 376 q 159 323 174 346 q 138 275 144 301 q 136 221 132 248 q 156 170 141 194 m 355 629 q 380 647 363 646 q 410 640 396 648 q 430 616 423 632 q 427 582 437 601 q 363 517 404 538 q 277 497 321 496 q 191 518 232 498 q 125 579 149 538 q 119 614 113 600 q 140 637 126 629 q 169 643 153 644 q 189 629 184 642 q 230 583 205 597 q 279 572 255 570 q 325 589 304 574 q 355 629 346 604 z "},"ô":{"ha":548,"x_min":30,"x_max":515,"o":"m 71 118 q 37 208 45 160 q 39 300 30 255 q 75 385 49 346 q 144 450 102 425 q 233 483 186 476 q 324 478 279 490 q 408 439 369 467 q 473 369 448 411 q 507 279 499 327 q 506 186 515 232 q 470 100 496 140 q 401 35 444 61 q 313 3 359 9 q 220 9 266 -3 q 136 48 175 20 q 71 118 96 76 m 156 170 q 193 129 171 145 q 242 106 216 113 q 296 102 269 99 q 347 121 323 106 q 385 159 370 136 q 406 208 400 182 q 408 262 412 235 q 388 313 403 289 q 351 354 373 338 q 302 376 328 370 q 248 379 275 382 q 198 361 221 376 q 159 323 174 346 q 138 275 144 301 q 136 221 132 248 q 156 170 141 194 m 222 671 q 250 694 235 688 q 281 701 266 701 q 311 692 297 700 q 334 671 324 684 l 397 578 q 396 549 403 564 q 377 526 389 534 q 349 517 365 517 q 319 534 332 518 l 277 593 l 237 536 q 211 519 227 519 q 182 526 195 518 q 160 547 168 533 q 157 574 152 560 l 222 671 z "},"ö":{"ha":548,"x_min":30,"x_max":515,"o":"m 71 118 q 37 208 45 160 q 39 300 30 255 q 75 385 49 346 q 144 450 102 425 q 233 483 186 476 q 324 478 279 490 q 408 439 369 467 q 473 369 448 411 q 507 279 499 327 q 506 186 515 232 q 470 100 496 140 q 401 35 444 61 q 313 3 359 9 q 220 9 266 -3 q 136 48 175 20 q 71 118 96 76 m 156 170 q 193 129 171 145 q 242 106 216 113 q 296 102 269 99 q 347 121 323 106 q 385 159 370 136 q 406 208 400 182 q 408 262 412 235 q 388 313 403 289 q 351 354 373 338 q 302 376 328 370 q 248 379 275 382 q 198 361 221 376 q 159 323 174 346 q 138 275 144 301 q 136 221 132 248 q 156 170 141 194 m 127 549 q 144 593 127 575 q 187 610 161 610 q 231 593 213 610 q 248 549 248 575 q 231 507 248 524 q 187 490 213 490 q 144 507 161 490 q 127 549 127 524 m 298 549 q 315 593 298 575 q 358 610 332 610 q 401 593 384 610 q 419 549 419 575 q 401 507 419 524 q 358 490 384 490 q 315 507 332 490 q 298 549 298 524 z "},"ò":{"ha":548,"x_min":30,"x_max":515,"o":"m 71 118 q 37 208 45 160 q 39 300 30 255 q 75 385 49 346 q 144 450 102 425 q 233 483 186 476 q 324 478 279 490 q 408 439 369 467 q 473 369 448 411 q 507 279 499 327 q 506 186 515 232 q 470 100 496 140 q 401 35 444 61 q 313 3 359 9 q 220 9 266 -3 q 136 48 175 20 q 71 118 96 76 m 156 170 q 193 129 171 145 q 242 106 216 113 q 296 102 269 99 q 347 121 323 106 q 385 159 370 136 q 406 208 400 182 q 408 262 412 235 q 388 313 403 289 q 351 354 373 338 q 302 376 328 370 q 248 379 275 382 q 198 361 221 376 q 159 323 174 346 q 138 275 144 301 q 136 221 132 248 q 156 170 141 194 m 380 600 q 387 570 391 589 q 370 538 382 552 q 338 521 357 525 q 302 536 320 517 l 217 631 q 203 661 201 643 q 218 692 205 678 q 250 711 231 707 q 290 701 270 716 l 380 600 z "},"ő":{"ha":548,"x_min":30,"x_max":515,"o":"m 71 118 q 37 208 45 160 q 39 300 30 255 q 75 385 49 346 q 144 450 102 425 q 233 483 186 476 q 324 478 279 490 q 408 439 369 467 q 473 369 448 411 q 507 279 499 327 q 506 186 515 232 q 470 100 496 140 q 401 35 444 61 q 313 3 359 9 q 220 9 266 -3 q 136 48 175 20 q 71 118 96 76 m 156 170 q 193 129 171 145 q 242 106 216 113 q 296 102 269 99 q 347 121 323 106 q 385 159 370 136 q 406 208 400 182 q 408 262 412 235 q 388 313 403 289 q 351 354 373 338 q 302 376 328 370 q 248 379 275 382 q 198 361 221 376 q 159 323 174 346 q 138 275 144 301 q 136 221 132 248 q 156 170 141 194 m 189 675 q 229 686 209 690 q 261 667 248 681 q 276 635 274 652 q 262 605 278 617 l 176 510 q 140 495 159 491 q 109 513 122 499 q 92 545 96 526 q 99 574 88 563 l 189 675 m 363 675 q 404 686 384 690 q 436 667 423 681 q 451 635 449 652 q 437 605 453 617 l 351 510 q 315 495 334 491 q 284 513 297 499 q 267 545 271 526 q 274 574 263 563 l 363 675 z "},"ō":{"ha":548,"x_min":30,"x_max":515,"o":"m 71 118 q 37 208 45 160 q 39 300 30 255 q 75 385 49 346 q 144 450 102 425 q 233 483 186 476 q 324 478 279 490 q 408 439 369 467 q 473 369 448 411 q 507 279 499 327 q 506 186 515 232 q 470 100 496 140 q 401 35 444 61 q 313 3 359 9 q 220 9 266 -3 q 136 48 175 20 q 71 118 96 76 m 156 170 q 193 129 171 145 q 242 106 216 113 q 296 102 269 99 q 347 121 323 106 q 385 159 370 136 q 406 208 400 182 q 408 262 412 235 q 388 313 403 289 q 351 354 373 338 q 302 376 328 370 q 248 379 275 382 q 198 361 221 376 q 159 323 174 346 q 138 275 144 301 q 136 221 132 248 q 156 170 141 194 m 439 602 q 474 580 464 598 q 483 543 484 562 q 469 511 481 525 q 438 500 457 496 l 111 498 q 75 513 85 498 q 66 548 65 529 q 78 583 68 567 q 104 598 88 598 l 439 602 z "},"ø":{"ha":548,"x_min":30,"x_max":515,"o":"m 71 118 q 37 208 45 160 q 39 300 30 255 q 75 385 49 346 q 144 450 102 425 q 254 484 195 483 q 366 463 313 486 l 385 488 q 419 510 399 509 q 456 503 439 511 q 481 477 472 494 q 483 444 491 460 l 449 400 q 473 369 463 387 q 507 279 499 327 q 506 186 515 232 q 470 100 496 140 q 401 35 444 61 q 283 1 346 1 q 164 30 220 1 l 146 8 q 117 -18 136 -15 q 83 -13 99 -22 q 56 12 66 -4 q 53 42 46 27 l 90 91 q 71 118 79 104 m 388 313 q 387 315 387 315 q 385 317 387 316 l 227 111 q 288 102 256 100 q 347 121 320 103 q 385 159 370 136 q 406 208 400 182 q 408 262 412 235 q 388 313 403 289 m 198 361 q 159 324 175 346 q 138 277 144 302 q 135 226 132 252 q 152 175 138 199 l 301 376 q 198 361 247 391 z "},"ǿ":{"ha":548,"x_min":30,"x_max":515,"o":"m 400 450 q 434 472 414 471 q 471 465 454 473 q 496 439 487 456 q 498 406 506 422 l 174 -4 q 144 -31 163 -27 q 110 -25 126 -34 q 83 -1 94 -16 q 80 30 73 15 l 400 450 m 71 118 q 37 208 45 160 q 39 300 30 255 q 75 385 49 346 q 144 450 102 425 q 233 483 186 476 q 324 478 279 490 q 408 439 369 467 q 473 369 448 411 q 507 279 499 327 q 506 186 515 232 q 470 100 496 140 q 401 35 444 61 q 313 3 359 9 q 220 9 266 -3 q 136 48 175 20 q 71 118 96 76 m 156 170 q 193 129 171 145 q 242 106 216 113 q 296 102 269 99 q 347 121 323 106 q 385 159 370 136 q 406 208 400 182 q 408 262 412 235 q 388 313 403 289 q 351 354 373 338 q 302 376 328 370 q 248 379 275 382 q 198 361 221 376 q 159 323 174 346 q 138 275 144 301 q 136 221 132 248 q 156 170 141 194 m 277 675 q 317 687 297 690 q 349 671 336 684 q 363 640 361 658 q 350 605 365 621 l 264 510 q 229 495 247 491 q 197 513 210 499 q 180 545 184 526 q 187 574 176 563 l 277 675 z "},"õ":{"ha":548,"x_min":30,"x_max":515,"o":"m 71 118 q 37 208 45 160 q 39 300 30 255 q 75 385 49 346 q 144 450 102 425 q 233 483 186 476 q 324 478 279 490 q 408 439 369 467 q 473 369 448 411 q 507 279 499 327 q 506 186 515 232 q 470 100 496 140 q 401 35 444 61 q 313 3 359 9 q 220 9 266 -3 q 136 48 175 20 q 71 118 96 76 m 156 170 q 193 129 171 145 q 242 106 216 113 q 296 102 269 99 q 347 121 323 106 q 385 159 370 136 q 406 208 400 182 q 408 262 412 235 q 388 313 403 289 q 351 354 373 338 q 302 376 328 370 q 248 379 275 382 q 198 361 221 376 q 159 323 174 346 q 138 275 144 301 q 136 221 132 248 q 156 170 141 194 m 410 677 q 431 701 415 694 q 463 705 446 708 q 490 688 479 701 q 500 651 502 674 q 460 558 495 594 q 382 519 426 522 q 323 533 347 517 q 279 568 300 549 q 239 602 259 587 q 193 613 218 617 q 164 593 172 610 q 146 545 156 575 q 121 518 138 522 q 89 522 104 514 q 64 549 73 530 q 64 589 56 567 q 111 670 83 636 q 187 703 140 704 q 252 688 227 703 q 295 656 277 673 q 331 625 313 639 q 373 610 349 610 q 401 629 395 610 q 410 677 408 648 z "},"œ":{"ha":810,"x_min":34,"x_max":792,"o":"m 688 193 q 718 214 697 210 q 756 210 738 217 q 783 186 774 202 q 780 149 792 171 q 711 68 751 99 q 627 24 671 37 q 535 15 582 11 q 446 39 488 19 q 389 -6 422 12 q 317 -31 357 -24 q 223 -27 269 -39 q 140 12 178 -15 q 76 80 102 39 q 42 170 50 121 q 44 265 34 218 q 81 351 54 312 q 146 416 107 389 q 233 452 184 444 q 308 452 271 458 q 376 429 345 445 q 434 475 401 456 q 506 502 467 495 q 587 505 547 510 q 661 482 627 499 q 722 435 696 465 q 761 365 747 406 q 760 292 776 321 q 673 250 743 262 l 419 206 q 468 140 435 165 q 539 109 500 114 q 618 123 578 104 q 688 193 658 142 m 298 69 q 334 81 317 72 q 366 102 351 90 q 313 221 326 151 q 311 281 308 252 q 323 338 313 311 q 251 349 288 354 q 200 328 222 343 q 162 290 178 312 q 140 241 146 267 q 140 186 134 214 q 159 134 144 157 q 197 95 175 111 q 245 71 218 79 q 298 69 271 64 m 522 401 q 456 368 483 395 q 418 305 429 342 l 663 346 q 602 401 642 393 q 522 401 562 410 z "},"ŕ":{"ha":494,"x_min":35,"x_max":484,"o":"m 392 309 q 348 345 373 330 q 294 363 323 361 q 242 355 267 365 q 197 326 217 345 q 165 281 178 307 q 152 228 153 256 l 142 35 q 124 1 140 14 q 90 -14 109 -12 q 56 -3 72 -15 q 35 38 39 9 l 58 445 q 76 479 60 471 q 111 486 92 488 q 145 473 130 484 q 159 446 160 463 l 160 425 q 226 456 191 445 q 300 465 260 468 q 403 437 357 463 q 476 363 449 411 q 479 333 484 350 q 461 304 475 316 q 429 291 448 292 q 392 309 411 290 m 283 686 q 323 698 304 701 q 355 682 343 694 q 370 650 368 669 q 357 616 372 632 l 271 521 q 235 506 254 502 q 204 524 217 510 q 187 555 191 537 q 194 585 183 574 l 283 686 z "},"ř":{"ha":494,"x_min":18,"x_max":467,"o":"m 374 312 q 330 348 355 332 q 277 366 305 363 q 224 357 250 368 q 180 328 199 347 q 148 284 160 309 q 134 231 136 259 l 125 38 q 106 3 122 16 q 73 -11 91 -9 q 38 0 54 -12 q 18 41 22 12 l 41 448 q 58 482 42 473 q 94 489 75 491 q 127 476 113 487 q 141 449 142 465 l 142 427 q 208 459 174 448 q 282 468 243 471 q 385 439 339 465 q 458 366 431 414 q 462 336 467 353 q 444 307 457 319 q 412 294 430 294 q 374 312 393 293 m 345 543 q 317 519 332 526 q 286 513 301 513 q 256 522 270 514 q 233 543 243 530 l 170 636 q 171 665 164 650 q 190 688 178 680 q 218 696 202 697 q 248 680 233 696 l 290 621 l 330 678 q 355 695 339 694 q 385 688 372 696 q 407 667 399 681 q 410 640 415 654 l 345 543 z "},"ŗ":{"ha":494,"x_min":33,"x_max":481,"o":"m 389 312 q 345 348 370 332 q 292 366 320 363 q 239 357 264 368 q 195 328 214 347 q 163 284 175 309 q 149 231 151 259 l 140 38 q 121 3 137 16 q 87 -11 106 -9 q 53 0 69 -12 q 33 41 37 12 l 56 448 q 73 482 57 473 q 109 489 90 491 q 142 476 127 487 q 156 449 157 465 l 157 427 q 223 459 189 448 q 297 468 258 471 q 400 439 354 465 q 473 366 446 414 q 477 336 481 353 q 458 307 472 319 q 427 294 445 294 q 389 312 408 293 m 209 -80 q 199 -51 195 -68 q 217 -22 203 -34 q 249 -9 231 -11 q 283 -24 267 -7 q 313 -75 301 -43 q 326 -142 324 -106 q 315 -216 327 -178 q 274 -288 304 -255 q 238 -307 258 -305 q 204 -299 218 -308 q 184 -275 190 -290 q 191 -244 179 -259 q 223 -201 213 -225 q 233 -153 233 -176 q 227 -111 233 -130 q 209 -80 220 -91 z "},"ś":{"ha":498,"x_min":28,"x_max":487,"o":"m 393 445 q 404 412 408 430 q 385 383 399 395 q 352 370 370 372 q 323 384 334 368 q 269 410 300 404 q 220 412 239 415 q 186 402 202 410 q 159 384 171 395 q 140 360 146 373 q 133 336 133 347 q 145 304 134 315 q 174 290 156 293 q 214 288 191 286 q 260 292 236 289 q 331 294 296 294 q 396 283 366 294 q 448 249 426 273 q 479 182 471 225 q 474 115 487 145 q 436 60 461 84 q 376 21 411 37 q 307 -1 342 5 q 177 10 241 -12 q 75 94 113 33 q 73 135 65 115 q 96 165 81 155 q 128 176 111 176 q 155 157 145 175 q 184 117 167 132 q 220 96 201 102 q 258 90 239 90 q 297 95 278 91 q 359 121 334 102 q 381 159 384 141 q 347 201 376 195 q 275 205 317 208 q 208 199 243 202 q 139 204 172 197 q 79 233 106 212 q 39 301 53 255 q 37 370 28 338 q 67 429 46 403 q 121 473 88 454 q 190 498 153 491 q 296 497 241 509 q 393 445 350 486 m 262 694 q 302 706 282 709 q 334 690 321 703 q 348 659 346 677 q 335 624 350 640 l 250 529 q 214 514 232 510 q 182 532 195 518 q 165 564 170 545 q 172 593 161 582 l 262 694 z "}}}
